<?xml version="1.0" encoding="UTF-8"?>
<svg width="34px" height="34px" viewBox="0 0 34 34" version="1.1" xmlns="http://www.w3.org/2000/svg" xmlns:xlink="http://www.w3.org/1999/xlink">
    <!-- Generator: sketchtool 51 (57462) - http://www.bohemiancoding.com/sketch -->
    <title>6E4B9E6C-6CCC-487F-9D5A-29D7735F5DFC</title>
    <desc>Created with sketchtool.</desc>
    <defs></defs>
    <g id="help-page" stroke="none" stroke-width="1" fill="none" fill-rule="evenodd">
        <g id="Contact-Us" transform="translate(-933.000000, -365.000000)">
            <rect fill="#FFFFFF" x="0" y="0" width="1440" height="1021"></rect>
            <g id="Group-6" transform="translate(929.000000, 136.000000)" fill="#EC2552">
                <g id="facebook-logo">
                    <g id="Group-4">
                        <g id="info" transform="translate(4.000000, 229.000000)">
                            <g id="Shape">
                                <path d="M29.020793,4.97927344 C25.809918,1.76826562 21.5409258,0 17,0 C12.4590742,0 8.19008203,1.76826562 4.97927344,4.97927344 C1.76826562,8.19008203 0,12.4590742 0,17 C0,21.5409258 1.76826562,25.809918 4.97927344,29.020793 C8.19008203,32.2317344 12.4590742,34 17,34 C21.5409258,34 25.809918,32.2317344 29.020793,29.020793 C32.2317344,25.809918 34,21.5409258 34,17 C34,12.4590742 32.2317344,8.19008203 29.020793,4.97927344 Z M17,32.6454453 C8.37309766,32.6454453 1.35455469,25.6269688 1.35455469,17 C1.35455469,8.37303125 8.37309766,1.35455469 17,1.35455469 C25.6269023,1.35455469 32.6454453,8.37309766 32.6454453,17 C32.6454453,25.6269023 25.6269023,32.6454453 17,32.6454453 Z" fill-rule="nonzero"></path>
                                <path d="M17.5,12 C16.1215228,12 15,13.0939404 15,14.4385156 L15,26.5614844 C15,27.9060596 16.1215228,29 17.5,29 C18.8784772,29 20,27.9060596 20,26.5614844 L20,14.4385156 C20,13.0938721 18.8784772,12 17.5,12 Z M18.5714486,26.5614844 C18.5714486,27.1377602 18.090806,27.606582 17.5,27.606582 C16.909194,27.606582 16.4285514,27.1377602 16.4285514,26.5614844 L16.4285514,14.4385156 C16.4285514,13.8622398 16.909194,13.393418 17.5,13.393418 C18.090806,13.393418 18.5714486,13.8622398 18.5714486,14.4385156 L18.5714486,26.5614844 Z" fill-rule="nonzero"></path>
                                <path d="M19.2673054,6.73143401 C18.8014399,6.26654901 18.1571981,6 17.5,6 C16.8427319,6 16.1984901,6.26654901 15.7319243,6.73206432 C15.2667591,7.19736953 15,7.84168137 15,8.5 C15,9.15719808 15.266549,9.8014399 15.7325546,10.2684259 C16.19842,10.733381 16.8426618,11 17.5,11 C18.1572681,11 18.8015099,10.733381 19.2684259,10.2673754 C19.733381,9.80150993 20,9.15726812 20,8.5 C20,7.84168137 19.7332409,7.19729949 19.2673054,6.73143401 Z M18.258257,9.25727652 C18.0581001,9.45687313 17.7817464,9.57144858 17.5,9.57144858 C17.2180435,9.57144858 16.9416898,9.45687313 16.7427235,9.25839706 C16.5431269,9.05824019 16.4285514,8.7818164 16.4285514,8.50007003 C16.4285514,8.21769336 16.5429168,7.94147968 16.7415329,7.74279351 C16.9416898,7.54319691 17.2181136,7.42862145 17.5,7.42862145 C17.7818164,7.42862145 18.0582402,7.54319691 18.2576967,7.74223324 C18.4570832,7.94161974 18.5713785,8.2177634 18.5713785,8.5 C18.5714486,8.78188643 18.4568731,9.05824019 18.258257,9.25727652 Z" fill-rule="nonzero"></path>
                            </g>
                        </g>
                    </g>
                </g>
            </g>
        </g>
    </g>
</svg>