<?xml version="1.0" encoding="UTF-8"?>
<svg width="15px" height="20px" viewBox="0 0 15 20" version="1.1" xmlns="http://www.w3.org/2000/svg" xmlns:xlink="http://www.w3.org/1999/xlink">
    <!-- Generator: Sketch 49.1 (51147) - http://www.bohemiancoding.com/sketch -->
    <title>lock</title>
    <desc>Created with Sketch.</desc>
    <defs></defs>
    <g id="Symbols" stroke="none" stroke-width="1" fill="none" fill-rule="evenodd">
        <g id="lock" fill="#1C2D4D" fill-rule="nonzero">
            <g id="Shape">
                <path d="M8.43721767,10.4027344 C8.05943989,10.0319141 7.56035519,9.8353125 7.03328552,9.85046875 C6.02663934,9.87863281 5.20148907,10.6954297 5.15465392,11.7100391 C5.12670765,12.3162891 5.38252049,12.9059375 5.84065346,13.2961328 L5.84065346,14.6727734 C5.84065346,15.3668359 6.40015938,15.9314844 7.08786202,15.9314844 C7.77556466,15.9314844 8.33507058,15.3668359 8.33507058,14.6727734 L8.33507058,13.2961719 C8.77295993,12.9237109 9.023199,12.3818359 9.023199,11.8028516 C9.023199,11.2709375 8.81511157,10.7737109 8.43721767,10.4027344 Z M7.81682605,12.7149609 C7.65421903,12.8474609 7.56093579,13.0455078 7.56093579,13.2582422 L7.56093579,14.6728125 C7.56093579,14.9360547 7.34870674,15.1502734 7.08786202,15.1502734 C6.8270173,15.1502734 6.61478825,14.9360938 6.61478825,14.6728125 L6.61478825,13.2582422 C6.61478825,13.0455078 6.52158242,12.8475 6.35905282,12.7150781 C6.35905282,12.7150391 6.35905282,12.7150391 6.35905282,12.7150391 C6.06766849,12.4775781 5.91051913,12.1245313 5.92797587,11.7463672 C5.95603825,11.1380469 6.45094262,10.6483203 7.05465164,10.6314453 C7.06576047,10.6311328 7.0768306,10.6309766 7.08790073,10.6309766 C7.39236794,10.6309766 7.67875911,10.7480859 7.89745219,10.9627344 C8.12419627,11.1853516 8.24906421,11.4837109 8.24906421,11.8028516 C8.24906421,12.1585547 8.09148907,12.4910156 7.81682605,12.7149609 Z"></path>
                <path d="M12.1197382,7.92058594 L12.1197382,5.078125 C12.1197382,2.27800781 9.86243852,0 7.08786202,0 C4.31328552,0 2.05598588,2.27800781 2.05598588,5.078125 L2.05598588,7.91554688 C1.11227687,8.88890625 0.457397541,10.1226172 0.186566485,11.4572266 C0.143679417,11.6685547 0.278688525,11.8749609 0.488130692,11.9182812 C0.69768898,11.9616016 0.902099271,11.8253125 0.944986339,11.6139453 C1.53890255,8.68695313 4.12238388,6.5625 7.08786202,6.5625 C10.5454189,6.5625 13.3583538,9.40128906 13.3583538,12.890625 C13.3583538,16.3799609 10.5454189,19.21875 7.08786202,19.21875 C4.1219194,19.21875 1.53836066,17.0939062 0.944792805,14.1663672 C0.901944444,13.9550391 0.697611566,13.8186719 0.487975865,13.8619922 C0.278533698,13.9052344 0.14352459,14.1116406 0.186372951,14.3230078 C0.506942168,15.9039844 1.36646403,17.3435156 2.60666667,18.3764453 C3.86374545,19.4233984 5.45521175,20 7.08786202,20 C10.9722769,20 14.1324886,16.8107422 14.1324886,12.890625 C14.1324886,10.9579687 13.3640437,9.20332031 12.1197382,7.92058594 Z M9.48767987,6.20628906 C8.7383174,5.93144531 7.93015938,5.78125 7.08786202,5.78125 C6.26491803,5.78125 5.45250228,5.92792969 4.68804417,6.20730469 L4.68804417,5.078125 C4.68804417,3.74269531 5.76459472,2.65625 7.08786202,2.65625 C8.41112933,2.65625 9.48767987,3.74269531 9.48767987,5.078125 L9.48767987,6.20628906 Z M11.3456034,7.23070312 C11.0069194,6.97058594 10.6444308,6.740625 10.2618147,6.54492187 L10.2618147,5.078125 C10.2618147,3.31191406 8.83798725,1.875 7.08786202,1.875 C5.33773679,1.875 3.91390938,3.31191406 3.91390938,5.078125 L3.91390938,6.54433594 C3.53423497,6.73746094 3.17116576,6.96542969 2.83012067,7.2265625 L2.83012067,5.078125 C2.83012067,2.70882812 4.74014344,0.78125 7.08786202,0.78125 C9.4355806,0.78125 11.3456034,2.70882812 11.3456034,5.078125 L11.3456034,7.23070312 Z"></path>
                <path d="M12.3159813,12.6144531 C12.2439868,12.5417969 12.1441234,12.5 12.0423247,12.5 C11.940526,12.5 11.8406626,12.5417578 11.768668,12.6144531 C11.6966735,12.6871094 11.6552573,12.7878906 11.6552573,12.890625 C11.6552573,12.9933594 11.6966735,13.0941406 11.768668,13.1667578 C11.8406626,13.2394141 11.940526,13.28125 12.0423247,13.28125 C12.1441234,13.28125 12.2439868,13.2394531 12.3159813,13.1667578 C12.3879759,13.0941406 12.4293921,12.9933594 12.4293921,12.890625 C12.4293921,12.7878906 12.3879759,12.6871094 12.3159813,12.6144531 Z"></path>
                <path d="M12.286719,11.6480859 C12.0150364,10.4862891 11.3543124,9.43300781 10.4262796,8.68230469 C9.48377049,7.91988281 8.29814435,7.5 7.08786202,7.5 C6.8740847,7.5 6.70079463,7.67492188 6.70079463,7.890625 C6.70079463,8.10632812 6.8740847,8.28125 7.08786202,8.28125 C9.21700364,8.28125 11.0450068,9.73953125 11.5332536,11.8275391 C11.5752892,12.0073828 11.7341803,12.1285156 11.9096767,12.1285156 C11.9390938,12.1285156 11.9690141,12.1251172 11.9988957,12.1179687 C12.2069444,12.0683984 12.3357992,11.8580469 12.286719,11.6480859 Z"></path>
                <path d="M0.439398907,12.5 L0.421245446,12.5 C0.207468124,12.5 0.034178051,12.6749219 0.034178051,12.890625 C0.034178051,13.1063281 0.207468124,13.28125 0.421245446,13.28125 L0.439398907,13.28125 C0.65317623,13.28125 0.826466302,13.1063281 0.826466302,12.890625 C0.826466302,12.6749219 0.65317623,12.5 0.439398907,12.5 Z"></path>
            </g>
        </g>
    </g>
</svg>