<?xml version="1.0" encoding="UTF-8"?>
<svg width="131px" height="62px" viewBox="0 0 131 62" version="1.1" xmlns="http://www.w3.org/2000/svg" xmlns:xlink="http://www.w3.org/1999/xlink">
    <!-- Generator: sketchtool 49.1 (51147) - http://www.bohemiancoding.com/sketch -->
    <title>2F7770F5-C583-417D-A598-3D6F292B9D40</title>
    <desc>Created with sketchtool.</desc>
    <defs>
        <linearGradient x1="3.40885745%" y1="76.0801193%" x2="66.9601546%" y2="43.425975%" id="linearGradient-1">
            <stop stop-color="#FFFFFF" stop-opacity="0" offset="0%"></stop>
            <stop stop-color="#3F3F3F" stop-opacity="0.761237545" offset="100%"></stop>
        </linearGradient>
    </defs>
    <g id="Symbols" stroke="none" stroke-width="1" fill="none" fill-rule="evenodd">
        <g id="menu" transform="translate(-156.000000, -12.000000)">
            <g id="Group" transform="translate(156.000000, 12.000000)">
                <path d="M1.59329106,52.0848329 L1.64791819,53.3084833 C2.4005623,52.372746 3.38384066,51.9048843 4.59778278,51.9048843 C6.67969351,51.9048843 7.7297377,53.0655411 7.74794683,55.3868895 L7.74794683,61.8200514 L6.06361056,61.8200514 L6.06361056,55.377892 C6.05754085,54.676089 5.89517853,54.1572425 5.57651872,53.8213368 C5.25785892,53.4854311 4.76166752,53.3174807 4.08792964,53.3174807 C3.54165569,53.3174807 3.06215575,53.4614381 2.64941542,53.7493573 C2.2366751,54.0372765 1.91498527,54.4151648 1.68433627,54.8830334 L1.68433627,61.8200514 L0,61.8200514 L0,52.0848329 L1.59329106,52.0848329 Z M21.16853,62 C19.8331936,62 18.7467317,61.5666282 17.9091117,60.6998715 C17.0714916,59.8331148 16.6526879,58.6739576 16.6526879,57.222365 L16.6526879,56.9164524 C16.6526879,55.9507235 16.8393287,55.0884785 17.2126159,54.3296915 C17.5859031,53.5709045 18.1078904,52.9770801 18.7785934,52.5482005 C19.4492964,52.1193209 20.1761333,51.9048843 20.959126,51.9048843 C22.2398349,51.9048843 23.2352525,52.321761 23.9454087,53.155527 C24.6555648,53.9892929 25.0106376,55.18294 25.0106376,56.7365039 L25.0106376,57.4293059 L18.3370241,57.4293059 C18.361303,58.3890365 18.6450577,59.1643072 19.1882968,59.7551414 C19.7315359,60.3459755 20.4219551,60.6413882 21.2595752,60.6413882 C21.8544068,60.6413882 22.3581852,60.5214237 22.7709256,60.281491 C23.1836659,60.0415584 23.5448082,59.7236524 23.8543635,59.3277635 L24.8831743,60.1195373 C24.0576936,61.3731854 22.8194913,62 21.16853,62 Z M20.959126,53.2724936 C20.2793184,53.2724936 19.7087742,53.5169213 19.2474762,54.0057841 C18.7861782,54.4946468 18.5009061,55.1799442 18.3916513,56.0616967 L23.3263013,56.0616967 L23.3263013,55.9357326 C23.2777436,55.0899701 23.0470981,54.4346638 22.6343577,53.9697943 C22.2216174,53.5049248 21.6632124,53.2724936 20.959126,53.2724936 Z M37.0564381,55.6388175 L39.241523,52.0848329 L41.2080994,52.0848329 L37.9850992,56.8984576 L41.3082491,61.8200514 L39.3598818,61.8200514 L37.0837517,58.1760925 L34.8076216,61.8200514 L32.8501497,61.8200514 L36.1732997,56.8984576 L32.9502994,52.0848329 L34.8986668,52.0848329 L37.0564381,55.6388175 Z M52.0703123,49.7275064 L52.0703123,52.0848329 L53.9094254,52.0848329 L53.9094254,53.3714653 L52.0703123,53.3714653 L52.0703123,59.4087404 C52.0703123,59.7986309 52.1522522,60.0910444 52.3161344,60.2859897 C52.4800166,60.480935 52.7592191,60.5784062 53.1537503,60.5784062 C53.347981,60.5784062 53.6150443,60.5424168 53.9549481,60.470437 L53.9549481,61.8200514 C53.5118592,61.9400177 53.0809162,62 52.6621062,62 C51.909462,62 51.3419526,61.7750665 50.9595609,61.3251928 C50.5771691,60.8753191 50.3859761,60.236508 50.3859761,59.4087404 L50.3859761,53.3714653 L48.5923856,53.3714653 L48.5923856,52.0848329 L50.3859761,52.0848329 L50.3859761,49.7275064 L52.0703123,49.7275064 Z M73.6672749,56.8714653 C73.6672749,55.3778846 74.0253824,54.1767398 74.7416083,53.2679949 C75.4578341,52.35925 76.3955904,51.9048843 77.5549051,51.9048843 C78.7081501,51.9048843 79.6216278,52.294769 80.2953657,53.0745501 L80.2953657,48 L81.979702,48 L81.979702,61.8200514 L80.4319335,61.8200514 L80.3499928,60.7763496 C79.676255,61.5921206 78.7384987,62 77.536696,62 C76.3955905,62 75.4654213,61.5381366 74.7461606,60.6143959 C74.0268999,59.6906552 73.6672749,58.4850117 73.6672749,56.9974293 L73.6672749,56.8714653 Z M75.3516112,57.0604113 C75.3516112,58.1641015 75.5822567,59.0278461 76.0435547,59.651671 C76.5048527,60.2754958 77.1421628,60.5874036 77.955504,60.5874036 C79.023773,60.5874036 79.8037192,60.1135437 80.2953657,59.1658098 L80.2953657,54.6940874 C79.7915797,53.776345 79.0177032,53.3174807 77.973713,53.3174807 C77.1482324,53.3174807 76.5048527,53.6323876 76.0435547,54.2622108 C75.5822567,54.892034 75.3516112,55.8247582 75.3516112,57.0604113 Z M90.9390702,56.8624679 C90.9390702,55.9087356 91.1287458,55.0509892 91.5081027,54.2892031 C91.8874596,53.5274169 92.4155165,52.9395908 93.0922892,52.5257069 C93.7690619,52.1118231 94.541421,51.9048843 95.4093896,51.9048843 C96.7507957,51.9048843 97.8357402,52.3637486 98.6642557,53.281491 C99.4927712,54.1992334 99.9070227,55.4198724 99.9070227,56.9434447 L99.9070227,57.0604113 C99.9070227,58.0081453 99.7234167,58.8583938 99.3561992,59.6111825 C98.9889817,60.3639712 98.4639596,60.9502978 97.7811172,61.3701799 C97.0982748,61.7900621 96.3137764,62 95.4275987,62 C94.0922624,62 93.0103527,61.5411357 92.1818372,60.6233933 C91.3533217,59.7056509 90.9390702,58.4910101 90.9390702,56.9794344 L90.9390702,56.8624679 Z M92.6325109,57.0604113 C92.6325109,58.1401082 92.8859176,59.0068519 93.3927384,59.6606684 C93.8995592,60.3144848 94.5778392,60.6413882 95.4275987,60.6413882 C96.2834279,60.6413882 96.9632253,60.3099862 97.4670112,59.6471722 C97.9707972,58.9843583 98.2226864,58.0561328 98.2226864,56.8624679 C98.2226864,55.7947676 97.966245,54.9295235 97.4533545,54.2667095 C96.9404639,53.6038956 96.2591491,53.2724936 95.4093896,53.2724936 C94.5778393,53.2724936 93.9071463,53.5993969 93.3972906,54.2532134 C92.887435,54.9070298 92.6325109,55.8427531 92.6325109,57.0604113 Z M108.365642,56.8624679 C108.365642,55.9087356 108.555318,55.0509892 108.934675,54.2892031 C109.314032,53.5274169 109.842089,52.9395908 110.518861,52.5257069 C111.195634,52.1118231 111.967993,51.9048843 112.835962,51.9048843 C114.177368,51.9048843 115.262312,52.3637486 116.090828,53.281491 C116.919343,54.1992334 117.333595,55.4198724 117.333595,56.9434447 L117.333595,57.0604113 C117.333595,58.0081453 117.149989,58.8583938 116.782771,59.6111825 C116.415554,60.3639712 115.890532,60.9502978 115.207689,61.3701799 C114.524847,61.7900621 113.740349,62 112.854171,62 C111.518834,62 110.436925,61.5411357 109.608409,60.6233933 C108.779894,59.7056509 108.365642,58.4910101 108.365642,56.9794344 L108.365642,56.8624679 Z M110.059083,57.0604113 C110.059083,58.1401082 110.31249,59.0068519 110.81931,59.6606684 C111.326131,60.3144848 112.004411,60.6413882 112.854171,60.6413882 C113.71,60.6413882 114.389797,60.3099862 114.893583,59.6471722 C115.397369,58.9843583 115.649259,58.0561328 115.649259,56.8624679 C115.649259,55.7947676 115.392817,54.9295235 114.879927,54.2667095 C114.367036,53.6038956 113.685721,53.2724936 112.835962,53.2724936 C112.004411,53.2724936 111.333718,53.5993969 110.823863,54.2532134 C110.314007,54.9070298 110.059083,55.8427531 110.059083,57.0604113 Z M131,53.5784062 C130.745072,53.536418 130.468904,53.5154242 130.171489,53.5154242 C129.066801,53.5154242 128.317203,53.9802867 127.922672,54.9100257 L127.922672,61.8200514 L126.238336,61.8200514 L126.238336,52.0848329 L127.87715,52.0848329 L127.904463,53.2095116 C128.456807,52.3397557 129.239788,51.9048843 130.253429,51.9048843 C130.581194,51.9048843 130.830048,51.9468719 131,52.0308483 L131,53.5784062 Z" id="Next-Door-Copy" fill="#FFFFFF"></path>
                <path d="M38,11.3821138 L45.2105445,11.3821138 L45.2105445,15.0813008 L45.306685,15.0813008 C46.0758136,13.6585295 46.9891401,12.591467 48.0466919,11.8800813 C49.1042437,11.1686956 50.4341753,10.8130081 52.0365265,10.8130081 C52.4531379,10.8130081 52.8697429,10.8288165 53.2863542,10.8604336 C53.7029656,10.8920507 54.0875241,10.9552841 54.4400414,11.0501355 L54.4400414,17.5474255 C53.927289,17.3893398 53.4225559,17.2707773 52.925827,17.1917344 C52.4290981,17.1126916 51.9083418,17.0731707 51.3635424,17.0731707 C49.9855203,17.0731707 48.8959378,17.2628707 48.0947622,17.6422764 C47.2935866,18.0216821 46.6766907,18.5512613 46.2440558,19.2310298 C45.811421,19.9107983 45.5310137,20.7249275 45.4028256,21.6734417 C45.2746375,22.621956 45.2105445,23.665306 45.2105445,24.803523 L45.2105445,34.4308943 L38,34.4308943 L38,11.3821138 Z M74.6108718,17.0731707 L68.2655927,17.0731707 L68.2655927,24.7560976 C68.2655927,25.3884404 68.2976392,25.9654445 68.3617333,26.4871274 C68.4258273,27.0088102 68.5700368,27.4593477 68.794366,27.8387534 C69.0186951,28.2181591 69.3631955,28.5106132 69.8278773,28.7161247 C70.2925592,28.9216361 70.9094552,29.0243902 71.6785837,29.0243902 C72.063148,29.0243902 72.5678811,28.9848694 73.1927981,28.9058266 C73.8177151,28.8267837 74.2904016,28.6449879 74.6108718,28.3604336 L74.6108718,34.2886179 C73.8096962,34.5731722 72.9764861,34.7628722 72.1112164,34.8577236 C71.2459467,34.952575 70.3967133,35 69.5634907,35 C68.3457038,35 67.2240747,34.8735333 66.19857,34.6205962 C65.1730652,34.3676591 64.2757619,33.9645466 63.5066334,33.4112466 C62.7375048,32.8579466 62.1366321,32.1386675 61.7039972,31.2533875 C61.2713624,30.3681076 61.0550482,29.2931409 61.0550482,28.0284553 L61.0550482,17.0731707 L56.4402998,17.0731707 L56.4402998,11.3821138 L61.0550482,11.3821138 L61.0550482,4.55284553 L68.2655927,4.55284553 L68.2655927,11.3821138 L74.6108718,11.3821138 L74.6108718,17.0731707 Z M79.495348,11.3821138 L86.7058925,11.3821138 L86.7058925,34.4308943 L79.495348,34.4308943 L79.495348,11.3821138 Z M78.9185045,4.12601626 C78.9185045,2.98779919 79.3270979,2.01558669 80.144297,1.20934959 C80.9614962,0.4031125 81.9469274,0 83.1006203,0 C84.2543132,0 85.2397444,0.4031125 86.0569435,1.20934959 C86.8741426,2.01558669 87.2827361,2.98779919 87.2827361,4.12601626 C87.2827361,5.26423333 86.8741426,6.23644583 86.0569435,7.04268293 C85.2397444,7.84892002 84.2543132,8.25203252 83.1006203,8.25203252 C81.9469274,8.25203252 80.9614962,7.84892002 80.144297,7.04268293 C79.3270979,6.23644583 78.9185045,5.26423333 78.9185045,4.12601626 Z M105.584166,18.1639566 C104.526614,16.8676539 103.13259,16.2195122 101.40205,16.2195122 C100.793157,16.2195122 100.200296,16.3617872 99.6234493,16.6463415 C99.0466029,16.9308957 98.758184,17.4209541 98.758184,18.1165312 C98.758184,18.6856397 99.0546145,19.1045605 99.6474845,19.3733062 C100.240354,19.6420519 100.993448,19.8791769 101.906788,20.0846883 C102.820129,20.2901998 103.797548,20.5115164 104.839077,20.748645 C105.880605,20.9857735 106.858024,21.3572694 107.771365,21.8631436 C108.684705,22.3690179 109.437799,23.0566804 110.030669,23.9261518 C110.623538,24.7956231 110.919969,25.9575356 110.919969,27.4119241 C110.919969,28.8979297 110.591492,30.1230756 109.934528,31.0873984 C109.277564,32.0517212 108.436342,32.8263295 107.410837,33.4112466 C106.385333,33.9961637 105.231657,34.4071804 103.949776,34.6443089 C102.667895,34.8814375 101.402057,35 100.152223,35 C98.5178244,35 96.8674274,34.7707792 95.2009821,34.3123306 C93.5345368,33.8538821 92.1244889,33.0397529 90.970796,31.8699187 L95.345193,27.0799458 C96.0181805,27.9019915 96.7632626,28.5264206 97.5804618,28.953252 C98.3976609,29.3800834 99.3510456,29.5934959 100.440644,29.5934959 C101.273867,29.5934959 102.026961,29.4749334 102.699948,29.2378049 C103.372936,29.0006763 103.709425,28.5659472 103.709425,27.9336043 C103.709425,27.3328787 103.412994,26.8823412 102.820124,26.5819783 C102.227254,26.2816155 101.47416,26.0286821 100.56082,25.8231707 C99.6474799,25.6176593 98.6700603,25.3963426 97.628532,25.1592141 C96.5870038,24.9220855 95.6095842,24.566398 94.696244,24.0921409 C93.7829038,23.6178838 93.02981,22.9460296 92.43694,22.0765583 C91.8440701,21.2070869 91.5476396,20.0451744 91.5476396,18.5907859 C91.5476396,17.2312488 91.8280468,16.0614322 92.3888697,15.0813008 C92.9496927,14.1011694 93.6867632,13.2949444 94.6001034,12.6626016 C95.5134436,12.0302588 96.5629679,11.563913 97.7487078,11.2635501 C98.9344477,10.9631873 100.136193,10.8130081 101.35398,10.8130081 C102.892237,10.8130081 104.446495,11.0343248 106.016799,11.4769648 C107.587103,11.9196047 108.917035,12.7100214 110.006633,13.8482385 L105.584166,18.1639566 Z M131,17.0731707 L124.654721,17.0731707 L124.654721,24.7560976 C124.654721,25.3884404 124.686767,25.9654445 124.750861,26.4871274 C124.814956,27.0088102 124.959165,27.4593477 125.183494,27.8387534 C125.407823,28.2181591 125.752324,28.5106132 126.217006,28.7161247 C126.681687,28.9216361 127.298583,29.0243902 128.067712,29.0243902 C128.452276,29.0243902 128.957009,28.9848694 129.581926,28.9058266 C130.206843,28.8267837 130.67953,28.6449879 131,28.3604336 L131,34.2886179 C130.198824,34.5731722 129.365614,34.7628722 128.500345,34.8577236 C127.635075,34.952575 126.785842,35 125.952619,35 C124.734832,35 123.613203,34.8735333 122.587698,34.6205962 C121.562193,34.3676591 120.66489,33.9645466 119.895762,33.4112466 C119.126633,32.8579466 118.52576,32.1386675 118.093125,31.2533875 C117.660491,30.3681076 117.444176,29.2931409 117.444176,28.0284553 L117.444176,17.0731707 L112.829428,17.0731707 L112.829428,11.3821138 L117.444176,11.3821138 L117.444176,4.55284553 L124.654721,4.55284553 L124.654721,11.3821138 L131,11.3821138 L131,17.0731707 Z" id="Artist" fill="#EC2552"></path>
                <circle id="Oval-2-Copy" fill="#FFFFFF" cx="64.5" cy="56.5" r="1.5"></circle>
                <path d="M26.1182604,31.9506303 L23.9147548,26.6753823 L10.9176055,26.6753823 L8.12912614,33.5773668 L0,33.5773668 L14.4622825,1 L20.5591272,1 L35.1159344,33.5773668 L35.0830857,33.5773668 L38,40 L29.3612278,40 L26.1063635,31.9530052 L26.1182604,31.9506303 Z M17.2980242,10.4787254 L13.2334612,20.601636 L21.4098497,20.601636 L17.2980242,10.4787254 Z" id="Combined-Shape" fill="#EC2552"></path>
                <polygon id="Path-2-Copy" fill="url(#linearGradient-1)" style="mix-blend-mode: multiply;" opacity="0.723278986" points="21.4344238 20.6006836 23.9207031 26.6644531 14.726123 26.6722656 14.726123 20.6006836"></polygon>
            </g>
        </g>
    </g>
</svg>