<?xml version="1.0" encoding="utf-8"?>
<!-- Generator: Adobe Illustrator 23.0.0, SVG Export Plug-In . SVG Version: 6.00 Build 0)  -->
<svg version="1.1" id="Слой_1" xmlns="http://www.w3.org/2000/svg" xmlns:xlink="http://www.w3.org/1999/xlink" x="0px" y="0px"
	 width="19.9px" height="16px" viewBox="0 0 19.9 16" enable-background="new 0 0 19.9 16" xml:space="preserve">
<title>55E43326-600F-4C95-9CB7-418AA03F6F5A</title>
<desc>Created with sketchtool.</desc>
<g>
	<g id="XMLID_1_">
		<g>
			<path fill="#1C2D4D" d="M4.2,11.7c-0.1,0.1-0.1,0.1-0.2,0.1s-0.2,0-0.2-0.1c-0.1-0.1-0.1-0.3,0-0.4L7.3,8l0.5,0.4c0,0,0,0,0,0
				L4.2,11.7z"/>
			<path fill="#1C2D4D" d="M12.1,8c0.1-0.1,0.3-0.1,0.4,0l0,0l-0.5,0.4C12,8.3,12,8.1,12.1,8z"/>
			<path fill="#FFFFFF" d="M19.6,13.4V2.8c0-0.4-0.2-0.8-0.4-1.1c-0.3-0.3-0.7-0.5-1.1-0.5H1.9C1.4,1.3,1,1.5,0.8,1.7
				C0.5,2,0.3,2.4,0.3,2.8v10.5c0,0.9,0.7,1.5,1.6,1.5h16.2C18.9,14.9,19.6,14.2,19.6,13.4z M-499.7,395.8v-550.7h775v550.7H-499.7z
				"/>
			<path fill="#1C2D4D" d="M0.8,2.3C0.7,2.2,0.7,2,0.8,1.9c0,0,0,0,0,0c0.1-0.1,0.3-0.1,0.4,0L1.4,2C1.2,2.1,1.1,2.3,1,2.5L0.8,2.3z
				"/>
			<path fill="#1C2D4D" d="M16.1,11.3c0.1,0.1,0.1,0.3,0,0.4c-0.1,0.1-0.1,0.1-0.2,0.1c-0.1,0-0.2,0-0.2-0.1l-3.6-3.3c0,0,0,0,0,0
				L12.6,8L16.1,11.3z"/>
			<path fill="#FFFFFF" d="M0.9,2.8c0-0.1,0-0.2,0.1-0.4L7.3,8l-3.6,3.3c-0.1,0.1-0.1,0.3,0,0.4c0.1,0.1,0.1,0.1,0.2,0.1
				s0.2,0,0.2-0.1l3.6-3.3c0,0,0,0,0,0l1,0.9C9.1,9.5,9.5,9.7,10,9.7s0.8-0.1,1.1-0.4l1-0.9c0,0,0,0,0,0l3.6,3.3
				c0.1,0.1,0.1,0.1,0.2,0.1c0.1,0,0.2,0,0.2-0.1c0.1-0.1,0.1-0.3,0-0.4L12.6,8l6.3-5.5C19,2.6,19,2.7,19,2.8v10.5
				c0,0.5-0.4,0.9-0.9,0.9H1.9c-0.5,0-0.9-0.4-0.9-0.9V2.8z"/>
			<path fill="#FFFFFF" d="M9.2,8.8L1.4,2c0.1-0.1,0.3-0.1,0.4-0.1h16.2c0.2,0,0.3,0,0.4,0.1l-7.8,6.8C10.3,9.1,9.6,9.1,9.2,8.8z"/>
			<path fill="#1C2D4D" d="M7.8,8.4L7.3,8l0,0c0.1-0.1,0.3-0.1,0.4,0C7.9,8.1,7.9,8.3,7.8,8.4z"/>
			<path fill="#1C2D4D" d="M1,2.5c0,0.1-0.1,0.2-0.1,0.4v10.5c0,0.5,0.4,0.9,0.9,0.9h16.2c0.5,0,0.9-0.4,0.9-0.9V2.8
				c0-0.1,0-0.2-0.1-0.4l0.2-0.1c0.1-0.1,0.1-0.3,0-0.4c0,0,0,0,0,0l0.1-0.1c0.3,0.3,0.4,0.7,0.4,1.1v10.5c0,0.9-0.7,1.5-1.6,1.5
				H1.9c-0.9,0-1.6-0.7-1.6-1.5V2.8c0-0.4,0.2-0.8,0.4-1.1l0.1,0.1c0,0,0,0,0,0C0.7,2,0.7,2.2,0.8,2.3L1,2.5z"/>
			<path fill="#1C2D4D" d="M12.6,7.9c-0.1-0.1-0.3-0.1-0.4,0c-0.1,0.1-0.1,0.3,0,0.4l-1,0.9c-0.3,0.3-0.7,0.4-1.1,0.4
				S9.1,9.5,8.8,9.3l-1-0.9c0.1-0.1,0.1-0.3,0-0.4c-0.1-0.1-0.3-0.1-0.4,0l0,0L1,2.5C1.1,2.3,1.2,2.1,1.4,2l7.8,6.8
				c0.4,0.3,1.1,0.3,1.5,0L18.5,2c0.2,0.1,0.3,0.3,0.4,0.5L12.6,7.9L12.6,7.9z"/>
			<path fill="#1C2D4D" d="M19.1,1.8C19.1,1.9,19.1,1.9,19.1,1.8c0.2,0.2,0.2,0.4,0,0.5l-0.2,0.1c-0.1-0.2-0.2-0.4-0.4-0.5l0.2-0.2
				C18.8,1.8,18.9,1.8,19.1,1.8z"/>
			<path fill="#1C2D4D" d="M0.8,1.7C1,1.5,1.4,1.3,1.9,1.3h16.2c0.4,0,0.8,0.2,1.1,0.5l-0.1,0.1c-0.1-0.1-0.3-0.1-0.4,0L18.5,2
				c-0.1-0.1-0.3-0.1-0.4-0.1H1.9c-0.2,0-0.3,0-0.4,0.1L1.2,1.9C1.1,1.8,1,1.8,0.8,1.7L0.8,1.7z"/>
		</g>
		<g>
		</g>
	</g>
</g>
</svg>
