<svg xmlns="http://www.w3.org/2000/svg" width="131" height="62" viewBox="0 0 131 62">
    <defs>
        <linearGradient id="a" x1="3.409%" x2="66.96%" y1="76.08%" y2="43.426%">
            <stop offset="0%" stop-color="#FFF" stop-opacity="0"/>
            <stop offset="100%" stop-color="#3F3F3F" stop-opacity=".761"/>
        </linearGradient>
    </defs>
    <g fill="none" fill-rule="evenodd">
        <path fill="#1C2D4D" d="M1.593 52.085l.055 1.223c.753-.935 1.736-1.403 2.95-1.403 2.082 0 3.132 1.16 3.15 3.482v6.433H6.064v-6.442c-.006-.702-.169-1.22-.487-1.557-.32-.336-.815-.504-1.49-.504-.545 0-1.025.144-1.438.432a2.942 2.942 0 0 0-.965 1.134v6.937H0v-9.735h1.593zM21.17 62c-1.336 0-2.422-.433-3.26-1.3-.838-.867-1.256-2.026-1.256-3.478v-.306c0-.965.186-1.828.56-2.586.373-.76.895-1.353 1.566-1.782a3.971 3.971 0 0 1 2.18-.643c1.28 0 2.276.417 2.986 1.25.71.834 1.066 2.028 1.066 3.582v.692h-6.674c.024.96.308 1.735.851 2.326.544.591 1.234.886 2.072.886.594 0 1.098-.12 1.51-.36.414-.24.775-.557 1.084-.953l1.03.792c-.826 1.253-2.065 1.88-3.715 1.88zm-.21-8.728c-.68 0-1.25.245-1.712.734-.46.489-.746 1.174-.855 2.056h4.934v-.126c-.048-.846-.279-1.501-.692-1.966-.412-.465-.97-.698-1.675-.698zm16.097 2.367l2.186-3.554h1.966l-3.223 4.813 3.323 4.922H39.36l-2.276-3.644-2.276 3.644H32.85l3.323-4.922-3.223-4.813H34.9l2.157 3.554zm15.014-5.911v2.357h1.84v1.286h-1.84v6.038c0 .39.082.682.246.877.164.195.443.292.838.292.194 0 .461-.036.8-.108v1.35c-.442.12-.873.18-1.292.18-.753 0-1.32-.225-1.702-.675-.383-.45-.574-1.088-.574-1.916V53.37h-1.794v-1.286h1.794v-2.357h1.684zm21.597 7.143c0-1.493.358-2.694 1.075-3.603.716-.909 1.654-1.363 2.813-1.363 1.153 0 2.067.39 2.74 1.17V48h1.685v13.82h-1.548l-.082-1.044c-.674.816-1.612 1.224-2.813 1.224-1.141 0-2.072-.462-2.79-1.386-.72-.923-1.08-2.129-1.08-3.617v-.126zm1.685.19c0 1.103.23 1.967.692 2.59.46.624 1.098.936 1.912.936 1.068 0 1.848-.473 2.34-1.421v-4.472c-.504-.918-1.278-1.377-2.322-1.377-.826 0-1.47.315-1.93.945-.462.63-.692 1.563-.692 2.798zm15.587-.199c0-.953.19-1.811.57-2.573.378-.762.907-1.35 1.583-1.763.677-.414 1.45-.621 2.317-.621 1.342 0 2.427.459 3.255 1.376.829.918 1.243 2.139 1.243 3.662v.117c0 .948-.184 1.798-.55 2.551a4.15 4.15 0 0 1-1.576 1.76c-.683.42-1.467.629-2.353.629-1.336 0-2.418-.459-3.246-1.377-.829-.917-1.243-2.132-1.243-3.644v-.117zm1.694.198c0 1.08.253 1.947.76 2.6.507.654 1.185.981 2.035.981.855 0 1.535-.331 2.039-.994.504-.663.756-1.59.756-2.785 0-1.067-.257-1.932-.77-2.595-.513-.663-1.194-.995-2.044-.995-.831 0-1.502.327-2.012.981-.51.654-.764 1.59-.764 2.807zm15.733-.198c0-.953.19-1.811.569-2.573.379-.762.907-1.35 1.584-1.763.677-.414 1.449-.621 2.317-.621 1.341 0 2.426.459 3.255 1.376.828.918 1.243 2.139 1.243 3.662v.117c0 .948-.184 1.798-.551 2.551a4.15 4.15 0 0 1-1.575 1.76c-.683.42-1.468.629-2.354.629-1.335 0-2.417-.459-3.246-1.377-.828-.917-1.242-2.132-1.242-3.644v-.117zm1.693.198c0 1.08.253 1.947.76 2.6.507.654 1.185.981 2.035.981.856 0 1.536-.331 2.04-.994.503-.663.755-1.59.755-2.785 0-1.067-.256-1.932-.77-2.595-.512-.663-1.193-.995-2.043-.995-.832 0-1.502.327-2.012.981-.51.654-.765 1.59-.765 2.807zM131 53.578a5.106 5.106 0 0 0-.829-.063c-1.104 0-1.854.465-2.248 1.395v6.91h-1.685v-9.735h1.64l.026 1.125c.553-.87 1.336-1.305 2.35-1.305.327 0 .576.042.746.126v1.547z"/>
        <path fill="#EC2552" d="M38 11.382h7.21v3.7h.097c.769-1.423 1.682-2.49 2.74-3.202 1.057-.711 2.387-1.067 3.99-1.067.416 0 .833.016 1.25.047.416.032.8.095 1.153.19v6.497a11.015 11.015 0 0 0-1.514-.355 9.935 9.935 0 0 0-1.562-.119c-1.378 0-2.468.19-3.27.57-.8.379-1.417.908-1.85 1.588-.433.68-.713 1.494-.841 2.442a23.468 23.468 0 0 0-.192 3.13v9.628H38V11.382zm36.61 5.691h-6.344v7.683c0 .632.032 1.21.096 1.731.064.522.208.972.432 1.352.225.38.57.672 1.034.877.465.206 1.081.308 1.85.308.385 0 .89-.04 1.515-.118.625-.08 1.097-.261 1.418-.546v5.929c-.801.284-1.635.474-2.5.569-.865.095-1.714.142-2.548.142-1.217 0-2.339-.126-3.364-.38-1.026-.252-1.923-.655-2.692-1.209a5.682 5.682 0 0 1-1.803-2.158c-.433-.885-.649-1.96-.649-3.225V17.073H56.44v-5.69h4.615v-6.83h7.21v6.83h6.346v5.69zm4.885-5.69h7.21V34.43h-7.21V11.382zm-.576-7.257c0-1.138.408-2.11 1.225-2.917C80.961.403 81.947 0 83.101 0c1.153 0 2.139.403 2.956 1.21.817.806 1.226 1.778 1.226 2.916s-.409 2.11-1.226 2.917c-.817.806-1.803 1.209-2.956 1.209-1.154 0-2.14-.403-2.957-1.21-.817-.806-1.225-1.778-1.225-2.916zm26.665 14.038c-1.057-1.296-2.451-1.944-4.182-1.944-.609 0-1.202.142-1.779.426-.576.285-.865.775-.865 1.47 0 .57.297.989.89 1.257.592.27 1.345.506 2.259.712.913.205 1.89.427 2.932.664 1.042.237 2.019.608 2.932 1.114a6.53 6.53 0 0 1 2.26 2.063c.593.87.889 2.032.889 3.486 0 1.486-.329 2.711-.985 3.675a7.519 7.519 0 0 1-2.524 2.324c-1.026.585-2.18.996-3.461 1.233a20.844 20.844 0 0 1-3.798.356c-1.634 0-3.285-.23-4.951-.688-1.666-.458-3.077-1.272-4.23-2.442l4.374-4.79c.673.822 1.418 1.446 2.235 1.873.818.427 1.771.64 2.86.64.834 0 1.587-.118 2.26-.355.673-.237 1.01-.672 1.01-1.304 0-.601-.297-1.052-.89-1.352-.593-.3-1.346-.553-2.26-.759-.913-.205-1.89-.427-2.931-.664a12.22 12.22 0 0 1-2.933-1.067 6.107 6.107 0 0 1-2.26-2.015c-.592-.87-.888-2.032-.888-3.486 0-1.36.28-2.53.84-3.51a7.327 7.327 0 0 1 2.212-2.418c.913-.633 1.963-1.1 3.149-1.4 1.185-.3 2.387-.45 3.605-.45 1.538 0 3.092.221 4.663.664 1.57.443 2.9 1.233 3.99 2.371l-4.423 4.316zM131 17.074h-6.345v7.682c0 .632.032 1.21.096 1.731.064.522.208.972.432 1.352.225.38.57.672 1.034.877.465.206 1.082.308 1.85.308.385 0 .89-.04 1.515-.118.625-.08 1.098-.261 1.418-.546v5.929c-.801.284-1.634.474-2.5.569-.865.095-1.714.142-2.547.142-1.218 0-2.34-.126-3.365-.38-1.026-.252-1.923-.655-2.692-1.209a5.682 5.682 0 0 1-1.803-2.158c-.433-.885-.649-1.96-.649-3.225V17.073h-4.615v-5.69h4.615v-6.83h7.21v6.83H131v5.69z"/>
        <circle cx="64.5" cy="56.5" r="1.5" fill="#EC2552"/>
        <path fill="#EC2552" d="M26.118 31.95l-2.203-5.275H10.918l-2.789 6.902H0L14.462 1h6.097l14.557 32.577h-.033L38 40h-8.639l-3.255-8.047.012-.002zm-8.82-21.471l-4.065 10.123h8.177l-4.112-10.123z"/>
        <path fill="url(#a)" fill-opacity=".5" d="M21.434 20.6l2.487 6.064-9.195.008v-6.071z" opacity=".723" style="mix-blend-mode:multiply"/>
    </g>
</svg>
