<?xml version="1.0" encoding="UTF-8"?>
<svg width="84px" height="90px" viewBox="0 0 84 90" version="1.1" xmlns="http://www.w3.org/2000/svg" xmlns:xlink="http://www.w3.org/1999/xlink">
    <!-- Generator: Sketch 49.1 (51147) - http://www.bohemiancoding.com/sketch -->
    <title>balloons</title>
    <desc>Created with Sketch.</desc>
    <defs></defs>
    <g id="artist--1200" stroke="none" stroke-width="1" fill="none" fill-rule="evenodd">
        <g id="Main-Page" transform="translate(-294.000000, -1382.000000)" fill="#EC2552" fill-rule="nonzero">
            <g id="why-choose-us" transform="translate(177.000000, 1269.000000)">
                <g id="first" transform="translate(0.000000, 113.000000)">
                    <g id="balloons" transform="translate(117.000000, 0.000000)">
                        <path d="M34.4075307,12.4303751 C33.7045861,11.7787382 32.6554921,11.8782709 32.0641604,12.6530864 C30.1346391,15.1808143 28.7433877,18.3312174 28.0411085,21.7639048 C27.8390077,22.7511668 28.4017293,23.7323798 29.2977924,23.9547245 C29.4208825,23.9853359 29.5439727,24 29.6650668,24 C30.425398,24 31.1117087,23.4215004 31.286031,22.5698816 C31.8718736,19.7067119 33.0212695,17.0935656 34.6096314,15.0125435 C35.2007968,14.2382779 35.1103089,13.0820119 34.4075307,12.4303751 Z" id="Shape"></path>
                        <path d="M39.7411081,10.0077654 C39.2002156,9.05196249 37.9913832,8.71710297 37.0398168,9.26000541 C37.0392222,9.26040358 37.0308977,9.26498251 37.0301049,9.26538068 C36.0698175,9.79175914 35.7193969,10.9980099 36.2426494,11.9629707 C36.6019891,12.6253237 37.2832085,13 37.9860318,13 C38.3071186,13 38.6325658,12.9217599 38.9338325,12.7571174 L38.9964642,12.7222776 C39.9480307,12.1791761 40.2818024,10.9635684 39.7411081,10.0077654 Z" id="Shape"></path>
                        <path d="M9.95821604,37.1518854 C9.06833197,36.7626146 8.02164871,37.1474249 7.62054681,38.0110605 C6.44994445,40.5323139 5.8952253,43.4169324 6.016316,46.3531906 C6.05432257,47.2763577 6.83743469,48 7.78123506,48 C7.80509965,48 7.82914101,47.9996569 7.85318238,47.9986275 C8.82862542,47.9607126 9.58769617,47.1626131 9.54862896,46.2159422 C9.44928155,43.8087766 9.89722875,41.4590838 10.8436807,39.4206017 C11.2444291,38.5569661 10.8481001,37.5411562 9.95821604,37.1518854 Z" id="Shape"></path>
                        <path d="M14.4258938,32.5891943 C13.6539715,31.8096326 12.3972891,31.8026811 11.618416,32.5740996 L11.6178203,32.5746954 C10.8228614,33.3300261 10.7908883,34.5868583 11.546129,35.3819119 C11.9363599,35.7928451 12.4604409,36 12.9857135,36 C13.4772257,36 13.9693336,35.818665 14.3536068,35.4536117 L14.4108009,35.3981983 C15.1902697,34.6267798 15.197419,33.3687559 14.4258938,32.5891943 Z" id="Shape"></path>
                        <path d="M81.6115036,32.8016766 C79.0564168,27.6952013 74.7867967,24.1125827 69.5889451,22.7137073 C68.7566168,22.4897607 67.908363,22.3254043 67.053809,22.2218685 C65.4108531,9.66943166 55.723749,0 44.0543524,0 C32.6724907,0 23.175793,9.19851093 21.1901755,21.2993631 C19.2304589,21.2204368 17.2696923,21.4362975 15.3789281,21.9451872 C9.83351462,23.4377545 5.27775982,27.2610191 2.55081716,32.7107971 C-0.141649333,38.0918443 -0.725119159,44.4261587 0.907511318,50.546722 C2.30913394,55.8012059 5.1683811,60.335334 9.17584227,63.6592011 C13.0392736,66.8638879 17.7343331,68.6514179 22.4215174,68.7101292 C21.9862776,69.7164827 21.7547447,70.7866452 21.7547447,71.7829792 C21.7545697,74.1759034 23.0690394,76.0163438 25.1850363,76.5857027 C25.766931,76.7423247 26.3264251,76.8216025 26.8484678,76.8216025 C27.2882577,76.8216025 27.707047,76.7623638 28.1008103,76.6512694 C28.2616408,77.7820768 28.3977954,79.1573974 28.531675,80.5091631 C28.6972306,82.1815558 28.884837,84.0766645 29.151021,86.0064024 C29.2724752,86.8860169 30.0223756,87.5227003 30.8821799,87.5227003 C30.9621576,87.5227003 31.0433603,87.5172511 31.1247381,87.5058252 C32.0820206,87.3724065 32.7503683,86.4848817 32.6177138,85.5235285 C32.3604551,83.6611152 32.1765238,81.801866 32.0141183,80.1614658 C31.8440125,78.443194 31.6977076,76.9669744 31.505026,75.7394868 C32.4043816,75.5288996 33.269611,75.0106934 34.0863637,74.189966 C35.4634855,72.806911 35.8061472,70.9295562 35.0266707,69.0395452 C34.5317539,67.8396553 33.6477988,66.7763483 32.5666121,65.9765389 C34.978544,64.5370578 37.0875407,62.5719877 38.7775731,60.1736143 C38.8773265,60.2411147 38.97848,60.3073846 39.0848836,60.3690842 C40.0960679,60.9556697 41.0860766,61.2527417 42.0274336,61.2527417 C42.1063613,61.2527417 42.1845889,61.2497534 42.2624666,61.2457104 C42.1184367,62.5043115 41.8655531,64.0536566 41.6039192,65.6534511 C40.4306793,72.8299385 38.8235997,82.6581015 42.5386259,89.1210886 C42.862737,89.6849982 43.4507569,90 44.0555775,90 C44.3523876,90 44.6533978,89.9240621 44.9288572,89.764276 C45.7657356,89.2789411 46.0523953,88.2038567 45.5693789,87.3634416 C42.4796489,81.9881952 43.9694746,72.8761692 45.0573115,66.2229857 C45.3749473,64.2798884 45.6446315,62.6248982 45.7825362,61.242019 C45.8812395,61.2486987 45.9804679,61.2527417 46.0809213,61.2527417 L46.0810963,61.2527417 C47.0221033,61.2527417 48.0122869,60.9553181 49.0234713,60.3690842 C49.0542723,60.3511544 49.0822733,60.3307637 49.1127243,60.3123065 C50.3640168,61.7134671 51.78244,62.8989428 53.3370179,63.8469366 C52.3778103,64.5911988 51.5962337,65.5580013 51.1496185,66.6413475 C50.4152936,68.4223736 50.75218,70.2645719 52.0514242,71.5694037 C52.7659735,72.286947 53.5205991,72.7622623 54.3053258,72.9906035 C52.5515912,80.0681254 53.841735,85.1027057 53.9042121,85.337375 C54.1133442,86.1231218 54.8205433,86.6415038 55.5935445,86.6415038 C55.7431746,86.6415038 55.8952548,86.6221677 56.0466349,86.5813862 C56.9801167,86.3307207 57.5347105,85.367258 57.285152,84.4296353 C57.2723766,84.381471 56.1691391,80.0709379 57.6873157,73.8951791 C58.0618284,73.9997695 58.4594419,74.0558441 58.8770061,74.0558441 C58.8770061,74.0558441 58.8771811,74.0558441 58.8773561,74.0558441 C59.373848,74.0558441 59.9053411,73.9804335 60.4574848,73.8318975 C62.4828286,73.2866208 63.7411214,71.5282707 63.7411214,69.2425737 C63.7411214,68.352588 63.5451147,67.4001996 63.1765522,66.4949209 C67.5103995,66.3980648 71.8402216,64.7320004 75.411393,61.770069 C79.1628204,58.658371 81.8390114,54.4146352 83.1508559,49.497126 C84.6788329,43.768733 84.1322893,37.8394209 81.6115036,32.8016766 Z M31.6119547,71.7045803 C31.2145161,72.1036061 30.8368533,72.3324746 30.5753944,72.3324746 C30.4497402,72.3324746 30.3057103,72.2776305 30.1468049,72.1697002 C30.1356045,72.1619658 30.1233541,72.1559892 30.1118037,72.1486063 C30.0789026,72.1273367 30.0454764,72.1069459 30.0113503,72.0879615 C29.9906996,72.0765356 29.9698739,72.0658129 29.9488731,72.0550902 C29.9168471,72.039094 29.884646,72.0239767 29.8517448,72.0099141 C29.8288191,72.0000703 29.8058933,71.9905781 29.7826175,71.981789 C29.7500664,71.9694842 29.7169903,71.9584099 29.6837391,71.9482145 C29.6601133,71.9408317 29.6366625,71.933273 29.6128617,71.9269449 C29.5771605,71.9174526 29.5411093,71.909894 29.5048831,71.9026869 C29.4833573,71.8982924 29.4620066,71.8933705 29.4403059,71.8898548 C29.3965544,71.8828235 29.3524529,71.878429 29.3081764,71.8747375 C29.2936509,71.8735071 29.2793004,71.8712219 29.2647749,71.8705188 C29.1440208,71.8634875 29.0216916,71.8689367 28.8998875,71.8879212 C28.8934123,71.8889759 28.8869371,71.8907337 28.8804618,71.8917884 C28.827785,71.9005775 28.7752833,71.9113003 28.7231315,71.9250113 C28.7196314,71.9258902 28.7161313,71.9262418 28.7126311,71.9272964 C28.6972306,71.9313394 28.6827051,71.9374918 28.6674796,71.9422379 C28.6286283,71.9538396 28.589777,71.9657928 28.5511006,71.9803827 C28.5264248,71.9896992 28.502624,72.0005977 28.4784732,72.0109688 C28.4550224,72.0209884 28.4312216,72.029426 28.4081208,72.0405002 C28.3998955,72.0445432 28.3923703,72.0494651 28.384145,72.0536839 C28.3598191,72.0658129 28.3365434,72.0793481 28.3127425,72.0927076 C28.2822915,72.1097585 28.2520155,72.1269851 28.2229645,72.145618 C28.2026638,72.1586259 28.1828881,72.1726885 28.1632875,72.1865753 C28.1323114,72.2083723 28.1020354,72.2305209 28.0728094,72.2538999 C28.0558338,72.2676109 28.0393833,72.2816735 28.0231077,72.2959119 C27.9931817,72.3219277 27.9643057,72.348295 27.9364798,72.3758928 C27.9216043,72.3906585 27.9070788,72.4056 27.8929033,72.4208931 C27.8657774,72.4498972 27.8397015,72.4796044 27.8146756,72.5103663 C27.8012002,72.526714 27.7880747,72.5430618 27.7752993,72.5599369 C27.7514985,72.5914019 27.7290977,72.6235701 27.707572,72.6564413 C27.6956716,72.6743711 27.6835962,72.6921251 27.6723958,72.7105823 C27.6513951,72.7452114 27.6324944,72.7805436 27.6141188,72.8164032 C27.6067686,72.8304658 27.5981933,72.8434737 27.591368,72.8577121 C27.4268624,73.1980266 27.2462563,73.3073631 26.8482928,73.3073631 C26.6319854,73.3073631 26.3770018,73.2681637 26.090692,73.191171 C25.8617843,73.1296472 25.2543386,72.9659939 25.2543386,71.7838581 C25.2543386,70.3289082 26.2907238,68.4227251 27.677996,68.0493636 C27.855102,68.0017266 28.0460335,67.9774686 28.2455403,67.9774686 C29.6067365,67.9774686 31.2649179,69.102651 31.7937858,70.3855101 C32.0858708,71.0933853 31.8657133,71.449696 31.6119547,71.7045803 Z M38.5826165,51.2990701 C38.5141892,51.3809847 38.4475119,51.4639539 38.3820597,51.547802 C38.3180075,51.6297166 38.2564054,51.7128616 38.1956784,51.7963582 C38.1955034,51.7967097 38.1953284,51.7970613 38.1949783,51.7972371 C37.8930931,52.2124348 37.6325092,52.6466171 37.4165519,53.091522 C37.4025514,53.1199987 37.389426,53.1486513 37.3757755,53.177128 C37.3460245,53.2402338 37.3157485,53.3033397 37.2879225,53.3669729 C37.1220169,53.7401586 36.9867373,54.117739 36.8864589,54.4940888 C36.7392789,55.0456936 36.6715516,55.585521 36.6715516,56.1063639 C36.6713766,56.1483759 36.6699765,56.1903878 36.6706765,56.2320482 C36.6717266,56.2819704 36.6747017,56.3313652 36.6771518,56.3809358 C36.6815269,56.4848232 36.6887022,56.5880074 36.6990275,56.6904884 C36.7004276,56.7031447 36.7016526,56.7156253 36.7030526,56.7282816 C36.7093529,56.7873445 36.713903,56.8465831 36.7221283,56.9051186 C34.4139749,60.8015086 30.9019555,63.5419543 26.7721652,64.6534257 C25.4296946,65.0148341 24.0460976,65.1979992 22.6598755,65.1979992 C14.2868909,65.1979992 6.73205924,58.7991727 4.28792618,49.6370487 C2.87737825,44.350045 3.37107003,38.8993881 5.67764841,34.2894978 C7.94992562,29.7481626 11.7169286,26.5701947 16.2847588,25.3409493 C17.6267044,24.9797167 19.0099514,24.7963758 20.3961735,24.7963758 C20.5414285,24.7963758 20.6870334,24.7984851 20.8329884,24.8025281 C20.8303633,24.8661613 20.8293133,24.9294429 20.8270382,24.9930761 C20.822663,25.1228035 20.8175879,25.252355 20.8147878,25.3826097 C20.8102376,25.591439 20.8076125,25.7995652 20.8076125,26.0068125 C20.8076125,26.2159935 20.8102376,26.4248228 20.8147878,26.6334764 C20.8165378,26.7176761 20.8198629,26.8015242 20.822313,26.8855482 C20.8259881,27.0070137 20.8296633,27.1286551 20.8347384,27.2499448 C20.8392886,27.3584025 20.8452388,27.4665086 20.851014,27.5747905 C20.8559142,27.6674277 20.8609893,27.760065 20.8667645,27.8525265 C20.8746398,27.9785624 20.8837401,28.1042467 20.8931904,28.2297553 C20.8986156,28.2998924 20.9042158,28.3702053 20.909991,28.4403424 C20.9218914,28.5832534 20.9346668,28.7258128 20.9486673,28.8678449 C20.9530425,28.9131968 20.9579426,28.9585486 20.9626678,29.0039004 C20.9794684,29.1675537 20.997319,29.3306797 21.0169196,29.4934541 C21.0181447,29.5032979 21.0193697,29.5129659 21.0205948,29.5228097 C21.1597245,30.6687344 21.3657065,31.7907527 21.6339906,32.8846458 C21.6367907,32.8960717 21.6394158,32.9074975 21.6422159,32.9189234 C21.6815922,33.0785337 21.7223686,33.2374408 21.764545,33.3958207 C21.7757454,33.4376569 21.7867708,33.479493 21.7979712,33.5213292 C21.8341974,33.6556269 21.8712987,33.789573 21.909625,33.922816 C21.9306257,33.9964687 21.9521514,34.0699457 21.9736771,34.1432469 C22.0044782,34.2474858 22.0354542,34.3517247 22.0673053,34.4552605 C22.1033566,34.5730346 22.1408078,34.6902814 22.1784341,34.8075282 C22.1980348,34.8679973 22.2171104,34.9288179 22.2370611,34.989287 C23.2001188,37.920105 24.6337675,40.6551015 26.4911056,43.0487288 C28.9555394,46.224763 32.0491195,48.657414 35.4857113,50.1825011 C35.535938,50.2048254 35.5863397,50.2264466 35.6367414,50.2484194 C35.8770246,50.3528341 36.1187078,50.45303 36.3621411,50.5484798 C36.4664446,50.589437 36.5705731,50.6307459 36.6754017,50.6699453 C36.7982559,50.7160003 36.9212851,50.7608248 37.0448393,50.8044188 C37.2082948,50.8624269 37.3728004,50.9179741 37.537831,50.9721151 C37.6575351,51.0111387 37.7774142,51.0492835 37.8978182,51.086022 C38.0794744,51.1419208 38.2620056,51.1953586 38.4452368,51.2463354 C38.4944135,51.2600464 38.5427152,51.2760426 38.5918918,51.2894021 C38.5883917,51.2916873 38.5855916,51.2955545 38.5826165,51.2990701 Z M47.7727038,56.8550206 C47.7702537,56.8592394 47.7686787,56.8638097 47.7662286,56.8682043 C47.6111733,57.1278347 47.395391,57.2551011 47.2741119,57.325414 C46.6850418,57.6664316 46.3003788,57.737975 46.0810963,57.737975 C45.8920899,57.737975 45.660907,57.6935021 45.3768724,57.3637346 C45.3691721,57.3547697 45.3602468,57.3470352 45.3523716,57.3382461 C45.3236706,57.3064295 45.2944446,57.2756676 45.2636435,57.2461362 C45.2494681,57.2324252 45.2347676,57.2192415 45.2202421,57.2060578 C45.189966,57.1788116 45.15864,57.15262 45.1266139,57.1274832 C45.1110384,57.1153542 45.0952878,57.1032252 45.0793623,57.0916236 C45.0454111,57.0670141 45.0105849,57.0439866 44.9750587,57.021838 C44.9601832,57.0125216 44.9453077,57.0028535 44.9300822,56.9940644 C44.8896558,56.9705096 44.8480044,56.9490642 44.805828,56.9288492 C44.7946276,56.9235757 44.7839522,56.9175991 44.7727519,56.9125014 C44.5531194,56.8128329 44.3117862,56.7579888 44.0617027,56.7572857 C44.0590776,56.7572857 44.0564525,56.7567583 44.0538274,56.7567583 C44.041402,56.7567583 44.0291516,56.7585162 44.0169012,56.7586919 C43.9726247,56.7597466 43.9281732,56.7615045 43.8833716,56.7660748 C43.8576458,56.7687115 43.8322699,56.7729303 43.806894,56.7766217 C43.7815182,56.7803132 43.7563173,56.7822468 43.7307664,56.7871687 C43.7220162,56.7889265 43.7136159,56.7915632 43.7048656,56.7934968 C43.6775646,56.7991219 43.6507887,56.8061532 43.6240128,56.8130087 C43.5907617,56.8214462 43.5576856,56.8300596 43.5253095,56.8404307 C43.5020337,56.8478136 43.4791079,56.8564269 43.4560071,56.8648644 C43.4208309,56.8776965 43.3860047,56.891056 43.3520536,56.9059975 C43.3321029,56.9147866 43.3125022,56.9242789 43.2929016,56.9337711 C43.2573754,56.9509978 43.2225492,56.9691033 43.188598,56.9886152 C43.1705724,56.9989863 43.1527218,57.0095333 43.1350462,57.0206075 C43.1012701,57.0417014 43.0683689,57.0636742 43.0361678,57.0868775 C43.0191923,57.0991822 43.0022167,57.111487 42.9855911,57.1243191 C42.9544401,57.148577 42.924339,57.1738897 42.8951131,57.200257 C42.8790125,57.2144954 42.862912,57.2283822 42.8473364,57.2433237 C42.8181104,57.2712731 42.7908095,57.3006287 42.7636836,57.3305117 C42.7530082,57.3421133 42.7412828,57.3524845 42.7309575,57.3646135 C42.4470978,57.6938537 42.215915,57.7383266 42.0272586,57.7383266 C41.8079761,57.7383266 41.422963,57.6666074 40.834593,57.325414 C40.6846129,57.2384018 40.3897279,57.0649047 40.245173,56.6595507 C40.2428979,56.6523437 40.2414979,56.6449608 40.2392228,56.637578 C40.1609951,56.3995687 40.1459446,56.1209538 40.1842709,55.8208935 C40.187071,55.8001512 40.1907462,55.7783542 40.1940713,55.7570845 C40.2014215,55.7085686 40.2098218,55.6595253 40.2199722,55.6099547 C40.2283724,55.5688217 40.2388728,55.5259308 40.2493732,55.4826884 C40.2602235,55.4383912 40.2705489,55.3942699 40.2833243,55.3494454 C40.2866494,55.3378438 40.2901495,55.3260664 40.2934747,55.3144647 C40.5332328,54.5095577 41.0899267,53.6304705 41.833352,52.9800761 C41.8669531,52.9507204 41.8993292,52.9199585 41.9304803,52.8883177 C42.5626018,52.3611466 43.304627,52.012922 44.0541774,52.012922 C44.4472408,52.012922 44.8380291,52.1096022 45.2121918,52.2767712 C45.2387927,52.2913611 45.2643436,52.3075331 45.2918195,52.3207167 C46.0646458,52.6933752 46.7809451,53.3675002 47.2762119,54.1485009 C47.2804121,54.1551806 47.2849622,54.1620361 47.2891624,54.1687158 C47.3301138,54.2337553 47.3693151,54.2996736 47.4069414,54.3661193 C47.4144666,54.3794788 47.4216419,54.3928382 47.4289921,54.4061977 C47.4592681,54.4606902 47.4884941,54.5157101 47.5164951,54.5709057 C47.5240203,54.586023 47.5318956,54.6009645 47.5394209,54.615906 C47.572847,54.6835821 47.6048731,54.7516099 47.6346241,54.820165 C47.6367242,54.8247353 47.6384742,54.8294814 47.6405743,54.8342275 C47.6710253,54.9047162 47.6995513,54.9753807 47.7259772,55.0463968 C47.7270272,55.0493851 47.7282523,55.0521976 47.7293023,55.0551859 C47.7569533,55.1304207 47.7825041,55.2056555 47.8056049,55.2814177 C47.8126051,55.3040936 47.8196054,55.328 47.8266056,55.3529611 C47.8267806,55.3536642 47.8271306,55.3545431 47.8273056,55.355422 C47.8343059,55.3800315 47.8411311,55.4058715 47.8479564,55.4324146 C47.8621318,55.4870829 47.8735072,55.5392903 47.8845326,55.5907945 C47.9634603,55.9708358 47.9968864,56.4705848 47.7727038,56.8550206 Z M46.6962422,48.2953025 C46.6936171,48.2956541 46.690992,48.2961814 46.6881919,48.296533 C46.5448621,48.3185058 46.4008322,48.3381934 46.2566273,48.3564747 C46.2396517,48.3587599 46.2226761,48.3610451 46.2057005,48.3631545 C46.0655208,48.3805569 45.924816,48.39585 45.7837612,48.4099126 C45.2135918,48.4665145 44.6371222,48.4972764 44.0543524,48.4972764 C43.0891946,48.4972764 42.1403124,48.4165923 41.2119059,48.2633101 C41.1105774,48.2466108 41.009424,48.2290326 40.9087956,48.2105755 C40.8482435,48.1995012 40.7878664,48.1878995 40.7273144,48.1762979 C40.6366613,48.1587197 40.5461832,48.1407899 40.4560552,48.1218054 C40.3857028,48.1068639 40.3155254,48.0913951 40.245348,48.0757504 C40.1637952,48.0574691 40.0822425,48.0393635 40.0010397,48.0200275 C39.9228121,48.0013945 39.8449344,47.9815311 39.7670568,47.9618435 C39.6928542,47.9432106 39.6186517,47.9247535 39.5447992,47.9048901 C39.4607964,47.8823899 39.3774935,47.8586593 39.2938407,47.8351045 C39.2255884,47.8157685 39.157161,47.7971355 39.0890837,47.7769206 C39.0007057,47.7505532 38.9128527,47.7227796 38.8248247,47.6953576 C38.7616476,47.6754942 38.6981204,47.6566855 38.6351183,47.636119 C38.5476153,47.6076422 38.4609874,47.5772319 38.3740094,47.5475247 C38.2063537,47.4900439 38.0392231,47.4302779 37.8734924,47.3676994 C37.8388412,47.3546915 37.8038401,47.342211 37.7691889,47.3290273 C37.6535099,47.2845544 37.538531,47.2383237 37.4237271,47.1915656 C37.3973012,47.1806671 37.3705253,47.1704717 37.3440994,47.1593974 C37.2205452,47.1082448 37.0975161,47.0555101 36.9751869,47.0015449 C36.9599614,46.9948652 36.9445609,46.9883613 36.9293353,46.9816815 C36.7952808,46.9224429 36.6621013,46.8614465 36.5294467,46.798868 C36.5289217,46.7986922 36.5282217,46.7983406 36.5275217,46.7979891 C29.8583951,43.6469159 25.0782826,36.4452917 24.3917343,28.0850864 C24.3910343,28.07577 24.3903343,28.0664535 24.3894592,28.0571371 C24.3770338,27.9035033 24.3661834,27.7495181 24.3565581,27.595357 C24.353583,27.5480716 24.3513079,27.5006104 24.3486828,27.4533249 C24.3416826,27.3299258 24.3350324,27.2063508 24.3297822,27.0826001 C24.3262821,26.9943574 24.323657,26.9059389 24.3208569,26.8175204 C24.3180568,26.7289261 24.3147317,26.6405077 24.3128066,26.5517376 C24.3091315,26.3701545 24.3066814,26.1882199 24.3066814,26.0055821 C24.3066814,25.7949949 24.3096565,25.5831772 24.3149067,25.3706565 C24.3156067,25.3391914 24.3171818,25.3079022 24.3180568,25.2762614 C24.323482,25.0894048 24.3303072,24.9021967 24.3399325,24.714637 C24.3409826,24.6914337 24.3425576,24.6684063 24.3437827,24.645203 C24.354283,24.4485026 24.3667085,24.2516265 24.381759,24.0547503 C24.383159,24.0362932 24.3847341,24.0176603 24.3861341,23.9992031 C24.4015346,23.8025027 24.4192102,23.6056266 24.4389859,23.409102 C25.5723244,12.2261849 33.9358586,3.51441512 44.0534774,3.51441512 C54.3468022,3.51441512 62.8244403,12.5316945 63.7204707,23.9946328 C63.7204707,23.9948086 63.7204707,23.9948086 63.7204707,23.9951601 C63.7465466,24.3314316 63.7663223,24.6675273 63.7796227,25.0006348 C63.7801477,25.0146974 63.7804977,25.0289357 63.7810228,25.0429983 C63.786973,25.1959289 63.7916981,25.3485079 63.7946732,25.500208 C63.7958983,25.5612045 63.7958983,25.6225525 63.7967733,25.6835489 C63.7981733,25.7911277 63.8000984,25.899058 63.8000984,26.0055821 C63.8011484,37.2271713 56.3621707,46.8132821 46.6962422,48.2953025 Z M59.551304,70.4368385 C59.2945703,70.5059209 59.0677626,70.5409016 58.8771811,70.5409016 C58.5518451,70.5409016 58.4261908,70.465491 58.2931863,70.1903917 C58.2924863,70.1888097 58.2914362,70.1874034 58.2907362,70.1859972 C58.2641353,70.1315047 58.2349093,70.0784184 58.2030582,70.0269142 C58.197633,70.0181251 58.1913328,70.0102149 58.1857326,70.0016016 C58.1586067,69.9595896 58.1302557,69.9184566 58.0996297,69.8787298 C58.0891293,69.8651945 58.077579,69.8525382 58.0665536,69.8391787 C58.0392527,69.8057801 58.0112517,69.7730846 57.9813257,69.7417954 C57.9683752,69.7282601 57.9547248,69.7156038 57.9414243,69.7024201 C57.9118483,69.6732403 57.8813973,69.6447635 57.8495462,69.6176931 C57.8346707,69.6050367 57.8190952,69.5929078 57.8036946,69.5807788 C57.7721936,69.5558177 57.7401675,69.5315598 57.7067414,69.5087081 C57.6888907,69.4965791 57.6708651,69.4848017 57.6524895,69.4732 C57.6206384,69.4529851 57.5880873,69.4338248 57.5546612,69.4155435 C57.5331355,69.403766 57.5114347,69.392516 57.489559,69.3816175 C57.4582329,69.3663244 57.4263818,69.352086 57.3940057,69.338375 C57.3688049,69.3276523 57.343429,69.3174569 57.3177031,69.3079647 C57.3049277,69.3033944 57.2930273,69.2974178 57.2800769,69.2930232 C57.2599512,69.2861677 57.2398255,69.2817731 57.2196998,69.2757965 C57.2035993,69.2708746 57.1880237,69.2645465 57.1717482,69.2599761 C57.1636979,69.257691 57.1554726,69.2571636 57.1472473,69.2550542 C57.0828452,69.2387065 57.018268,69.225347 56.9535158,69.2163821 C56.9505407,69.2160306 56.9477406,69.2151517 56.9447655,69.2148001 C56.873013,69.2053078 56.8014356,69.2012649 56.7302082,69.2007375 C56.726533,69.2007375 56.7226829,69.2000344 56.7190078,69.2000344 C56.7121826,69.2000344 56.7055323,69.2014406 56.6987071,69.2016164 C56.6252046,69.2024953 56.5522271,69.2077688 56.4801247,69.2179642 C56.4704993,69.2191946 56.460874,69.2200736 56.4512487,69.2214798 C56.3737211,69.2336088 56.2975935,69.251187 56.2228659,69.2733356 C56.2097405,69.2772028 56.196965,69.2819489 56.1838396,69.2861677 C56.1161123,69.3081405 56.04961,69.3338047 55.9852079,69.3636877 C55.9764576,69.3677307 55.9675323,69.3710705 55.958782,69.3752893 C55.8886046,69.4092153 55.8214023,69.4487663 55.7561251,69.491833 C55.7501749,69.495876 55.7435246,69.4985127 55.7373994,69.5025557 C55.6098201,69.5893921 55.4981663,69.6335135 55.4057632,69.6335135 C55.1969811,69.6335135 54.8679699,69.428024 54.5254833,69.0840181 C54.3783033,68.9361852 54.1042439,68.6609101 54.3823284,67.9866093 C54.8586946,66.8318955 56.3507953,65.8188622 57.5758369,65.8188622 C57.7510179,65.8188622 57.9183235,65.8399561 58.0730288,65.8816165 C59.313821,66.2156028 60.2408275,67.9315894 60.2410025,69.2427495 C60.2410025,70.2512124 59.757636,70.3812913 59.551304,70.4368385 Z M79.7700911,48.5874527 C77.5079642,57.0671898 70.5203268,62.9892949 62.7773637,62.9892949 C61.4970201,62.9892949 60.2189517,62.8200165 58.9788596,62.486206 C55.9675323,61.6758497 53.3216173,59.9440426 51.2749228,57.4540866 C51.4056522,56.952404 51.458504,56.4197837 51.4345282,55.8695852 C51.4326032,55.8219482 51.427353,55.7734323 51.4242029,55.7252679 C51.4180777,55.635619 51.4121275,55.5457942 51.4019771,55.4552663 C51.3942769,55.3846019 51.3827265,55.3130585 51.3724011,55.2418667 C51.3620758,55.1715537 51.3521004,55.101065 51.339325,55.0304006 C51.3254995,54.9535837 51.3086989,54.8764153 51.2918984,54.7990711 C51.2770229,54.7308676 51.2617974,54.662664 51.2446468,54.5941089 C51.2362465,54.5607103 51.2304713,54.5276632 51.221546,54.4940888 C51.2003703,54.4149868 51.1770945,54.3358848 51.1529437,54.256607 C51.1525936,54.2552007 51.1522436,54.2539702 51.1518936,54.252564 C51.1517186,54.2520366 51.1515436,54.2515093 51.1513686,54.2509819 C51.1144423,54.1296922 51.073666,54.0085782 51.0297395,53.88764 C51.017139,53.8523077 51.0034886,53.8175028 50.9901881,53.7823464 C50.9627122,53.7099241 50.9343612,53.6378533 50.9044352,53.5657826 C50.8809844,53.5086534 50.8575336,53.4515241 50.8326828,53.3947465 C50.8269076,53.3819143 50.8207824,53.3690822 50.8150072,53.3560744 C50.486521,52.615152 50.0463811,51.9139565 49.5189131,51.2879958 C49.5876905,51.2695387 49.6554178,51.2475659 49.7240201,51.2282299 C49.8323488,51.1978195 49.9403274,51.1660029 50.0481311,51.1338348 C54.3102259,49.8671477 58.1806575,47.2620543 61.2105354,43.5574427 C63.9315279,40.2305873 65.8047915,36.2162474 66.6992469,31.8969252 C66.7076472,31.8564953 66.7153475,31.815538 66.7237477,31.7751081 C66.7554238,31.6190134 66.7862249,31.4629187 66.8152759,31.3059452 C66.8296263,31.2289525 66.8429268,31.1516083 66.8565773,31.0744399 C66.878103,30.9527986 66.8992787,30.8311572 66.9192294,30.7091643 C66.9351549,30.6121325 66.9500304,30.5147491 66.9650809,30.4173657 C66.9808315,30.31383 66.996582,30.2102942 67.0112825,30.1065827 C67.026858,29.9975976 67.0415585,29.8882611 67.055734,29.7787487 C67.0679844,29.684881 67.0797098,29.591189 67.0910852,29.4969697 C67.1050857,29.381305 67.1183862,29.2652887 67.1309866,29.1490966 C67.1406119,29.0596234 67.1497122,28.9697987 67.1586375,28.8801497 C67.1703629,28.7607935 67.1819133,28.6412616 67.1922387,28.5213781 C67.1997639,28.4333111 67.2065892,28.3452442 67.2132394,28.2570015 C67.2225147,28.1360633 67.231965,28.0149493 67.2396653,27.893308 C67.2454405,27.8043621 67.2499906,27.7150647 67.2548908,27.6261189 C67.261541,27.5051807 67.2685413,27.3844183 67.2737914,27.2631285 C67.2776416,27.1717217 67.2800917,27.0803149 67.2830668,26.9890839 C67.2870919,26.8690246 67.2918171,26.7491411 67.2942671,26.6287302 C67.2961922,26.5371477 67.2963672,26.4452135 67.2974172,26.3534552 C67.2988173,26.2374389 67.3012674,26.1219499 67.3012674,26.0055821 C67.3012674,25.990289 67.3007424,25.9751717 67.3007424,25.9598787 C67.3007424,25.9090776 67.3005673,25.8581007 67.3002173,25.8071239 C67.7657332,25.8851712 68.2275738,25.9858944 68.6838144,26.1085905 C72.9039078,27.2443198 76.384776,30.1818175 78.4853724,34.3798499 C80.6195699,38.6469647 81.0759854,43.6924435 79.7700911,48.5874527 Z" id="Shape"></path>
                    </g>
                </g>
            </g>
        </g>
    </g>
</svg>