<?xml version="1.0" encoding="UTF-8"?>
<svg width="21px" height="21px" viewBox="0 0 21 21" version="1.1" xmlns="http://www.w3.org/2000/svg" xmlns:xlink="http://www.w3.org/1999/xlink">
    <!-- Generator: Sketch 49.1 (51147) - http://www.bohemiancoding.com/sketch -->
    <title>calendar (2)</title>
    <desc>Created with Sketch.</desc>
    <defs></defs>
    <g id="Symbols" stroke="none" stroke-width="1" fill="none" fill-rule="evenodd">
        <g id="search" transform="translate(-788.000000, -22.000000)" fill="#EC2552">
            <g id="search-by-date">
                <g transform="translate(788.000000, 22.000000)">
                    <g id="calendar-(2)">
                        <g>
                            <path d="M19.359375,3.28125 L17.71875,3.28125 L17.71875,1.3125 C17.71875,0.58865625 17.1300938,0 16.40625,0 C15.6824062,0 15.09375,0.58865625 15.09375,1.3125 L15.09375,3.28125 L5.90625,3.28125 L5.90625,1.3125 C5.90625,0.58865625 5.31759375,0 4.59375,0 C3.86990625,0 3.28125,0.58865625 3.28125,1.3125 L3.28125,3.28125 L1.640625,3.28125 C0.735984375,3.28125 0,4.01723438 0,4.921875 L0,7.546875 L0,19.359375 C0,20.2640156 0.735984375,21 1.640625,21 L19.359375,21 C20.2640156,21 21,20.2640156 21,19.359375 L21,7.546875 L21,4.921875 C21,4.01723438 20.2640156,3.28125 19.359375,3.28125 Z M15.75,1.3125 C15.75,0.950578125 16.0443281,0.65625 16.40625,0.65625 C16.7678437,0.65625 17.0625,0.950578125 17.0625,1.3125 L17.0625,3.28125 L15.75,3.28125 L15.75,1.3125 Z M3.9375,1.3125 C3.9375,0.950578125 4.23182812,0.65625 4.59375,0.65625 C4.95534375,0.65625 5.25,0.950578125 5.25,1.3125 L5.25,3.28125 L3.9375,3.28125 L3.9375,1.3125 Z M20.34375,19.359375 C20.34375,19.9020937 19.9020937,20.34375 19.359375,20.34375 L1.640625,20.34375 C1.09790625,20.34375 0.65625,19.9020937 0.65625,19.359375 L0.65625,7.875 L20.34375,7.875 L20.34375,19.359375 Z M20.34375,7.21875 L0.65625,7.21875 L0.65625,4.921875 C0.65625,4.37915625 1.09790625,3.9375 1.640625,3.9375 L3.609375,3.9375 L5.578125,3.9375 L15.421875,3.9375 L17.390625,3.9375 L19.359375,3.9375 C19.9020937,3.9375 20.34375,4.37915625 20.34375,4.921875 L20.34375,7.21875 Z" id="Shape" fill-rule="nonzero"></path>
                            <path d="M4.265625,9.1875 L2.296875,9.1875 C2.11542188,9.1875 1.96875,9.3345 1.96875,9.515625 L1.96875,11.484375 C1.96875,11.6655 2.11542188,11.8125 2.296875,11.8125 L4.265625,11.8125 C4.44707813,11.8125 4.59375,11.6655 4.59375,11.484375 L4.59375,9.515625 C4.59375,9.3345 4.44707813,9.1875 4.265625,9.1875 Z M3.9375,11.15625 L2.625,11.15625 L2.625,9.84375 L3.9375,9.84375 L3.9375,11.15625 Z" id="Shape" fill-rule="nonzero"></path>
                            <path d="M11.484375,9.1875 L9.515625,9.1875 C9.33417187,9.1875 9.1875,9.3345 9.1875,9.515625 L9.1875,11.484375 C9.1875,11.6655 9.33417187,11.8125 9.515625,11.8125 L11.484375,11.8125 C11.6658281,11.8125 11.8125,11.6655 11.8125,11.484375 L11.8125,9.515625 C11.8125,9.3345 11.6658281,9.1875 11.484375,9.1875 Z M11.15625,11.15625 L9.84375,11.15625 L9.84375,9.84375 L11.15625,9.84375 L11.15625,11.15625 Z" id="Shape" fill-rule="nonzero"></path>
                            <path d="M15.09375,9.1875 L13.125,9.1875 C12.9435469,9.1875 12.796875,9.3345 12.796875,9.515625 L12.796875,11.484375 C12.796875,11.6655 12.9435469,11.8125 13.125,11.8125 L15.09375,11.8125 C15.2752031,11.8125 15.421875,11.6655 15.421875,11.484375 L15.421875,9.515625 C15.421875,9.3345 15.2752031,9.1875 15.09375,9.1875 Z M14.765625,11.15625 L13.453125,11.15625 L13.453125,9.84375 L14.765625,9.84375 L14.765625,11.15625 Z" id="Shape" fill-rule="nonzero"></path>
                            <path d="M18.703125,9.1875 L16.734375,9.1875 C16.5529219,9.1875 16.40625,9.3345 16.40625,9.515625 L16.40625,11.484375 C16.40625,11.6655 16.5529219,11.8125 16.734375,11.8125 L18.703125,11.8125 C18.8845781,11.8125 19.03125,11.6655 19.03125,11.484375 L19.03125,9.515625 C19.03125,9.3345 18.8845781,9.1875 18.703125,9.1875 Z M18.375,11.15625 L17.0625,11.15625 L17.0625,9.84375 L18.375,9.84375 L18.375,11.15625 Z" id="Shape" fill-rule="nonzero"></path>
                            <path d="M4.265625,12.796875 L2.296875,12.796875 C2.11542188,12.796875 1.96875,12.943875 1.96875,13.125 L1.96875,15.09375 C1.96875,15.274875 2.11542188,15.421875 2.296875,15.421875 L4.265625,15.421875 C4.44707813,15.421875 4.59375,15.274875 4.59375,15.09375 L4.59375,13.125 C4.59375,12.943875 4.44707813,12.796875 4.265625,12.796875 Z M3.9375,14.765625 L2.625,14.765625 L2.625,13.453125 L3.9375,13.453125 L3.9375,14.765625 Z" id="Shape" fill-rule="nonzero"></path>
                            <path d="M7.875,12.796875 L5.90625,12.796875 C5.72479688,12.796875 5.578125,12.943875 5.578125,13.125 L5.578125,15.09375 C5.578125,15.274875 5.72479688,15.421875 5.90625,15.421875 L7.875,15.421875 C8.05645313,15.421875 8.203125,15.274875 8.203125,15.09375 L8.203125,13.125 C8.203125,12.943875 8.05645313,12.796875 7.875,12.796875 Z M7.546875,14.765625 L6.234375,14.765625 L6.234375,13.453125 L7.546875,13.453125 L7.546875,14.765625 Z" id="Shape" fill-rule="nonzero"></path>
                            <path d="M11.484375,12.796875 L9.515625,12.796875 C9.33417187,12.796875 9.1875,12.943875 9.1875,13.125 L9.1875,15.09375 C9.1875,15.274875 9.33417187,15.421875 9.515625,15.421875 L11.484375,15.421875 C11.6658281,15.421875 11.8125,15.274875 11.8125,15.09375 L11.8125,13.125 C11.8125,12.943875 11.6658281,12.796875 11.484375,12.796875 Z M11.15625,14.765625 L9.84375,14.765625 L9.84375,13.453125 L11.15625,13.453125 L11.15625,14.765625 Z" id="Shape" fill-rule="nonzero"></path>
                            <path d="M18.703125,12.796875 L16.734375,12.796875 C16.5529219,12.796875 16.40625,12.943875 16.40625,13.125 L16.40625,15.09375 C16.40625,15.274875 16.5529219,15.421875 16.734375,15.421875 L18.703125,15.421875 C18.8845781,15.421875 19.03125,15.274875 19.03125,15.09375 L19.03125,13.125 C19.03125,12.943875 18.8845781,12.796875 18.703125,12.796875 Z M18.375,14.765625 L17.0625,14.765625 L17.0625,13.453125 L18.375,13.453125 L18.375,14.765625 Z" id="Shape" fill-rule="nonzero"></path>
                            <path d="M7.875,16.40625 L5.90625,16.40625 C5.72479688,16.40625 5.578125,16.5529219 5.578125,16.734375 L5.578125,18.703125 C5.578125,18.8845781 5.72479688,19.03125 5.90625,19.03125 L7.875,19.03125 C8.05645313,19.03125 8.203125,18.8845781 8.203125,18.703125 L8.203125,16.734375 C8.203125,16.5529219 8.05645313,16.40625 7.875,16.40625 Z M7.546875,18.375 L6.234375,18.375 L6.234375,17.0625 L7.546875,17.0625 L7.546875,18.375 Z" id="Shape" fill-rule="nonzero"></path>
                            <path d="M11.484375,16.40625 L9.515625,16.40625 C9.33417187,16.40625 9.1875,16.5529219 9.1875,16.734375 L9.1875,18.703125 C9.1875,18.8845781 9.33417187,19.03125 9.515625,19.03125 L11.484375,19.03125 C11.6658281,19.03125 11.8125,18.8845781 11.8125,18.703125 L11.8125,16.734375 C11.8125,16.5529219 11.6658281,16.40625 11.484375,16.40625 Z M11.15625,18.375 L9.84375,18.375 L9.84375,17.0625 L11.15625,17.0625 L11.15625,18.375 Z" id="Shape" fill-rule="nonzero"></path>
                            <path d="M15.09375,16.40625 L13.125,16.40625 C12.9435469,16.40625 12.796875,16.5529219 12.796875,16.734375 L12.796875,18.703125 C12.796875,18.8845781 12.9435469,19.03125 13.125,19.03125 L15.09375,19.03125 C15.2752031,19.03125 15.421875,18.8845781 15.421875,18.703125 L15.421875,16.734375 C15.421875,16.5529219 15.2752031,16.40625 15.09375,16.40625 Z M14.765625,18.375 L13.453125,18.375 L13.453125,17.0625 L14.765625,17.0625 L14.765625,18.375 Z" id="Shape" fill-rule="nonzero"></path>
                            <path d="M18.703125,16.40625 L16.734375,16.40625 C16.5529219,16.40625 16.40625,16.5529219 16.40625,16.734375 L16.40625,18.703125 C16.40625,18.8845781 16.5529219,19.03125 16.734375,19.03125 L18.703125,19.03125 C18.8845781,19.03125 19.03125,18.8845781 19.03125,18.703125 L19.03125,16.734375 C19.03125,16.5529219 18.8845781,16.40625 18.703125,16.40625 Z M18.375,18.375 L17.0625,18.375 L17.0625,17.0625 L18.375,17.0625 L18.375,18.375 Z" id="Shape" fill-rule="nonzero"></path>
                            <polygon id="Shape" fill-rule="nonzero" points="8.10698437 9.74760938 7.64301562 9.28364063 6.890625 10.0360313 6.13823437 9.28364063 5.67426562 9.74760938 6.42665625 10.5 5.67426562 11.2523906 6.13823437 11.7163594 6.890625 10.9639687 7.64301562 11.7163594 8.10698437 11.2523906 7.35459375 10.5"></polygon>
                            <polygon id="Shape" fill-rule="nonzero" points="4.49760938 16.9663594 4.03364063 16.5023906 3.28125 17.2547813 2.52885938 16.5023906 2.06489063 16.9663594 2.81728125 17.71875 2.06489063 18.4711406 2.52885938 18.9351094 3.28125 18.1827187 4.03364063 18.9351094 4.49760938 18.4711406 3.74521875 17.71875"></polygon>
                            <polygon id="Shape" fill-rule="nonzero" points="15.3257344 13.3569844 14.8617656 12.8930156 14.109375 13.6454063 13.3569844 12.8930156 12.8930156 13.3569844 13.6454063 14.109375 12.8930156 14.8617656 13.3569844 15.3257344 14.109375 14.5733437 14.8617656 15.3257344 15.3257344 14.8617656 14.5733437 14.109375"></polygon>
                            <rect id="Rectangle-path" fill-rule="nonzero" x="17.71875" y="5.90625" width="1" height="1"></rect>
                            <rect id="Rectangle-path" fill-rule="nonzero" x="19.03125" y="5.90625" width="1" height="1"></rect>
                            <rect id="Rectangle-path" fill-rule="nonzero" x="16.40625" y="5.90625" width="1" height="1"></rect>
                        </g>
                    </g>
                </g>
            </g>
        </g>
    </g>
</svg>