<?xml version="1.0" encoding="UTF-8"?>
<svg width="84px" height="84px" viewBox="0 0 84 84" version="1.1" xmlns="http://www.w3.org/2000/svg" xmlns:xlink="http://www.w3.org/1999/xlink">
    <!-- Generator: Sketch 49.1 (51147) - http://www.bohemiancoding.com/sketch -->
    <title>confetti</title>
    <desc>Created with Sketch.</desc>
    <defs></defs>
    <g id="artist--1200" stroke="none" stroke-width="1" fill="none" fill-rule="evenodd">
        <g id="Main-Page" transform="translate(-1067.000000, -1387.000000)" fill="#EC2552" fill-rule="nonzero">
            <g id="why-choose-us" transform="translate(177.000000, 1269.000000)">
                <g id="third" transform="translate(776.000000, 118.000000)">
                    <g id="confetti" transform="translate(114.000000, 0.000000)">
                        <path d="M56.4162117,46.2415816 C59.5402318,44.7860219 62.6507131,43.7242115 65.7062239,43.073869 C66.587546,42.8863459 67.1507895,42.0156679 66.9643466,41.12924 C66.7779037,40.242812 65.9132196,39.6761413 65.0307557,39.8638284 C61.4938861,40.6165457 57.9018829,41.8753948 54.3093904,43.6151101 C52.3025598,41.2078258 50.0052176,38.6907838 47.5266522,36.197859 C44.8927993,33.548911 42.2315427,31.1040564 39.7033897,28.9991387 C41.8911172,26.2168082 43.6767608,23.1015955 45.0276972,19.6922194 C47.1340292,14.3764407 48.2021204,8.30318691 48.2021204,1.6406218 C48.2021204,0.734506378 47.4716818,0 46.5709487,0 C45.6702157,0 44.939777,0.734506378 44.939777,1.6406218 C44.939777,11.9063205 42.3227252,20.4024445 37.1545208,26.9586973 C36.1792432,26.2104097 35.233653,25.5226611 34.3306364,24.910217 C29.4963328,21.6307781 26.6169885,20.8621468 25.0076745,22.4227062 C24.9962563,22.4333702 24.9843488,22.4438702 24.9732568,22.4548624 C24.9716256,22.456503 24.9699945,22.4579796 24.9683633,22.4594561 C24.9673846,22.4604405 24.966569,22.4615889 24.9655903,22.4624093 C24.5533932,22.8779788 24.2989304,23.3805012 24.2025282,23.9801485 L0.126923335,81.7249498 C-0.129170621,82.3391986 0.00947897345,83.0484394 0.477788367,83.5194619 C0.789994629,83.8333128 1.20724835,84 1.63167922,84 C1.84405778,84 2.05839374,83.9583282 2.26212708,83.8723596 C2.26669436,83.8703909 2.26212708,83.8723596 2.26669436,83.8703909 L59.6743141,59.6567819 C60.2186361,59.5681883 60.6810732,59.3444075 61.0720651,58.9905254 C61.1004475,58.9667364 61.1270356,58.9414708 61.1536237,58.9162052 C61.1640632,58.9058693 61.1753183,58.8973381 61.1855947,58.8868381 C61.1872258,58.8851975 61.1885308,58.8833928 61.1899988,58.8819162 C61.2012539,58.87076 61.2116934,58.8586194 61.2224591,58.846971 C62.7738665,57.2281695 62.0096626,54.3323079 58.7491135,49.4703253 C58.0599435,48.4426398 57.2768179,47.3608137 56.4162117,46.2415816 Z M12.9376565,72.3120463 C12.5972309,74.4469874 11.8402042,75.8503753 11.4759635,76.4278742 L4.67740301,79.2953529 L11.5819897,62.7352447 C12.9329261,66.1413396 13.4012355,69.4042082 12.9376565,72.3120463 Z M22.9752346,66.7608384 C22.3175462,70.5316435 20.5731712,72.3492884 20.0771319,72.8001312 L15.7788313,74.6130183 C16.7343717,71.1916656 16.9855721,65.7607153 13.2927625,58.6318855 L18.1810579,46.9081662 C23.25286,56.5796317 23.6334124,62.9879004 22.9752346,66.7608384 Z M28.7937872,69.1233337 L25.2779597,70.6064558 C25.6130024,69.7551372 25.9084075,68.7855297 26.1224173,67.6868053 C27.4280071,60.9843731 25.2967182,52.6972643 19.7910243,43.0467987 L21.5559521,38.8138304 C22.9528876,40.5044912 24.5445849,42.8973381 25.1892239,44.4060539 C25.4546156,45.0273574 26.0563548,45.3994504 26.688597,45.3994504 C26.9034223,45.3994504 27.1219993,45.356302 27.3319311,45.2657397 C28.1595876,44.9079201 28.5420974,43.9432345 28.1865019,43.1106189 C27.2299829,40.8721545 24.8045937,37.3891145 22.949299,35.4720479 L25.6461151,29.0038965 C26.1185025,29.8750667 26.7036037,30.8295804 27.4053338,31.875969 C27.8884869,32.5965301 28.4178021,33.3435052 28.987081,34.1113162 C34.56683,42.6271277 34.4405773,51.3435872 33.3498128,57.1594274 C32.1898866,63.3453919 29.7061015,67.8743284 28.7937872,69.1233337 Z M41.3624544,63.8223207 L33.6186299,67.0884705 C34.7367981,64.6216316 35.8774765,61.3832082 36.5553914,57.76777 C37.3125813,53.7295435 37.6455035,48.4191789 36.2444901,42.6847135 C37.0171761,43.5056807 37.8120461,44.3284525 38.6274688,45.1485993 C41.0673754,47.6024773 43.5301185,49.8794963 45.8894452,51.8751487 C45.6555352,59.6210164 42.1232329,63.1506501 41.3624544,63.8223207 Z M46.9851032,61.4508019 C47.8582694,59.6338132 48.6293243,57.2921537 48.9731753,54.3674173 C49.9577505,55.1234158 50.9124753,55.818055 51.8236478,56.4360773 C52.8644985,57.1422009 53.8133511,57.7303638 54.6798295,58.2054879 L46.9851032,61.4508019 Z M52.7222603,53.0718182 C49.1760931,50.5447685 44.9896909,46.9068537 40.934435,42.8281039 C36.8793421,38.7495181 33.2622189,34.5388622 30.7498882,30.9721504 C28.320258,27.5230712 27.6655057,25.7618637 27.4930908,24.9989746 C28.2515857,25.1725524 30.0026485,25.831098 33.4318607,28.2746401 C33.9404601,28.6370534 34.4630875,29.0244042 34.9955019,29.4304581 C34.8811568,29.548911 34.7682797,29.6685124 34.6519772,29.7854887 C34.0150046,30.4261515 34.0150046,31.4649932 34.6519772,32.1058201 C34.970545,32.4260695 35.3879618,32.5863582 35.8053787,32.5863582 C36.2227955,32.5863582 36.6403755,32.4260695 36.9587802,32.1058201 C37.1636554,31.899758 37.3654313,31.6909069 37.5649236,31.480087 C40.0392479,33.5372626 42.6554842,35.9391329 45.2198492,38.5183545 C47.4250302,40.7363111 49.4984126,42.9924942 51.3373956,45.163529 C51.0428059,45.3280833 50.7483795,45.4954268 50.453953,45.6663796 C49.6737635,46.1195193 49.4064145,47.1229236 49.8569441,47.9074689 C50.1590371,48.4337804 50.7072739,48.728108 51.27117,48.728108 C51.5478167,48.728108 51.8283782,48.657069 52.0851247,48.5079365 C52.5379379,48.2447808 52.9910774,47.9922891 53.4440538,47.7457036 C54.1527979,48.6509987 54.8104863,49.5311923 55.4043959,50.3744719 C57.8341893,53.8235511 58.4887785,55.5847586 58.6611933,56.3476478 C57.9023723,56.1739059 56.1513095,55.5153603 52.7222603,53.0718182 Z" id="Shape"></path>
                        <path d="M30.8190013,47.1761123 C30.3662422,46.1719526 29.1841156,45.7241975 28.1781396,46.1761391 C27.2035193,46.6139264 26.7521582,47.7355072 27.1368137,48.7181364 C27.4391857,49.508187 28.1951156,50 29.0021731,50 C29.2210633,50 29.4435483,49.9637171 29.662039,49.8875628 C30.7029655,49.5239362 31.2517886,48.3866062 30.8873046,47.3473597 C30.8683314,47.2933341 30.8425679,47.2283438 30.8190013,47.1761123 Z" id="Shape"></path>
                        <path d="M61.4739178,26.4915882 C61.7899439,26.8304137 62.2040303,27 62.6181167,27 C63.032365,27 63.4462896,26.8304137 63.7623157,26.4915882 C67.3777642,22.6133205 73.2353314,20.8358752 77.511959,20.465632 C78.4027545,20.3885631 79.0665226,19.5512197 78.9946764,18.5958428 C78.9226684,17.6402924 78.1438494,16.9310501 77.2515975,17.0053417 C72.401495,17.4252285 65.7099296,19.4928973 61.4739178,24.036839 C60.8420274,24.7146636 60.8420274,25.8137636 61.4739178,26.4915882 Z" id="Shape"></path>
                        <path d="M82.5673227,17.1036696 C82.5126144,17.0886082 82.4569394,17.073745 82.4006846,17.0592782 C81.3647056,16.7945156 80.3157746,17.4415589 80.0576981,18.503582 C79.7998149,19.565605 80.4306041,20.641104 81.466583,20.9054702 L81.5653674,20.9316294 C81.7331654,20.9778043 81.9017367,21 82.0676016,21 C82.9208972,21 83.7018927,20.4163729 83.9334849,19.5313206 C84.2101197,18.474252 83.5986621,17.387457 82.5673227,17.1036696 Z" id="Shape"></path>
                        <path d="M12.6666667,13.6666667 L14.3333333,13.6666667 L14.3333333,15.3333333 C14.3333333,16.2536667 15.0795,17 16,17 C16.9205,17 17.6666667,16.2536667 17.6666667,15.3333333 L17.6666667,13.6666667 L19.3333333,13.6666667 C20.2538333,13.6666667 21,12.9203333 21,12 C21,11.0796667 20.2538333,10.3333333 19.3333333,10.3333333 L17.6666667,10.3333333 L17.6666667,8.66666667 C17.6666667,7.74633333 16.9205,7 16,7 C15.0795,7 14.3333333,7.74633333 14.3333333,8.66666667 L14.3333333,10.3333333 L12.6666667,10.3333333 C11.7461667,10.3333333 11,11.0796667 11,12 C11,12.9205 11.7461667,13.6666667 12.6666667,13.6666667 Z" id="Shape"></path>
                        <path d="M50.6666667,29.6668333 L52.3335,29.6668333 L52.3335,31.3333333 C52.3335,32.2538333 53.0798333,33 54.0001667,33 C54.9206667,33 55.6668333,32.2538333 55.6668333,31.3333333 L55.6668333,29.6668333 L57.3333333,29.6668333 C58.2536667,29.6668333 59,28.9205 59,28.0001667 C59,27.0798333 58.2536667,26.3335 57.3333333,26.3335 L55.6668333,26.3335 L55.6668333,24.6666667 C55.6668333,23.7463333 54.9206667,23 54.0001667,23 C53.0798333,23 52.3335,23.7463333 52.3335,24.6666667 L52.3335,26.3335 L50.6666667,26.3335 C49.7463333,26.3335 49,27.0798333 49,28.0001667 C49,28.9206667 49.7463333,29.6668333 50.6666667,29.6668333 Z" id="Shape"></path>
                        <path d="M73.3333333,68.3333333 L71.6666667,68.3333333 L71.6666667,66.6666667 C71.6666667,65.7463333 70.9203333,65 70,65 C69.0796667,65 68.3333333,65.7463333 68.3333333,66.6666667 L68.3333333,68.3333333 L66.6666667,68.3333333 C65.7463333,68.3333333 65,69.0796667 65,70 C65,70.9203333 65.7463333,71.6666667 66.6666667,71.6666667 L68.3333333,71.6666667 L68.3333333,73.3333333 C68.3333333,74.2536667 69.0796667,75 70,75 C70.9203333,75 71.6666667,74.2536667 71.6666667,73.3333333 L71.6666667,71.6666667 L73.3333333,71.6666667 C74.2536667,71.6666667 75,70.9203333 75,70 C75,69.0796667 74.2538333,68.3333333 73.3333333,68.3333333 Z" id="Shape"></path>
                        <path d="M64,10 C66.757,10 69,7.757 69,5 C69,2.243 66.757,0 64,0 C61.243,0 59,2.243 59,5 C59,7.757 61.243,10 64,10 Z M64,3.33333333 C64.919,3.33333333 65.6666667,4.081 65.6666667,5 C65.6666667,5.919 64.919,6.66666667 64,6.66666667 C63.081,6.66666667 62.3333333,5.919 62.3333333,5 C62.3333333,4.081 63.081,3.33333333 64,3.33333333 Z" id="Shape"></path>
                        <path d="M75,29 C72.243,29 70,31.243 70,34 C70,36.757 72.243,39 75,39 C77.757,39 80,36.757 80,34 C80,31.243 77.7568333,29 75,29 Z M75,35.6666667 C74.081,35.6666667 73.3333333,34.919 73.3333333,34 C73.3333333,33.081 74.081,32.3333333 75,32.3333333 C75.919,32.3333333 76.6666667,33.081 76.6666667,34 C76.6666667,34.919 75.919,35.6666667 75,35.6666667 Z" id="Shape"></path>
                        <path d="M33,16 C35.757,16 38,13.757 38,11 C38,8.243 35.757,6 33,6 C30.243,6 28,8.243 28,11 C28,13.757 30.243,16 33,16 Z M33,9.33333333 C33.919,9.33333333 34.6666667,10.081 34.6666667,11 C34.6666667,11.919 33.919,12.6666667 33,12.6666667 C32.081,12.6666667 31.3333333,11.919 31.3333333,11 C31.3333333,10.0811667 32.081,9.33333333 33,9.33333333 Z" id="Shape"></path>
                        <path d="M75,48 C75,46.8984 74.1016,46 73,46 C71.8984,46 71,46.8984 71,48 C71,49.1016 71.8984,50 73,50 C74.1016,50 75,49.1014 75,48 Z" id="Shape"></path>
                        <path d="M56,17 C57.1016,17 58,16.1016 58,15 C58,13.8984 57.1016,13 56,13 C54.8984,13 54,13.8984 54,15 C54.0002,16.1014 54.8986,17 56,17 Z" id="Shape"></path>
                        <path d="M77.0001,59 C75.8985551,59 75,59.8985551 75,61.0001 C75,62.1016449 75.8985551,63 77.0001,63 C78.1014449,63 79,62.1016449 79,61.0001 C79,59.8985551 78.1014449,59 77.0001,59 Z" id="Shape"></path>
                        <path d="M23,6 C24.1016,6 25,5.1016 25,4 C25,2.8984 24.1016,2 23,2 C21.8984,2 21,2.8984 21,4 C21,5.1016 21.8984,6 23,6 Z" id="Shape"></path>
                    </g>
                </g>
            </g>
        </g>
    </g>
</svg>