<?xml version="1.0" encoding="UTF-8"?>
<svg width="16px" height="21px" viewBox="0 0 16 21" version="1.1" xmlns="http://www.w3.org/2000/svg" xmlns:xlink="http://www.w3.org/1999/xlink">
    <!-- Generator: Sketch 49.1 (51147) - http://www.bohemiancoding.com/sketch -->
    <title>placeholder (1)</title>
    <desc>Created with Sketch.</desc>
    <defs></defs>
    <g id="Symbols" stroke="none" stroke-width="1" fill="none" fill-rule="evenodd">
        <g id="search" transform="translate(-497.000000, -22.000000)" fill="#EC2552">
            <g id="search-by-location">
                <g transform="translate(497.000000, 22.000000)">
                    <g id="placeholder-(1)">
                        <g id="Shape">
                            <path d="M1.77657211,12.6818058 C1.00336822,11.0881866 0.611367669,9.54960746 0.611367669,8.10900062 C0.611326925,3.97725531 3.94815985,0.615825667 8.04976259,0.615825667 C10.4859843,0.615825667 12.7713708,1.82083938 14.1632763,3.83918296 C14.2595957,3.97885603 14.4501159,4.01345621 14.5886872,3.91642796 C14.7273399,3.81939971 14.7616465,3.62755959 14.6653679,3.48788652 C13.1592562,1.3038479 10.6861201,0 8.04976259,0 C3.6111233,0 0,3.63769748 0,8.10900062 C0,9.64417307 0.412943107,11.2736649 1.22733944,12.9522454 C1.28034773,13.0615458 1.38909416,13.125 1.50220024,13.125 C1.54722265,13.125 1.5930192,13.1149442 1.63616738,13.0936834 C1.78781752,13.0190241 1.85068592,12.834613 1.77657211,12.6818058 Z" fill-rule="nonzero"></path>
                            <path d="M15.2169167,4.76582461 C15.1447368,4.61448395 14.9650482,4.55100281 14.8156415,4.62409739 C14.6661948,4.69719197 14.6035081,4.87911714 14.6756479,5.0304578 C15.1556319,6.03723214 15.3989685,7.11904808 15.3989685,8.24576729 C15.3989685,9.67597908 15.0100705,11.2037044 14.2430895,12.7863926 C13.6235123,14.0648175 12.7579148,15.3807227 11.6702501,16.6974797 C10.1474635,18.5410287 8.60649169,19.8736459 8.08645226,20.3051553 C7.3264809,19.6737513 4.38433068,17.1132913 2.47981594,13.8209526 C2.39589985,13.6758992 2.21180517,13.6272641 2.06864712,13.7122031 C1.92544902,13.7971421 1.87738252,13.9835698 1.96125856,14.1285826 C4.21249296,18.0202806 7.75283072,20.8190889 7.90243769,20.936316 C7.95655255,20.9787855 8.02144232,21 8.08633209,21 C8.15118181,21 8.21611163,20.9787855 8.27018644,20.9363972 C8.34897544,20.8746602 10.2210052,19.3983689 12.1232769,17.0975934 C13.243787,15.7423421 14.1375434,14.3841297 14.7796317,13.0607203 C15.589392,11.3916734 16,9.77166726 16,8.24576729 C16,7.02660494 15.7365155,5.85583428 15.2169167,4.76582461 Z" fill-rule="nonzero"></path>
                            <path d="M5.4348126,6.0624638 C5.28562049,5.97699561 5.09041586,6.02051743 4.99881334,6.15955094 C4.6594446,6.67452635 4.48,7.26772288 4.48,7.87498031 C4.48,9.68430652 6.05908714,11.15625 8.00002113,11.15625 C9.94099737,11.15625 11.5200423,9.68430652 11.52,7.87501969 C11.52,6.06569348 9.94091286,4.59375 7.99997887,4.59375 C7.26035614,4.59375 6.55250698,4.80525424 5.9529499,5.2053793 C5.81060263,5.30037897 5.77785727,5.48494301 5.87972704,5.61763533 C5.98163907,5.75032766 6.17959008,5.78085201 6.32197961,5.68585234 C6.81324459,5.35800108 7.39349246,5.18466213 7.99997887,5.18466213 C9.59136137,5.18466213 10.8860075,6.39149666 10.8860075,7.87494092 C10.8860075,9.35838519 9.59136137,10.5652197 7.99997887,10.5652197 C6.40859638,10.5652197 5.11395027,9.3583458 5.11395027,7.87494092 C5.11395027,7.37694099 5.26090302,6.89071756 5.53896398,6.46885128 C5.6305665,6.32985715 5.58396245,6.14785322 5.4348126,6.0624638 Z" fill-rule="nonzero"></path>
                        </g>
                    </g>
                </g>
            </g>
        </g>
    </g>
</svg>