<?xml version="1.0" encoding="UTF-8"?>
<svg width="28px" height="25px" viewBox="0 0 28 25" version="1.1" xmlns="http://www.w3.org/2000/svg" xmlns:xlink="http://www.w3.org/1999/xlink">
    <!-- Generator: Sketch 49.1 (51147) - http://www.bohemiancoding.com/sketch -->
    <title>microphone</title>
    <desc>Created with Sketch.</desc>
    <defs></defs>
    <g id="Symbols" stroke="none" stroke-width="1" fill="none" fill-rule="evenodd">
        <g id="search" transform="translate(-19.000000, -20.000000)" fill="#EC2552" fill-rule="nonzero">
            <g id="search-by-artist">
                <g transform="translate(19.000000, 20.000000)">
                    <g id="microphone">
                        <g id="Shape">
                            <path d="M26.5902894,9.60102128 C27.5016,8.54697021 27.9988681,7.21595745 27.9988681,5.80851064 C27.9988681,4.25695319 27.3946638,2.79833191 26.2975404,1.70126809 C25.2004766,0.604204255 23.7418553,0 22.1903574,0 C20.7831489,0 19.4523745,0.497029787 18.3985021,1.40798298 L18.2788766,1.29014468 C18.1030723,1.1169617 17.8201532,1.11904681 17.6470298,1.29485106 C17.4738468,1.47059574 17.4759319,1.75351489 17.6517362,1.92669787 L17.7685617,2.04179574 C16.8713106,3.0916766 16.3819064,4.41238298 16.3819064,5.80845106 C16.3819064,5.98818723 16.390366,6.16655319 16.4063915,6.34337021 L4.00721702,20.2013447 C3.84910638,20.3781021 3.85655319,20.6474979 4.02425532,20.8152596 L5.28800851,22.0790128 L5.0339234,22.3330979 C4.088,23.2791404 2.54871489,23.2790809 1.60267234,22.3331574 C0.656689362,21.3871149 0.656689362,19.8478298 1.60267234,18.9018468 L9.99462979,10.5098894 C11.2890638,9.21539574 11.2890638,7.10925957 9.99462979,5.81476596 C8.70019574,4.52039149 6.594,4.52039149 5.29962553,5.81476596 L0.129693617,10.9846979 L0.761540426,11.6166043 L5.93147234,6.44667234 C6.87751489,5.50074894 8.4168,5.50068936 9.3627234,6.44667234 C10.3087064,7.39265532 10.3087064,8.93194043 9.3627234,9.8779234 L0.970825532,18.2699404 C-0.323608511,19.5643745 -0.323608511,21.6705106 0.970825532,22.9650043 C1.61804255,23.6121617 2.46817021,23.9357702 3.31829787,23.9357702 C4.16842553,23.9357702 5.01861277,23.6121617 5.66582979,22.9649447 L5.91985532,22.7108596 L7.18366809,23.9746128 C7.27064681,24.0615915 7.38502979,24.1054383 7.49965106,24.1054383 C7.60599149,24.1054383 7.71251064,24.0676681 7.7975234,23.9915915 L19.6822128,13.357966 C19.6839404,13.356417 21.6553191,11.5925362 21.6553191,11.5925362 C21.8321957,11.6085617 22.0106213,11.6170213 22.1903574,11.6170213 C23.5861277,11.6170213 24.9065957,11.1277957 25.956417,10.2308426 L26.0737191,10.3487404 C26.1610553,10.4364936 26.2756766,10.4803404 26.3903574,10.4803404 C26.504383,10.4803404 26.6184085,10.4369702 26.705566,10.3501702 C26.8804766,10.1760936 26.8811319,9.89317447 26.7069957,9.7183234 L26.5902894,9.60102128 Z M7.51668936,23.0438213 L6.23625532,21.7634468 C6.23542128,21.7626128 4.95504681,20.4822383 4.95504681,20.4822383 L14.8423234,9.43177021 C15.2365277,10.2326298 15.7576255,10.9602128 16.3981106,11.600817 C17.0387149,12.2413021 17.7662383,12.7624 18.5671574,13.1566043 L7.51668936,23.0438213 Z M19.2925957,12.5074809 C18.4480085,12.1430043 17.6877191,11.6266128 17.0299574,10.9689106 C16.3721957,10.3110894 15.8558043,9.5508 15.4913277,8.70627234 L16.6159745,7.44931064 C16.8860851,8.3717617 17.3844851,9.2171234 18.0831149,9.91581277 C18.7817447,10.6144426 19.6270468,11.112783 20.5494979,11.3828936 L19.2925957,12.5074809 Z M22.1903574,10.7234043 C20.8775149,10.7233447 19.6433106,10.2121362 18.7150213,9.28384681 C17.7867319,8.35555745 17.2754638,7.12129362 17.2754638,5.80851064 C17.2754638,4.64913191 17.6747319,3.55141277 18.4073191,2.6712 L19.3492511,3.59925106 C19.4362894,3.68497872 19.5495404,3.72775319 19.6627915,3.72775319 C19.7782468,3.72775319 19.8936426,3.68325106 19.9810979,3.59454468 C20.1542809,3.4188 20.1521957,3.13588085 19.9763915,2.96269787 L19.0382128,2.03828085 C19.9209277,1.29765106 21.024366,0.893617021 22.1903574,0.893617021 C23.5031404,0.893617021 24.7374043,1.40482553 25.6656936,2.33317447 C26.5940426,3.26140426 27.1052511,4.49566809 27.1052511,5.80851064 C27.1052511,6.97634894 26.6997872,8.08139574 25.9569532,8.96482553 L21.2432426,4.22954894 C21.0691064,4.05451915 20.7862468,4.0539234 20.6113957,4.22811915 C20.4364851,4.40219574 20.4358298,4.68511489 20.609966,4.85996596 L25.3235574,9.5951234 C24.444,10.3254468 23.3478894,10.7234043 22.1903574,10.7234043 Z"></path>
                        </g>
                    </g>
                </g>
            </g>
        </g>
    </g>
</svg>