<?xml version="1.0" encoding="UTF-8"?>
<svg width="32px" height="32px" viewBox="0 0 32 32" version="1.1" xmlns="http://www.w3.org/2000/svg" xmlns:xlink="http://www.w3.org/1999/xlink">
    <!-- Generator: Sketch 49.1 (51147) - http://www.bohemiancoding.com/sketch -->
    <title>loupe (1)</title>
    <desc>Created with Sketch.</desc>
    <defs></defs>
    <g id="Symbols" stroke="none" stroke-width="1" fill="none" fill-rule="evenodd">
        <g id="search" transform="translate(-1092.000000, -16.000000)" fill="#FFFFFF">
            <g id="search-button">
                <g transform="translate(1076.000000, -2.000000)">
                    <g id="loupe-(1)" transform="translate(16.000000, 18.000000)">
                        <g id="Shape">
                            <path d="M20.9311034,0 C14.8657241,0 9.93110345,4.9452095 9.93110345,11.0237581 C9.93110345,13.5248726 10.7671034,15.8336415 12.1729655,17.6854255 L9.94462069,19.9185832 C9.93048276,19.9327516 9.91758621,19.9476803 9.90537931,19.9630238 C9.72296552,19.9249417 9.53551724,19.9049676 9.34489655,19.9049676 C8.61731034,19.9049676 7.93317241,20.188959 7.41848276,20.7047603 L0.797862069,27.3396803 C0.283310345,27.8552052 0,28.5407516 0,29.2699784 C0,29.9992052 0.283310345,30.6848207 0.797793103,31.2002073 C1.31248276,31.7160086 1.99662069,32 2.7242069,32 C3.4517931,32 4.13593103,31.7160086 4.65062069,31.2002073 L11.2712414,24.5652873 C11.7857931,24.0498315 12.0691034,23.3642851 12.0691034,22.6349892 C12.0691034,22.4438877 12.0491724,22.2559654 12.0111724,22.0731577 C12.0264828,22.0609935 12.0413103,22.0480691 12.0554483,22.0339006 L14.2837241,19.8008121 C16.1315862,21.2097797 18.4353793,22.0475162 20.9311034,22.0475162 C26.9964828,22.0475162 31.9311034,17.1023067 31.9311034,11.0237581 C31.9311034,4.9452095 26.9964828,0 20.9311034,0 Z M3.91903448,30.4671793 C3.5997931,30.7871102 3.17551724,30.9632829 2.7242069,30.9632829 C2.27289655,30.9632829 1.84862069,30.7871102 1.52931034,30.4671102 C1.2102069,30.1474557 1.03448276,29.7223326 1.03448276,29.2699784 C1.03448276,28.8176242 1.2102069,28.3925011 1.52937931,28.0727775 L7.50855172,22.0806911 L9.898,24.4753002 L3.91903448,30.4671793 Z M10.6258621,23.7386091 L8.24462069,21.3522246 C8.56013793,21.0801901 8.95206897,20.9426523 9.34489655,20.9426523 C9.77758621,20.9426523 10.2104138,21.1077667 10.5397931,21.4379266 C10.8588966,21.757581 11.0346207,22.1827041 11.0346207,22.6350583 C11.0346207,23.0446307 10.890069,23.4316717 10.6258621,23.7386091 Z M11.5675862,21.0567603 C11.4794483,20.9326307 11.3809655,20.8146523 11.2713103,20.7048294 C11.1615172,20.5948683 11.0436552,20.4961037 10.9197241,20.4077063 L12.8397931,18.4834903 C13.0466897,18.7087343 13.2628276,18.9253391 13.4875862,19.1326825 L11.5675862,21.0567603 Z M20.9311034,21.0107991 C15.436069,21.0107991 10.9655862,16.5306609 10.9655862,11.0237581 C10.9655862,5.51685529 15.436069,1.03671706 20.9311034,1.03671706 C26.4261379,1.03671706 30.8966207,5.51685529 30.8966207,11.0237581 C30.8966207,16.5306609 26.4261379,21.0107991 20.9311034,21.0107991 Z" fill-rule="nonzero"></path>
                            <path d="M20.9311034,2.21166307 C16.0825517,2.21166307 12.138,6.16473434 12.138,11.0237581 C12.138,15.8827819 16.0825517,19.8358531 20.9311034,19.8358531 C25.7796552,19.8358531 29.7242069,15.8827819 29.7242069,11.0237581 C29.7242069,6.16473434 25.7796552,2.21166307 20.9311034,2.21166307 Z M20.9311034,18.7991361 C16.6530345,18.7991361 13.1724828,15.3111361 13.1724828,11.0237581 C13.1724828,6.73638013 16.6530345,3.24838013 20.9311034,3.24838013 C25.2091724,3.24838013 28.6897241,6.73638013 28.6897241,11.0237581 C28.6897241,15.3111361 25.2091724,18.7991361 20.9311034,18.7991361 Z" fill-rule="nonzero"></path>
                            <path d="M24.5227586,5.49031533 C24.2834483,5.3339784 23.9630345,5.40164147 23.8070345,5.6415378 C23.6510345,5.88136501 23.7186207,6.20253996 23.957931,6.35880778 C25.5388966,7.39137797 26.4827586,9.1352743 26.4827586,11.0237581 C26.4827586,12.3139179 26.0321379,13.5713175 25.2138621,14.564216 C25.031931,14.7848985 25.0630345,15.1116717 25.2833103,15.2939957 C25.3797241,15.3738229 25.4964138,15.4126652 25.6124138,15.4126652 C25.7613793,15.4126652 25.9092414,15.3484579 26.0115172,15.2243974 C26.9824828,14.046203 27.5172414,12.5543672 27.5172414,11.0238272 C27.5173103,8.78355076 26.3978621,6.71502376 24.5227586,5.49031533 Z" fill-rule="nonzero"></path>
                            <path d="M22.128,4.53218143 C21.7357241,4.4599568 21.3330345,4.42332613 20.9311034,4.42332613 C20.6453793,4.42332613 20.4138621,4.65541253 20.4138621,4.94168467 C20.4138621,5.2279568 20.6453793,5.4600432 20.9311034,5.4600432 C21.2705517,5.4600432 21.6103448,5.49093737 21.9411034,5.55182721 C21.9727586,5.55763283 22.0041379,5.56046652 22.0351724,5.56046652 C22.279931,5.56046652 22.4974483,5.3855378 22.5433103,5.13568898 C22.5948966,4.85411663 22.4089655,4.58394816 22.128,4.53218143 Z" fill-rule="nonzero"></path>
                        </g>
                    </g>
                </g>
            </g>
        </g>
    </g>
</svg>