<?xml version="1.0" encoding="UTF-8"?>
<svg width="72px" height="88px" viewBox="0 0 72 88" version="1.1" xmlns="http://www.w3.org/2000/svg" xmlns:xlink="http://www.w3.org/1999/xlink">
    <!-- Generator: Sketch 49.1 (51147) - http://www.bohemiancoding.com/sketch -->
    <title>cocktail</title>
    <desc>Created with Sketch.</desc>
    <defs></defs>
    <g id="artist--1200" stroke="none" stroke-width="1" fill="none" fill-rule="evenodd">
        <g id="Main-Page" transform="translate(-686.000000, -1383.000000)" fill="#EC2552" fill-rule="nonzero">
            <g id="why-choose-us" transform="translate(177.000000, 1269.000000)">
                <g id="second" transform="translate(389.000000, 114.000000)">
                    <g id="cocktail" transform="translate(120.000000, 0.000000)">
                        <path d="M1.51747976,85 L1.48252024,85 C0.663638159,85 0,85.6716127 0,86.5 C0,87.3285372 0.663786293,88 1.48252024,88 L1.51747976,88 C2.33636184,88 3,87.3283873 3,86.5 C3,85.6716127 2.33621371,85 1.51747976,85 Z" id="Shape"></path>
                        <path d="M70.5174797,85 L70.4825202,85 C69.6636382,85 69,85.6716127 69,86.5 C69,87.3285372 69.6637863,88 70.4825202,88 L70.5174797,88 C71.3362137,88 72,87.3283873 72,86.5 C72.0001481,85.6716127 71.3363618,85 70.5174797,85 Z" id="Shape"></path>
                        <path d="M65.287497,84.5600736 L46.1861335,84.5600736 L37.7124175,79.2327768 L37.7124175,65.3455391 L61.4000177,29.508876 C61.7490541,28.9807011 61.780707,28.3028221 61.482315,27.7442251 C61.1840941,27.185628 60.6042487,26.8372354 59.9732455,26.8372354 L44.3612202,26.8372354 L52.7096937,14.206927 C53.2828664,14.355256 53.8832433,14.4341471 54.5015854,14.4341471 C58.4629783,14.4341471 61.6857485,11.1965187 61.6857485,7.21724541 C61.6857485,3.2379721 58.4629783,0 54.5015854,0 C50.5401925,0 47.3174223,3.23762835 47.3174223,7.21690166 C47.3174223,9.3356172 48.2310766,11.2439565 49.6833421,12.5653393 L40.2499469,26.8368916 L12.0264123,26.8368916 C11.3954091,26.8368916 10.8155637,27.1854562 10.5173428,27.7438813 C10.219293,28.3024783 10.2509459,28.9803573 10.5998112,29.5085323 C10.6015222,29.5109385 10.5998112,29.5087042 10.6015222,29.5109385 L34.2874115,65.3451954 L34.2874115,79.232433 L25.8133532,84.5597298 L6.7123319,84.5597298 C5.76651148,84.5597298 5,85.3299062 5,86.2798649 C5,87.2299955 5.76668258,88 6.7123319,88 L65.2876681,88 C66.2333174,88 67,87.2298236 67,86.2798649 C67,85.33025 66.2331463,84.5600736 65.287497,84.5600736 Z M54.5015854,3.44044203 C56.5744172,3.44044203 58.2609136,5.13462384 58.2609136,7.21690166 C58.2609136,9.29917949 56.5744172,10.9933613 54.5015854,10.9933613 C52.4287536,10.9933613 50.7422572,9.29917949 50.7422572,7.21690166 C50.7422572,5.13462384 52.4287536,3.44044203 54.5015854,3.44044203 Z M19.1729342,36.2594781 L23.0072026,36.2594781 C23.953023,36.2594781 24.7195345,35.4893017 24.7195345,34.539343 C24.7195345,33.5893843 23.9528519,32.8192079 23.0072026,32.8192079 L16.898722,32.8192079 L15.2188984,30.2778493 L56.7807594,30.2778493 L48.1924088,43.2713317 L23.8075912,43.2713317 L19.1729342,36.2594781 Z M26.0814612,46.7114299 L45.9181966,46.7114299 L35.9999145,61.7165491 L26.0814612,46.7114299 Z M32.2691593,84.5600736 L35.9999145,82.2148255 L39.7304985,84.5600736 L32.2691593,84.5600736 Z" id="Shape"></path>
                        <path d="M27.5174798,33 L27.4825202,33 C26.6636382,33 26,33.6716127 26,34.5 C26,35.3283873 26.6637863,36 27.4825202,36 L27.5174798,36 C28.3363618,36 29,35.3283873 29,34.5 C29,33.6716127 28.3363618,33 27.5174798,33 Z" id="Shape"></path>
                    </g>
                </g>
            </g>
        </g>
    </g>
</svg>