<svg xmlns="http://www.w3.org/2000/svg" width="32" height="40" viewBox="0 0 32 40">
    <path fill="#FFFFFF" fill-rule="evenodd" d="M14.096 17.134a.98.98 0 0 0-.691.287l-2.2 2.262a.986.986 0 0 0 0 1.378l.077.078c.372.38.982.38 1.356 0l2.225-2.262a.989.989 0 0 0 0-1.38l-.103-.076a.92.92 0 0 0-.664-.287m.128-5.512c.847 3.143 3.296 5.633 6.394 6.474-3.334 2.237-10.282 7.037-14.22 11.025-.014-.017-.01-.01-.052-.052l-2.967-3.042c4.003-4.079 8.674-11.028 10.845-14.405m3.146-7.228l10.333 10.478a7.22 7.22 0 0 1-4.757 1.768c-4.055 0-7.316-3.311-7.316-7.436 0-1.842.656-3.513 1.74-4.81m5.576-2.626c4.05 0 7.315 3.316 7.315 7.436a7.486 7.486 0 0 1-1.407 4.394l-10.231-10.4a7.205 7.205 0 0 1 4.323-1.43m0-1.768c-4.924 0-8.959 4.04-9.055 9.022-.473.757-6.749 10.813-11.688 15.835l.025.026c-.067.051-.307.195-.46.598-.176.461-.035 1.238.46 1.741l1.15 1.171-1.38 1.404C.584 31.234-.045 32.862.002 34.399a5.776 5.776 0 0 0 1.765 3.952c2.076 2.009 5.7 2.473 8.39-.26l11.228-11.414c2.184-2.22 4.572-1.762 6.036-.312.733.724 1.206 1.706 1.228 2.756.023 1.05-.37 2.197-1.508 3.354l-5.193 5.278a.893.893 0 0 0 0 1.248.858.858 0 0 0 1.228 0l5.166-5.278c1.414-1.437 2.053-3.084 2.021-4.629-.032-1.543-.71-2.96-1.74-3.977a5.779 5.779 0 0 0-3.964-1.664c-1.512-.02-3.098.575-4.476 1.976L8.955 36.843c-2.098 2.132-4.502 1.67-5.986.234-.741-.718-1.22-1.697-1.253-2.73-.032-1.033.346-2.17 1.483-3.328l.077-.053 1.305-1.325.614.597c.49.498 1.164.687 1.637.547.412-.12.556-.397.614-.468l.05.052c4.816-4.898 14.88-11.473 15.628-11.96C28.03 18.31 32 14.211 32 9.203 32 4.138 27.926 0 22.946 0"/>
</svg>
