<?xml version="1.0" standalone="no"?>
<!DOCTYPE svg PUBLIC "-//W3C//DTD SVG 20010904//EN"
 "http://www.w3.org/TR/2001/REC-SVG-20010904/DTD/svg10.dtd">
<svg version="1.0" xmlns="http://www.w3.org/2000/svg"
 width="225.000000pt" height="225.000000pt" viewBox="0 0 225.000000 225.000000"
 preserveAspectRatio="xMidYMid meet">
<metadata>
Created by potrace 1.15, written by Peter Selinger 2001-2017
</metadata>
<g transform="translate(0.000000,225.000000) scale(0.100000,-0.100000)"
fill="#ffffff" stroke="none">
<path d="M530 1963 c-8 -2 -25 -9 -37 -15 -32 -16 -184 -204 -199 -247 -17
-46 -20 -1225 -4 -1283 14 -50 55 -97 105 -119 38 -17 82 -19 730 -19 650 0
692 2 730 19 48 22 79 54 100 103 13 32 15 120 15 655 -1 564 -2 621 -18 655
-26 58 -168 224 -206 242 -30 14 -103 16 -618 15 -320 0 -590 -3 -598 -6z
m1195 -133 l49 -50 -648 0 -648 0 42 50 42 50 557 0 557 0 49 -50z m-415 -610
l0 -90 167 0 168 0 -260 -260 -260 -260 -252 252 c-139 139 -253 256 -253 260
0 5 72 8 160 8 l160 0 0 90 0 90 185 0 185 0 0 -90z"/>
</g>
</svg>
