<?xml version="1.0" encoding="UTF-8"?>
<svg width="8px" height="11px" viewBox="0 0 8 11" version="1.1" xmlns="http://www.w3.org/2000/svg" xmlns:xlink="http://www.w3.org/1999/xlink">
    <!-- Generator: Sketch 51 (57462) - http://www.bohemiancoding.com/sketch -->
    <title>elements/bin</title>
    <desc>Created with Sketch.</desc>
    <defs></defs>
    <g id="Artist-Profile-Pages" stroke="none" stroke-width="1" fill="none" fill-rule="evenodd">
        <g id="Profile-Edit-Page/-Media" transform="translate(-661.000000, -381.000000)" fill="#FFFFFF">
            <g id="Edit-Block" transform="translate(443.000000, 129.000000)">
                <g id="Group" transform="translate(40.000000, 82.000000)">
                    <g id="daniel-radcliffe-theater-(1)" transform="translate(155.000000, 65.000000)">
                        <g id="Group-2" transform="translate(23.000000, 105.000000)">
                            <g id="elements/bin">
                                <g id="rubbish-bin-(1)">
                                    <path d="M0.932325283,10.4648547 C0.944464895,10.7639536 1.18304382,11 1.47318319,11 L6.52681681,11 C6.81695618,11 7.0555351,10.7639536 7.06767472,10.4648547 L7.42857143,2.60526316 L0.571428571,2.60526316 L0.932325283,10.4648547 Z M5.1431907,4.5574473 C5.1431907,4.43221152 5.24162425,4.33063742 5.36307304,4.33063742 L5.71475313,4.33063742 C5.83612292,4.33063742 5.93463547,4.43218435 5.93463547,4.5574473 L5.93463547,9.04781585 C5.93463547,9.17307881 5.83620192,9.27462574 5.71475313,9.27462574 L5.36307304,9.27462574 C5.24167692,9.27462574 5.1431907,9.17313314 5.1431907,9.04781585 L5.1431907,4.5574473 Z M3.60430394,4.5574473 C3.60430394,4.43221152 3.7027375,4.33063742 3.82415996,4.33063742 L4.17584004,4.33063742 C4.29720983,4.33063742 4.39569606,4.43218435 4.39569606,4.5574473 L4.39569606,9.04781585 C4.39569606,9.17307881 4.29728883,9.27462574 4.17584004,9.27462574 L3.82415996,9.27462574 C3.70276384,9.27462574 3.60430394,9.17313314 3.60430394,9.04781585 L3.60430394,4.5574473 Z M2.06536453,4.5574473 C2.06536453,4.43221152 2.16379808,4.33063742 2.28522054,4.33063742 L2.63692696,4.33063742 C2.75832308,4.33063742 2.85678297,4.43218435 2.85678297,4.5574473 L2.85678297,9.04781585 C2.85678297,9.17307881 2.75834941,9.27462574 2.63692696,9.27462574 L2.28522054,9.27462574 C2.16382442,9.27462574 2.06536453,9.17313314 2.06536453,9.04781585 L2.06536453,4.5574473 Z" id="Shape" fill-rule="nonzero"></path>
                                    <path d="M7.6610292,0.572576382 L5.33461214,0.572576382 L5.33461214,0.117138304 C5.33461214,0.0524605458 5.28397673,0 5.22149049,0 L2.77850951,0 C2.71604954,0 2.66541414,0.0524605458 2.66541414,0.117138304 L2.66541414,0.572549172 L0.338970803,0.572549172 C0.151748557,0.572549172 0,0.729713131 0,0.923583145 L0,2.02631579 L8,2.02631579 L8,0.923610355 C8,0.729740341 7.84825144,0.572576382 7.6610292,0.572576382 Z" id="Shape" fill-rule="nonzero"></path>
                                </g>
                            </g>
                        </g>
                    </g>
                </g>
            </g>
        </g>
    </g>
</svg>