<svg xmlns="http://www.w3.org/2000/svg" xmlns:xlink="http://www.w3.org/1999/xlink" width="13" height="13" viewBox="0 0 13 13">
    <defs>
        <rect id="a" width="1140" height="70" rx="5"/>
    </defs>
    <g fill="none" fill-rule="evenodd" transform="translate(-874 -16)">
        <mask id="b" fill="#fff">
            <use xlink:href="#a"/>
        </mask>
        <use fill="#FFF" xlink:href="#a"/>
        <rect width="1139" height="69" x=".5" y=".5" stroke="#EAEAEA" rx="5"/>
        <g mask="url(#b)">
            <g fill="#EC2552" fill-rule="nonzero">
                <path d="M885.477 17.016h-.61V16h-1.015v1.016h-6.704V16h-1.015v1.016h-.61c-.84 0-1.523.683-1.523 1.523v8.938c0 .84.683 1.523 1.523 1.523h9.954c.84 0 1.523-.683 1.523-1.523v-8.938c0-.84-.683-1.523-1.523-1.523zm.507 10.46c0 .28-.227.508-.507.508h-9.954a.508.508 0 0 1-.507-.507v-6.704h10.968v6.704zm0-7.718h-10.968v-1.219c0-.28.227-.508.507-.508h.61v1.016h1.015V18.03h6.704v1.016h1.015V18.03h.61c.28 0 .507.228.507.508v1.219z"/>
                <path d="M875.93 21.84h1.016v1.016h-1.016zM877.961 21.84h1.016v1.016h-1.016zM879.992 21.84h1.016v1.016h-1.016zM882.023 21.84h1.016v1.016h-1.016zM884.055 21.84h1.016v1.016h-1.016zM875.93 23.871h1.016v1.016h-1.016zM877.961 23.871h1.016v1.016h-1.016zM879.992 23.871h1.016v1.016h-1.016zM882.023 23.871h1.016v1.016h-1.016zM875.93 25.902h1.016v1.016h-1.016zM877.961 25.902h1.016v1.016h-1.016zM879.992 25.902h1.016v1.016h-1.016zM882.023 25.902h1.016v1.016h-1.016zM884.055 23.871h1.016v1.016h-1.016z"/>
            </g>
        </g>
    </g>
</svg>
