<?xml version="1.0" encoding="UTF-8"?>
<svg width="93px" height="74px" viewBox="0 0 93 74" version="1.1" xmlns="http://www.w3.org/2000/svg" xmlns:xlink="http://www.w3.org/1999/xlink">
    <!-- Generator: Sketch 49.1 (51147) - http://www.bohemiancoding.com/sketch -->
    <title>chat</title>
    <desc>Created with Sketch.</desc>
    <defs></defs>
    <g id="Symbols" stroke="none" stroke-width="1" fill="none" fill-rule="evenodd">
        <g id="magnifying-glass-finder-copy" transform="translate(-2.000000, -3.000000)" fill="#FFFFFF" fill-rule="nonzero">
            <g id="chat" transform="translate(2.000000, 3.000000)">
                <path d="M67.753216,0 L5.246966,0 C2.35368219,0 0,2.31139044 0,5.15250804 L0,41.978911 C0,44.8200286 2.35368219,47.1315978 5.246966,47.1315978 L9.30007479,47.1315978 L9.30007479,60.8412367 C9.30007479,61.714107 9.83549063,62.5013702 10.6569954,62.8355773 C10.9288891,62.9463839 11.2146141,63 11.4977912,63 C12.0699691,63 12.6319555,62.7805314 13.0525354,62.3676874 L28.5674013,47.1317765 L31.6801655,47.1317765 C32.8942237,47.1317765 33.8782459,46.1654355 33.8782459,44.9731919 C33.8782459,43.7807697 32.8938597,42.8144287 31.6801655,42.8144287 C31.6801655,42.8144287 27.5508028,42.8172882 27.507671,42.8215775 C26.9959139,42.8557131 26.4936204,43.0626713 26.1023409,43.4467413 L13.6962355,55.6299297 C13.6962355,55.6299297 13.6924137,44.8366496 13.6853161,44.7807101 C13.5861313,43.6787204 12.6448768,42.8144287 11.4970632,42.8144287 L5.246966,42.8144287 C4.77779467,42.8144287 4.39634274,42.4396521 4.39634274,41.9790897 L4.39634274,5.15250804 C4.39634274,4.69176695 4.77797667,4.31716907 5.246966,4.31716907 L67.753216,4.31716907 C68.2223873,4.31716907 68.6038393,4.69194567 68.6038393,5.15250804 L68.6038393,19.2812463 C68.6038393,20.4734898 69.5882255,21.4398308 70.8019196,21.4398308 C72.0156138,21.4398308 73,20.4734898 73,19.2812463 L73,5.15250804 C73,2.31139044 70.6463178,0 67.753216,0 Z" id="Shape"></path>
                <path d="M87.6803835,27 L43.319801,27 C40.386539,27 38,29.3134196 38,32.1572103 L38,57.3019867 C38,60.1455985 40.3863545,62.459197 43.319801,62.459197 L71.0921476,62.459197 L82.343976,73.3671323 C82.7703941,73.7805176 83.3403662,74 83.9203022,74 C84.2074102,74 84.4971014,73.9461579 84.7727694,73.8354329 C85.6053087,73.5009324 86.1485259,72.7133359 86.1485259,71.8393416 L86.1485259,62.4590181 L87.680199,62.4590181 C90.613461,62.4590181 93,60.1455985 93,57.3018078 L93,32.1570314 C93.0001845,29.3134196 90.61383,27 87.6803835,27 Z M88.5429991,57.3019867 C88.5429991,57.7629534 88.1560676,58.138059 87.680568,58.138059 L83.9208558,58.138059 C82.7480676,58.138059 81.7889498,59.0167041 81.7009353,60.1320038 C81.6952153,60.1792274 81.691525,66.6234596 81.691525,66.6234596 L73.5997296,58.7787973 C73.5912418,58.770569 73.582385,58.7628773 73.5738973,58.7546489 C73.5421604,58.7245975 73.5120842,58.6984814 73.4836686,58.6750485 C73.0913861,58.3416213 72.5789832,58.1378801 72.0165763,58.1378801 L43.319801,58.1378801 C42.8441169,58.1378801 42.4573699,57.7627745 42.4573699,57.3018078 L42.4573699,32.1570314 C42.4573699,31.6958858 42.8443015,31.3209591 43.319801,31.3209591 L87.680568,31.3209591 C88.1560676,31.3209591 88.5429991,31.6960647 88.5429991,32.1570314 L88.5429991,57.3019867 Z" id="Shape"></path>
                <path d="M66,43 C64.8960093,43 64,43.8960093 64,45 C64,46.1039907 64.8960093,47 66,47 C67.1041563,47 68,46.1039907 68,45 C68,43.8960093 67.1039907,43 66,43 Z" id="Shape"></path>
                <path d="M55.8218036,14 C55.8218036,14 16.1781964,14 16.1781964,14 C14.9753011,14 14,14.8953469 14,16 C14,17.1046531 14.9754814,18 16.1781964,18 L55.8218036,18 C57.0246989,18 58,17.1046531 58,16 C58,14.8953469 57.0246989,14 55.8218036,14 Z" id="Shape"></path>
                <path d="M31.7546221,29 L16.2453779,29 C15.005382,29 14,29.8953469 14,31 C14,32.1046531 15.0055679,33 16.2453779,33 L31.7546221,33 C32.9948039,33 34,32.1046531 34,31 C34,29.8953469 32.994618,29 31.7546221,29 Z" id="Shape"></path>
                <path d="M55,43 C53.8961749,43 53,43.8960093 53,45 C53,46.1039907 53.8961749,47 55,47 C56.1041563,47 57,46.1039907 57,45 C57,43.8960093 56.1041563,43 55,43 Z" id="Shape"></path>
                <path d="M77,43 C75.8960093,43 75,43.8960093 75,45 C75,46.1039907 75.8960093,47 77,47 C78.1041563,47 79,46.1039907 79,45 C79,43.8960093 78.1039907,43 77,43 Z" id="Shape"></path>
            </g>
        </g>
    </g>
</svg>