<?xml version="1.0" encoding="UTF-8"?>
<svg width="71px" height="69px" viewBox="0 0 71 69" version="1.1" xmlns="http://www.w3.org/2000/svg" xmlns:xlink="http://www.w3.org/1999/xlink">
    <!-- Generator: sketchtool 51 (57462) - http://www.bohemiancoding.com/sketch -->
    <title>294DB85D-97ED-4BE2-95FF-BAED72305ADC</title>
    <desc>Created with sketchtool.</desc>
    <defs></defs>
    <g id="Symbols" stroke="none" stroke-width="1" fill="none" fill-rule="evenodd">
        <g id="UI/icons/other/hand" fill="#FFFFFF" fill-rule="nonzero">
            <g id="handshake" transform="translate(4.000000, 3.000000)">
                <path d="M44.5348818,36.1994951 L35.3898674,30.6473161 C35.2784375,30.5795907 35.1502997,30.5337039 35.0209778,30.5136853 L32.1578738,30.0145195 C31.62822,29.9219659 31.1080383,30.2820412 31.0146319,30.8053852 C30.9212255,31.3287293 31.2852474,31.8427141 31.8149013,31.9350077 L34.5167147,32.4060954 L43.5017542,37.8611711 C43.9403696,38.1275228 44.5419859,37.9981817 44.8331245,37.5796104 C45.145444,37.1303612 45.0044134,36.4848255 44.5348818,36.1994951 Z" id="Shape"></path>
                <path d="M63.74685,36.3853356 C63.3924548,36.00696 62.7981227,35.9869599 62.4190576,36.3404605 L58.6109995,39.8929661 L41.1619813,22.7076888 L63.7027698,1.62165516 C64.0812088,1.26752959 64.1004939,0.674153646 63.7458482,0.296403044 C63.3912025,-0.081347558 62.79662,-0.100597589 62.418181,0.253402975 L39.1645948,22.0061876 C38.7811467,22.3648132 38.7731321,22.9893142 39.1471881,23.3578148 L40.6906231,24.8776922 L40.1979762,25.3119429 L29.8815688,24.4251915 C29.722404,24.4116915 29.5569779,24.4390665 29.4117134,24.5060666 L21.2377065,28.2220725 C21.2139132,28.2159475 21.1901199,28.2099475 21.16545,28.2055725 L16.4636397,27.3773212 L16.8438319,26.4071947 C17.0317991,25.9274439 16.7969966,25.386193 16.3178743,25.1950677 L1.28851141,19.1943082 C0.806634084,19.0016829 0.260139119,19.2358082 0.0675384637,19.716684 C-0.125187419,20.1974348 0.109114158,20.7431856 0.590866251,20.9354359 L14.7545281,26.5906949 L6.4078318,47.8818539 L1.25319711,46.059476 C0.764056567,45.8867257 0.227329384,46.1421011 0.0541390684,46.6303519 C-0.119051247,47.1184777 0.13704,47.6543535 0.626055317,47.8272288 L6.6377504,49.9524822 C7.10960948,50.1193574 7.6438321,49.8752321 7.82603883,49.4102313 L9.22095346,45.8519756 L12.8759829,47.8964789 L12.472874,48.5487299 C11.3306695,50.3966079 11.9073444,52.8276118 13.7587151,53.9678636 C14.7377475,54.5708645 15.9530852,54.7138648 17.0470769,54.3603642 C17.2225214,55.498366 17.8924911,56.5138676 18.8749047,57.1188686 C19.8539372,57.7218696 21.0691497,57.8648698 22.1632666,57.5113692 C22.3388363,58.649371 23.0085556,59.6647477 23.9909692,60.2698736 C24.9730071,60.8747496 26.1819582,61.0171248 27.2795816,60.6634992 C27.4554017,61.8010011 28.1249958,62.8160027 29.1071589,63.4208786 C30.5346328,64.300005 32.4240728,64.1686298 33.7107904,63.0921281 C34.0351309,62.8207527 34.3142641,62.4968772 34.5364186,62.1373766 L35.1772102,61.1008749 L35.7047958,61.4243755 C37.1341481,62.3010019 39.0230872,62.1660016 40.3078012,61.0871249 C40.6316407,60.8151245 40.9101478,60.490749 41.1316761,60.1308734 C41.5719778,59.4154973 41.7541845,58.613746 41.7060969,57.8332447 C42.00439,57.9048698 42.3096959,57.9433699 42.6177567,57.9433699 C43.9819905,57.9433699 45.272465,57.2252438 45.9863898,56.0654919 C46.4164227,55.3667408 46.6129054,54.5701145 46.5630647,53.7682383 C46.8606064,53.8394884 47.1652861,53.8777384 47.4723451,53.8777384 C48.8365789,53.8777384 50.1271786,53.1596123 50.8409782,51.9998604 C51.2713868,51.3006093 51.4677443,50.5034831 51.4175279,49.7009818 C51.7183255,49.7724819 52.0237566,49.8098569 52.3278102,49.8098569 C53.6544755,49.8098569 54.9517123,49.1431059 55.6956918,47.934479 C56.8345152,46.084351 56.2532069,43.6544721 54.3997073,42.5177203 L53.7560354,42.1229697 L55.9148408,39.8714661 L57.9341422,41.8602193 C58.288287,42.2088448 58.8719747,42.2165948 59.2352611,41.8778443 L63.7022689,37.7107127 C64.0810835,37.3570871 64.10112,36.7637112 63.74685,36.3853356 Z M17.5890637,51.69961 C16.9905991,52.6674865 15.7149015,52.968987 14.745136,52.371986 C13.7753704,51.7747351 13.4733205,50.501358 14.0715346,49.5333565 L19.3328635,41.0219679 C19.9200576,40.0719664 21.1801017,39.7613409 22.1422283,40.3287168 C23.1377909,40.9162178 23.4125411,42.2785949 22.8148279,43.2457215 L17.5890637,51.69961 Z M22.7050029,54.850615 C22.1067888,55.8184915 20.830966,56.120117 19.8613257,55.5229911 C18.9033315,54.9328651 18.5956463,53.6421131 19.1877243,52.6843615 L23.3966372,45.8752257 C23.9838312,44.9253492 25.2438753,44.6145987 26.206002,45.1819746 C27.2015645,45.7694755 27.4763147,47.1318527 26.8784763,48.0989792 L22.7050029,54.850615 Z M27.8215683,58.00162 C27.5315403,58.4704957 27.0759608,58.7987463 26.5389832,58.9257465 C26.0016299,59.0528717 25.4472456,58.9632465 24.9775154,58.6739961 C24.0196464,58.0838701 23.7119612,56.7929931 24.3040392,55.8353665 L27.4607865,50.7284834 C28.0479805,49.7784819 29.3081498,49.4678564 30.2701513,50.0352323 C31.2657138,50.6227332 31.5404641,51.9851104 30.9427508,52.952237 L27.8215683,58.00162 Z M35.0066497,57.8057447 L32.9376328,61.15275 C32.3464314,62.1090015 31.0533272,62.415877 30.093705,61.8250011 C29.1358361,61.2350002 28.8282762,59.9439981 29.4202289,58.9863716 L31.5246853,55.5818661 C32.1118794,54.6321146 33.3720487,54.3209891 34.3340502,54.88874 C35.3296127,55.476116 35.6043629,56.8386181 35.0066497,57.8057447 Z M52.1183037,41.1184681 L47.4620765,38.2625885 C47.0302903,37.9977131 46.4353321,38.1395884 46.1700992,38.570589 C45.9047411,39.0015897 46.0468749,39.5954657 46.478661,39.8602161 L53.4159162,44.1150979 C54.3866836,44.7105988 54.6912381,45.9833508 54.0947772,46.9524774 C53.498191,47.9214789 52.2229943,48.2254794 51.2521017,47.6301035 L43.8119309,43.0665962 C43.3700013,42.7953458 42.791448,42.933471 42.5199537,43.3745967 C42.2484594,43.8157224 42.3865859,44.3932233 42.8285154,44.6642237 L48.561453,48.1804794 C49.5205742,48.7687303 49.8305135,50.0591073 49.240314,51.0178589 C48.650991,51.9752354 47.3582624,52.2844859 46.3977637,51.695485 L41.2023047,48.5088549 C40.7602499,48.2377294 40.1818218,48.3757297 39.9103275,48.8168554 C39.6388332,49.2579811 39.7769597,49.835482 40.2188893,50.1064824 L43.7069898,52.2458608 C44.6659858,52.8342368 44.9760503,54.1243638 44.3858508,55.0832404 C43.7965278,56.0404919 42.5037993,56.3499924 41.5433005,55.7608664 C41.5433005,55.7608664 38.4757156,53.8812384 38.4470384,53.8674884 C38.0181325,53.6607381 37.4936777,53.8078633 37.2392144,54.221364 C36.9677201,54.6624897 37.1058466,55.2399906 37.5477762,55.510991 L38.8525266,56.3112423 C39.823294,56.9067433 40.1277233,58.1794953 39.5312624,59.1486218 C38.9419394,60.1059984 37.6492108,60.4152488 36.6887121,59.8262479 L36.1642573,59.5044974 L36.6059364,58.7898713 C37.1705894,57.8763698 37.3457834,56.751368 37.0865615,55.7033663 C36.8308459,54.6691147 36.1929345,53.8063633 35.2906668,53.2739875 C34.586635,52.8587368 33.7990762,52.6904865 33.0321799,52.7421116 C33.1761921,52.1246106 33.1769435,51.4738596 33.0226626,50.8499836 C32.766947,49.815732 32.1290356,48.9529806 31.2267679,48.4206047 C30.5227362,48.0052291 29.7351773,47.8369788 28.9682811,47.8886039 C29.3556113,46.2276012 28.6425631,44.4404734 27.1628691,43.567222 C26.4588373,43.1519713 25.6712784,42.9837211 24.9043822,43.0352212 C25.2917124,41.3742185 24.5786642,39.5870907 23.0989702,38.7138393 C21.2620008,37.6299625 18.8557449,38.2235885 17.7349543,40.0365914 L13.864157,46.2986014 L9.91221199,44.0888478 L15.765118,29.158574 L18.95192,29.7199499 C18.0455197,30.8437017 17.7906808,32.4258292 18.4293435,33.8259565 C19.0902969,35.2744588 20.5261611,36.1315852 22.0256411,36.1314602 C22.5717604,36.1314602 23.1263951,36.01771 23.6549825,35.7774596 L29.1559978,33.2764556 C29.621846,33.0647053 29.8337317,32.4995794 29.6214703,32.0345786 C29.4093341,31.5697029 28.8431783,31.3579525 28.3773302,31.5699529 L22.8761896,34.0708319 C21.839427,34.5423326 20.6113161,34.0837069 20.1389561,33.0485802 C19.6667214,32.0134536 20.1260576,30.7878266 21.1630707,30.3163259 L29.9658473,26.3144445 L40.4371617,27.2145709 C40.4640857,27.2169459 40.4910097,27.2180709 40.5178085,27.2180709 C40.7457234,27.2180709 40.9670013,27.1351958 41.1394403,26.9834456 L42.0308131,26.1978193 L54.5769049,38.553964 L52.1183037,41.1184681 Z" id="Shape"></path>
            </g>
        </g>
    </g>
</svg>