<?xml version="1.0" encoding="UTF-8"?>
<svg width="17px" height="8px" viewBox="0 0 17 8" version="1.1" xmlns="http://www.w3.org/2000/svg" xmlns:xlink="http://www.w3.org/1999/xlink">
    <!-- Generator: sketchtool 51 (57462) - http://www.bohemiancoding.com/sketch -->
    <title>1E08489E-AD06-43D8-B277-ACA64248A42B</title>
    <desc>Created with sketchtool.</desc>
    <defs></defs>
    <g id="Artist-Profile-Pages" stroke="none" stroke-width="1" fill="none" fill-rule="evenodd">
        <g id="Profile-Edit-Page/My-Bookings" transform="translate(-1000.000000, -1532.000000)" fill="#FFFFFF" fill-rule="nonzero">
            <g id="Group-7" transform="translate(0.000000, 1423.000000)">
                <g id="Group-5" transform="translate(705.000000, 32.000000)">
                    <g id="Group-4" transform="translate(295.000000, 73.000000)">
                        <g id="icon/mail" transform="translate(0.000000, 3.000000)">
                            <path d="M8.35176841,8.30631261 C7.97770591,8.30631261 7.60364341,8.17956261 7.31901841,7.92663614 L0.0965184096,1.50253319 C-0.0204815904,1.39872437 -0.0328565904,1.21748908 0.0689559096,1.09762143 C0.17189341,0.978327312 0.34908091,0.967430253 0.46608091,1.07009202 L7.68858091,7.49362143 C8.04801841,7.81307731 8.65551841,7.81307731 9.01439341,7.49362143 L16.2278934,1.08041555 C16.3443309,0.976606723 16.5215184,0.988077312 16.6250184,1.10794496 C16.7268309,1.22781261 16.7150184,1.40847437 16.5980184,1.51285672 L9.38451841,7.92606261 C9.09933091,8.17956261 8.72583091,8.30631261 8.35176841,8.30631261 Z" id="Shape"></path>
                        </g>
                    </g>
                </g>
            </g>
        </g>
    </g>
</svg>