<?xml version="1.0" encoding="UTF-8"?>
<svg width="71px" height="69px" viewBox="0 0 71 69" version="1.1" xmlns="http://www.w3.org/2000/svg" xmlns:xlink="http://www.w3.org/1999/xlink">
    <!-- Generator: sketchtool 51 (57462) - http://www.bohemiancoding.com/sketch -->
    <title>B2EA09AF-0815-46F3-9BF6-2D802298EBE9</title>
    <desc>Created with sketchtool.</desc>
    <defs></defs>
    <g id="Symbols" stroke="none" stroke-width="1" fill="none" fill-rule="evenodd">
        <g id="UI/icons/other/map" fill="#FFFFFF" fill-rule="nonzero">
            <g id="map-(1)" transform="translate(1.000000, 0.000000)">
                <path d="M67.6497832,20.6493281 L60.5030273,20.6493281 C60.6387363,19.755832 60.7080059,18.8488594 60.7080059,17.9375742 C60.7080059,8.05548047 52.6684277,0.0159023437 42.786334,0.0159023437 C32.9042402,0.0159023437 24.8646621,8.0553457 24.8646621,17.9374395 C24.8646621,18.8489941 24.9339316,19.7559668 25.0696406,20.6491934 L14.1414961,20.6491934 C14.1379922,20.6491934 14.134623,20.6491934 14.1311191,20.6491934 L1.3502168,20.6491934 C0.604558594,20.6491934 3.64944992e-16,21.253752 3.64944992e-16,21.9994102 L3.64944992e-16,67.6307812 C-0.000134765625,67.6766016 0.00229101563,67.7224219 0.00673828125,67.7681074 C0.00822070313,67.7830664 0.0111855469,67.7974863 0.0130722656,67.8124453 C0.0168457031,67.8412852 0.020484375,67.8702598 0.0262792969,67.8988301 C0.0300527344,67.917832 0.0353085938,67.9362949 0.039890625,67.9548926 C0.0456855469,67.9790156 0.0512109375,68.0031387 0.0583535156,68.0269922 C0.0640136719,68.0457246 0.0710214844,68.0637832 0.0774902344,68.0821113 C0.0857109375,68.1054258 0.0935273438,68.128875 0.102960938,68.1517852 C0.10996875,68.1684961 0.118189453,68.1845332 0.125736328,68.2011094 C0.136652344,68.2246934 0.147298828,68.2485469 0.159697266,68.2715918 C0.167783203,68.2865508 0.176947266,68.3007012 0.185572266,68.3155254 C0.199183594,68.3388398 0.212525391,68.3622891 0.227753906,68.3847949 C0.237726563,68.3997539 0.248912109,68.4136348 0.259558594,68.4281895 C0.274921875,68.4492129 0.289611328,68.4705059 0.306457031,68.4908555 C0.322628906,68.5105312 0.340417969,68.5287246 0.357802734,68.5475918 C0.370201172,68.5610684 0.381521484,68.5752187 0.394728516,68.5884258 C0.405779297,68.5994766 0.417908203,68.6090449 0.429228516,68.6195566 C0.450117188,68.6390977 0.470871094,68.659043 0.492837891,68.6772363 C0.512783203,68.6936777 0.533806641,68.7080977 0.554425781,68.7233262 C0.56925,68.7342422 0.583535156,68.745832 0.599033203,68.7560742 C0.621,68.7707637 0.643910156,68.7837012 0.666550781,68.7971777 C0.681914063,68.806207 0.696738281,68.8159102 0.712505859,68.8242656 C0.734742188,68.836125 0.757652344,68.8463672 0.780427734,68.8568789 C0.797677734,68.8649648 0.814658203,68.8735898 0.832447266,68.881002 C0.854144531,68.8900312 0.876380859,68.8973086 0.898347656,68.905125 C0.918023438,68.9121328 0.937429688,68.9196797 0.957509766,68.9257441 C0.979207031,68.9323477 1.00130859,68.9371992 1.02314063,68.9425898 C1.0440293,68.9478457 1.06464844,68.9536406 1.08580664,68.9578184 C1.11060352,68.9626699 1.13566992,68.9656348 1.16060156,68.9692734 C1.17933398,68.9719687 1.19779688,68.9754727 1.21679883,68.9773594 C1.26113672,68.9816719 1.30560938,68.9840977 1.3502168,68.9840977 L38.5921582,68.9840977 C38.5925625,68.9840977 38.5931016,68.9840977 38.5935059,68.9840977 C38.5939102,68.9840977 38.5944492,68.9840977 38.5948535,68.9840977 L67.6497832,68.9840977 C68.3953066,68.9840977 69,68.3796738 69,67.6338809 L69,21.9995449 C69,21.2538867 68.3954414,20.6493281 67.6497832,20.6493281 Z M42.7864687,2.71620117 C51.1795371,2.71620117 58.007707,9.54437109 58.007707,17.9374395 C58.007707,19.2036973 57.8527266,20.4590391 57.5465391,21.6697734 C57.108416,23.4101367 55.937168,25.6386211 55.0265566,26.9864121 C55.0194141,26.9965195 55.0124062,27.006627 55.0055332,27.0170039 L42.7864687,45.155918 L35.328,34.0851914 C35.3250352,34.0806094 35.3218008,34.0760273 35.3188359,34.0715801 L34.5677871,32.9566641 L30.5676738,27.0170039 C30.5529844,26.9950371 30.5373516,26.9732051 30.5209102,26.9520469 C29.3469668,25.3577695 28.5077812,23.5806152 28.0262637,21.668291 C27.7203457,20.4587695 27.5653652,19.2035625 27.5653652,17.9373047 C27.5650957,9.54437109 34.3932656,2.71620117 42.7864687,2.71620117 Z M25.6983223,23.3498965 L25.6983223,23.3497617 C26.2875176,25.2162656 27.175084,26.9632324 28.3468711,28.5542754 L32.3279824,34.4656348 L32.4546621,34.6537676 L30.5764336,36.5301094 L17.3962207,23.3500312 L25.6983223,23.3500312 L25.6983223,23.3498965 Z M14.1362402,23.9086348 L28.6658613,38.4382559 L17.8488984,49.2438984 L3.3249375,34.720207 L14.1362402,23.9086348 Z M2.70029883,23.3497617 L10.8763945,23.3497617 L2.70029883,31.5257227 L2.70029883,23.3497617 Z M2.70029883,37.9145566 L15.9383262,51.152584 L2.70029883,64.3767305 L2.70029883,37.9145566 Z M66.2997012,66.2837988 L41.8532168,66.2837988 L57.0950742,51.0419414 L66.2997012,60.2467031 L66.2997012,66.2837988 Z M66.2997012,56.4277148 L59.0045684,49.1324473 L66.2997012,41.8371797 L66.2997012,56.4277148 Z M66.2997012,38.0183262 L38.0342285,66.2837988 L4.61208398,66.2837988 L18.7999395,52.1107676 C18.8010176,52.1096895 18.8022305,52.1088809 18.8033086,52.1078027 C18.8043867,52.1067246 18.8051953,52.1056465 18.8062734,52.1045684 L33.9917988,36.9349453 L41.6667012,48.3269531 C41.9176348,48.6994453 42.3374297,48.922752 42.7866035,48.922752 C43.2356426,48.922752 43.6554375,48.6994453 43.9063711,48.3269531 L57.2274141,28.5521191 C57.2329395,28.544168 57.2385996,28.536082 57.2439902,28.5279961 C58.0915312,27.279123 59.2011914,25.2835137 59.8593867,23.3494922 L66.2997012,23.3494922 L66.2997012,38.0183262 Z" id="Shape"></path>
                <path d="M51.0256348,16.693418 C50.5950586,12.4538262 47.0530137,9.25678125 42.7866035,9.25678125 C38.2200703,9.25678125 34.5049863,12.9718652 34.5049863,17.5383984 C34.5049863,19.4873789 35.1957949,21.3805664 36.4493848,22.8687832 C38.027625,24.7444512 40.3376426,25.8202852 42.7866035,25.8202852 C44.3071641,25.8202852 45.794168,25.4041289 47.0868398,24.6169629 C47.723877,24.2292422 47.9257559,23.3985469 47.5379004,22.7615098 C47.1503145,22.1246074 46.3196191,21.9225937 45.682582,22.3104492 C44.8129395,22.8399434 43.8116309,23.1198516 42.7866035,23.1198516 C41.1362637,23.1198516 39.5795859,22.394543 38.5149375,21.1296328 C37.6703613,20.1271113 37.2052852,18.8518242 37.2052852,17.5385332 C37.2052852,14.4608906 39.7090957,11.9572148 42.7866035,11.9572148 C45.6620977,11.9572148 48.0492012,14.1106348 48.339082,16.9661836 C48.4145508,17.7079336 49.0750371,18.2500957 49.8188086,18.1730098 C50.5605586,18.0976758 51.1009688,17.4353027 51.0256348,16.693418 Z" id="Shape"></path>
                <path d="M49.0533398,19.2865781 C48.3078164,19.2865781 47.703123,19.891002 47.703123,20.6367949 L47.703123,20.663748 C47.703123,21.4094062 48.3076816,22.0139648 49.0533398,22.0139648 C49.798998,22.0139648 50.4035566,21.409541 50.4035566,20.663748 L50.4035566,20.6367949 C50.4034219,19.8911367 49.7988633,19.2865781 49.0533398,19.2865781 Z" id="Shape"></path>
            </g>
        </g>
    </g>
</svg>