<?xml version="1.0" encoding="UTF-8"?>
<svg width="36px" height="26px" viewBox="0 0 36 26" version="1.1" xmlns="http://www.w3.org/2000/svg" xmlns:xlink="http://www.w3.org/1999/xlink">
    <!-- Generator: sketchtool 51 (57462) - http://www.bohemiancoding.com/sketch -->
    <title>55E43326-600F-4C95-9CB7-418AA03F6F5A</title>
    <desc>Created with sketchtool.</desc>
    <defs></defs>
    <g id="help-page" stroke="none" stroke-width="1" fill="none" fill-rule="evenodd">
        <g id="Contact-Us" transform="translate(-929.000000, -289.000000)">
            <g id="Group-6" transform="translate(929.000000, 136.000000)" fill="#FFFFFF">
                <g id="facebook-logo">
                    <g id="Group-4">
                        <g id="icon/mail2" transform="translate(0.000000, 153.000000)">
                            <g id="icon/mail">
                                <g id="Group" transform="translate(5.781250, 12.617647)" fill-rule="nonzero">
                                    <path d="M23.2510312,7.46735294 C23.1088125,7.46735294 22.9665938,7.41573529 22.8555938,7.31135294 L16.2025313,1.11952941 C15.970125,0.903882353 15.9585625,0.540264706 16.1770938,0.309705882 C16.395625,0.0768529412 16.7598438,0.0665294118 16.9945625,0.284470588 L23.647625,6.47629412 C23.8800313,6.69194118 23.8915937,7.05555882 23.6730625,7.28611765 C23.5585937,7.40655882 23.4059687,7.46735294 23.2510312,7.46735294 Z" id="Shape"></path>
                                    <path d="M1.0429375,7.46735294 C0.88915625,7.46735294 0.735375,7.40655882 0.62090625,7.28611765 C0.402375,7.05555882 0.4139375,6.69194118 0.64634375,6.47629412 L7.30171875,0.284470588 C7.53528125,0.0688235294 7.9018125,0.078 8.1191875,0.309705882 C8.33771875,0.540264706 8.32615625,0.903882353 8.09375,1.11952941 L1.438375,7.31135294 C1.327375,7.41573529 1.18515625,7.46735294 1.0429375,7.46735294 Z" id="Shape"></path>
                                </g>
                                <path d="M32.967,25.8420882 L2.890625,25.8420882 C1.2973125,25.8420882 0,24.5562353 0,22.9744412 L0,3.42052941 C0,1.83873529 1.2973125,0.552882353 2.890625,0.552882353 L32.967,0.552882353 C34.5603125,0.552882353 35.857625,1.83873529 35.857625,3.42052941 L35.857625,22.9744412 C35.857625,24.5562353 34.5603125,25.8420882 32.967,25.8420882 Z M2.890625,1.69994118 C1.93440625,1.69994118 1.15625,2.47191176 1.15625,3.42052941 L1.15625,22.9744412 C1.15625,23.9230588 1.93440625,24.6950294 2.890625,24.6950294 L32.967,24.6950294 C33.9232187,24.6950294 34.701375,23.9230588 34.701375,22.9744412 L34.701375,3.42052941 C34.701375,2.47191176 33.9232187,1.69994118 32.967,1.69994118 L2.890625,1.69994118 Z" id="Shape" fill-rule="nonzero"></path>
                                <path d="M17.9288125,16.0794706 C17.1599063,16.0794706 16.391,15.8259706 15.8059375,15.3201176 L0.9596875,2.47191176 C0.7191875,2.26429412 0.69375,1.90182353 0.90303125,1.66208824 C1.114625,1.4235 1.47884375,1.40170588 1.71934375,1.60702941 L16.5655938,14.4540882 C17.3044375,15.093 18.5531875,15.093 19.290875,14.4540882 L34.118625,1.62767647 C34.3579688,1.42005882 34.7221875,1.443 34.9349375,1.68273529 C35.1442188,1.92247059 35.1199375,2.28379412 34.8794375,2.49255882 L20.0516875,15.3189706 C19.4654688,15.8259706 18.6977188,16.0794706 17.9288125,16.0794706 Z" id="Shape" fill-rule="nonzero"></path>
                            </g>
                        </g>
                    </g>
                </g>
            </g>
        </g>
    </g>
</svg>