<?xml version="1.0" encoding="UTF-8"?>
<svg width="32px" height="41px" viewBox="0 0 32 41" version="1.1" xmlns="http://www.w3.org/2000/svg" xmlns:xlink="http://www.w3.org/1999/xlink">
    <!-- Generator: sketchtool 51 (57462) - http://www.bohemiancoding.com/sketch -->
    <title>1AD2EDC1-2D64-4968-973B-4561F400255E</title>
    <desc>Created with sketchtool.</desc>
    <defs></defs>
    <g id="help-page" stroke="none" stroke-width="1" fill="none" fill-rule="evenodd">
        <g id="Contact-Us" transform="translate(-930.000000, -198.000000)">
            <g id="Group-6" transform="translate(929.000000, 136.000000)" fill="#FFFFFF">
                <g id="facebook-logo">
                    <g id="Group-4">
                        <g id="placeholder-(1)" transform="translate(1.000000, 62.000000)">
                            <g id="Shape">
                                <path d="M3.55314421,24.7597161 C2.00673645,21.6483643 1.22273534,18.6444717 1.22273534,15.8318584 C1.22265385,7.76511752 7.89631969,1.2023263 16.0995252,1.2023263 C20.9719686,1.2023263 25.5427416,3.55497212 28.3265526,7.49554769 C28.5191915,7.76824273 28.9002318,7.83579546 29.1773743,7.64635935 C29.4546798,7.45692324 29.5232931,7.08237824 29.3307357,6.8096832 C26.3185123,2.54560781 21.3722403,0 16.0995252,0 C7.2222466,0 0,7.10217127 0,15.8318584 C0,18.8290998 0.825886215,22.0104885 2.45467888,25.2877172 C2.56069545,25.5011133 2.77818833,25.625 3.00440048,25.625 C3.0944453,25.625 3.1860384,25.6053672 3.27233475,25.563858 C3.57563505,25.4180947 3.70137184,25.0580539 3.55314421,24.7597161 Z" fill-rule="nonzero"></path>
                                <path d="M30.4338333,9.30470519 C30.2894736,9.00923057 29.9300965,8.88529121 29.6312831,9.02799967 C29.3323896,9.17070812 29.2070161,9.52589537 29.3512957,9.82136999 C30.3112638,11.786977 30.797937,13.8990939 30.797937,16.098879 C30.797937,18.8911972 30.020141,21.873899 28.4861789,24.9639093 C27.2470247,27.4598818 25.5158297,30.02903 23.3405003,32.5998413 C20.294927,36.1991513 17.2129834,38.8009276 16.1729045,39.6433985 C14.6529618,38.4106572 8.76866136,33.4116639 4.95963188,26.9837646 C4.7917997,26.7005651 4.42361034,26.6056109 4.13729425,26.7714442 C3.85089804,26.9372774 3.75476505,27.3012553 3.92251712,27.5843755 C8.42498591,35.1824525 15.5056614,40.6467926 15.8048754,40.8756647 C15.9131051,40.9585813 16.0428846,41 16.1726642,41 C16.3023636,41 16.4322233,40.9585813 16.5403729,40.8758231 C16.6979509,40.7552891 20.4420105,37.8730059 24.2465537,33.3810157 C26.487574,30.7350488 28.2750869,28.0833008 29.5592634,25.4995016 C31.1787839,22.2408863 32,19.078017 32,16.098879 C32,13.7186096 31.473031,11.4328193 30.4338333,9.30470519 Z" fill-rule="nonzero"></path>
                                <path d="M10.8696252,11.8362389 C10.571241,11.6693724 10.1808317,11.7543436 9.99762668,12.0257899 C9.3188892,13.0312181 8.96,14.1893637 8.96,15.3749616 C8.96,18.9074556 12.1181743,21.78125 16.0000423,21.78125 C19.8819947,21.78125 23.0400845,18.9074556 23.04,15.3750384 C23.04,11.8425444 19.8818257,8.96875 15.9999577,8.96875 C14.5207123,8.96875 13.105014,9.38168685 11.9058998,10.1628834 C11.6212053,10.3483589 11.5557145,10.7086983 11.7594541,10.9677642 C11.9632781,11.2268302 12.3591802,11.2864254 12.6439592,11.1009498 C13.6264892,10.4608592 14.7869849,10.1224356 15.9999577,10.1224356 C19.1827227,10.1224356 21.772015,12.4786363 21.772015,15.3748847 C21.772015,18.271133 19.1827227,20.6273337 15.9999577,20.6273337 C12.8171928,20.6273337 10.2279005,18.2710561 10.2279005,15.3748847 C10.2279005,14.4025991 10.521806,13.4533057 11.077928,12.629662 C11.261133,12.3582925 11.1679249,12.0029515 10.8696252,11.8362389 Z" fill-rule="nonzero"></path>
                            </g>
                        </g>
                    </g>
                </g>
            </g>
        </g>
    </g>
</svg>