<?xml version="1.0" encoding="UTF-8"?>
<svg width="90px" height="86px" viewBox="0 0 90 86" version="1.1" xmlns="http://www.w3.org/2000/svg" xmlns:xlink="http://www.w3.org/1999/xlink">
    <!-- Generator: Sketch 49.1 (51147) - http://www.bohemiancoding.com/sketch -->
    <title>rock-and-roll</title>
    <desc>Created with Sketch.</desc>
    <defs></defs>
    <g id="Symbols" stroke="none" stroke-width="1" fill="none" fill-rule="evenodd">
        <g id="magnifying-glass-finder-copy-2" transform="translate(-1.000000, 8.000000)" fill="#FFFFFF" fill-rule="nonzero">
            <g id="rock-and-roll" transform="translate(1.000000, -8.000000)">
                <path d="M38.8148947,60.0331202 C38.0061864,59.8614875 37.2103575,60.3738552 37.0375335,61.1778348 C37.0343886,61.1919762 37.0291469,61.2189195 37.0261517,61.2354426 C36.8736952,62.0395711 37.4032494,62.8163098 38.212407,62.9723125 C38.3090027,62.9909197 38.4048497,63 38.4994985,63 C39.2020264,63 39.8290749,62.5060907 39.9680529,61.7948493 C39.9689515,61.7906813 39.9704491,61.7824941 39.9716472,61.775349 C40.1290458,60.9800031 39.6156657,60.2031156 38.8148947,60.0331202 Z" id="Shape"></path>
                <path d="M44.5146309,77 L44.4853691,77 C43.6649998,77 43,77.67155 43,78.5 C43,79.32845 43.6649998,80 44.4853691,80 L44.5146309,80 C45.3348517,80 46,79.32845 46,78.5 C46,77.67155 45.3348517,77 44.5146309,77 Z" id="Shape"></path>
                <path d="M89.9138916,32.7203666 C89.7291454,32.1505244 89.2684225,31.7137569 88.6904534,31.560765 L62.844969,24.7230105 L62.844969,16.8368732 C62.844969,13.5085926 60.1446158,10.8007403 56.8253365,10.8007403 C55.6096326,10.8007403 54.4777765,11.1652419 53.530315,11.7891954 L46.4779669,0.80831938 C46.1543535,0.304573896 45.5976539,0 45.0001731,0 C44.4026923,0 43.8459927,0.304397638 43.5223792,0.808143122 L32.7925095,17.5149379 C32.3013764,17.3846832 31.7859854,17.3145325 31.2545984,17.3145325 C27.9354948,17.3145325 25.2351416,20.0223848 25.2351416,23.3506654 L25.2351416,25.2308099 L1.30954122,31.560765 C0.731572119,31.7135807 0.270849184,32.1503481 0.0861029789,32.7203666 C-0.0986432265,33.2902089 0.018075594,33.9152199 0.396181291,34.3794836 L18.0913873,56.120208 L16.519902,84.1381863 C16.4865035,84.7365824 16.7580857,85.3108311 17.2416602,85.6631709 C17.5464651,85.885256 17.909102,85.9998237 18.2750788,85.9998237 C18.4895321,85.9998237 18.7052158,85.9605182 18.9110558,85.8803208 L31.5576454,80.9569049 L31.5576454,84.2372433 C31.5576454,85.2107165 32.3447943,85.9998237 33.315459,85.9998237 L53.641233,85.9998237 C54.6120734,85.9998237 55.3990466,85.2107165 55.3990466,84.2372433 L55.3990466,79.7722746 L71.0889389,85.880497 C71.2947788,85.9606945 71.5102868,86 71.7249158,86 C72.0908926,86 72.4535295,85.8854323 72.7583344,85.6633471 C73.2417331,85.3110073 73.5136669,84.7367586 73.4800926,84.1383626 L71.9086073,56.1205605 L89.6039891,34.3796598 C89.981919,33.9152199 90.0986378,33.2902089 89.9138916,32.7203666 Z M54.3215068,16.8368732 C54.3215068,15.4523663 55.4447497,14.3259011 56.8255123,14.3259011 C58.2062748,14.3259011 59.3293419,15.4523663 59.3293419,16.8368732 L59.3293419,39.0721777 C59.1370371,39.0536706 58.9424471,39.0432713 58.7453962,39.0432713 L54.3215068,39.0432713 L54.3215068,16.8368732 Z M44.9999973,5.01806645 L51.2049034,14.6794748 C50.9479111,15.3499603 50.8057039,16.0768485 50.8057039,16.8370494 L50.8057039,30.4688464 C50.0426371,30.1172116 49.1950194,29.9196263 48.3016985,29.9196263 C46.6382795,29.9196263 45.1302513,30.5998061 44.0397038,31.6973649 C42.9489804,30.5999824 41.4413037,29.9199788 39.777709,29.9199788 C38.8845639,29.9199788 38.037122,30.1175641 37.2742309,30.4690226 L37.2742309,23.3506654 C37.2742309,21.829206 36.7085665,20.43853 35.7786831,19.375694 L44.9999973,5.01806645 Z M45.7976931,39.5926677 L45.7976931,35.9557592 C45.7976931,34.5712523 46.9211117,33.4447872 48.3018743,33.4447872 C49.6826369,33.4447872 50.8058797,34.5712523 50.8058797,35.9557592 L50.8058797,39.0436239 L48.3016985,39.0436239 L48.3016985,39.0434476 C47.4083777,39.0434476 46.56076,39.2410329 45.7976931,39.5926677 Z M42.2818902,35.955583 L42.2818902,45.0795805 L42.2818902,49.4447872 C42.2818902,50.8289416 41.1584715,51.9552305 39.777709,51.9552305 C38.3971222,51.9552305 37.2742309,50.8291178 37.2742309,49.4447872 L37.2742309,41.6548868 L37.2742309,35.955583 C37.2742309,34.5712523 38.3974738,33.4451397 39.7780606,33.4451397 C41.1588231,33.4451397 42.2818902,34.5714286 42.2818902,35.955583 Z M31.5576454,77.1754649 L20.1831854,81.6035957 L21.6397098,55.6349696 C21.6643191,55.195382 21.5240456,54.7626685 21.2464869,54.4216092 L4.84555898,34.2710849 L25.2349658,28.8767075 L25.2349658,40.9470345 L25.2349658,55.3404424 C25.2349658,60.9279986 27.6180337,66.1492906 31.5576454,69.8343174 L31.5576454,77.1754649 Z M52.80592,69.6159337 C52.8029317,69.61752 52.8001192,69.6192826 52.7971309,69.620869 C52.7966036,69.6210452 52.7960762,69.6213977 52.7955489,69.6217502 C52.7932637,69.622984 52.7915059,69.6245704 52.7892208,69.6256279 C52.7414082,69.6522429 52.6946504,69.6809729 52.6496504,69.7118181 C52.628205,69.7264475 52.6085175,69.7426633 52.5877753,69.758174 C52.5631659,69.7765048 52.5385565,69.7943069 52.5150018,69.8138715 C52.4886346,69.83608 52.4638495,69.8598749 52.4387127,69.8834934 C52.4227166,69.8986516 52.4060174,69.9129285 52.3907244,69.9286155 C52.3655877,69.9543492 52.342033,69.9814929 52.3184783,70.0086366 C52.3045916,70.0244999 52.2901775,70.0398343 52.2769939,70.0562263 C52.2559001,70.0823125 52.23674,70.1094562 52.2170524,70.1366 C52.2029899,70.1561646 52.1882243,70.175553 52.1748649,70.1958227 C52.1590446,70.21997 52.1448063,70.2448224 52.1302165,70.2694985 C52.115275,70.2947034 52.1001578,70.3195558 52.0866227,70.3454658 C52.0753727,70.3666167 52.0658805,70.3882965 52.0556852,70.4097999 C52.0410953,70.4404688 52.0265055,70.4709615 52.0136734,70.5023354 C52.005939,70.5213713 51.9996109,70.5409359 51.9925797,70.5603243 C51.9800992,70.5945184 51.9674429,70.6287124 51.9570718,70.6637878 C51.9510953,70.6842337 51.9465249,70.7050322 51.9410757,70.7258306 C51.9324624,70.7596722 51.9233218,70.7935137 51.9166421,70.8282365 C51.9108413,70.8571429 51.9075015,70.8864017 51.9032827,70.9154843 C51.8995913,70.9422755 51.8946694,70.9687142 51.8920327,70.9958579 C51.8871108,71.0475015 51.8846499,71.0996739 51.8841226,71.1520226 C51.8841226,71.1569578 51.8834194,71.161893 51.8834194,71.1670045 L51.8834194,71.1692958 C51.8834194,71.1733498 51.8834194,71.17758 51.8834194,71.1818102 L51.8834194,82.4744866 L35.0732726,82.4744866 L35.0732726,80.5257777 L39.7854434,80.5257777 C40.756108,80.5257777 41.5432569,79.7366705 41.5432569,78.7631973 C41.5432569,77.7897242 40.756108,77.0006169 39.7854434,77.0006169 L35.0732726,77.0006169 L35.0732726,72.4587997 C36.0766325,73.047149 37.1383519,73.5545959 38.2547393,73.9638671 C38.4540754,74.0370142 38.657806,74.0715608 38.8583725,74.0715608 C39.5753847,74.0715608 40.248803,73.6282718 40.5094868,72.9138979 C40.8427682,71.9996475 40.3739594,70.9875738 39.4623572,70.6532123 C33.0554784,68.3036926 28.7507687,62.1498193 28.7507687,55.3402661 L28.7507687,40.9468582 L28.7507687,23.3506654 C28.7507687,21.9661585 29.8741874,20.8396933 31.2547742,20.8396933 C32.6355367,20.8396933 33.7587796,21.9661585 33.7587796,23.3506654 L33.7587796,35.9554067 L33.7587796,41.6547105 L33.7587796,49.4446109 C33.7587796,52.525249 36.0731169,55.0723539 39.0497984,55.4343879 C38.7281185,56.2189125 39.0091929,57.1433859 39.752748,57.6027144 C40.0401506,57.7802062 40.3584906,57.8648101 40.6727877,57.8648101 C41.2627099,57.8648101 41.8392727,57.566934 42.1711479,57.0261743 C44.4104266,53.3801005 48.4542767,51.1151846 52.7245332,51.1151846 L54.483753,51.1151846 C55.4544177,51.1151846 56.2415666,50.3260774 56.2415666,49.3526042 C56.2415666,48.379131 55.4544177,47.5900238 54.483753,47.5900238 L48.3016985,47.5900238 C46.920936,47.5900238 45.7976931,46.4635586 45.7976931,45.0790517 C45.7976931,43.6947211 46.9211117,42.5684322 48.3016985,42.5684322 L58.7453962,42.5684322 C59.2407481,42.5684322 59.7016468,42.7152551 60.0908267,42.965189 C60.1124478,42.980171 60.1352994,42.9937428 60.1577994,43.0078435 C60.8161006,43.4606504 61.2494017,44.2197938 61.2494017,45.0790517 L61.2494017,55.3400899 C61.2494017,61.276637 58.0144974,66.7455715 52.80592,69.6159337 Z M68.753332,54.4217855 C68.4757732,54.7628448 68.3354997,55.1957346 68.3601091,55.6351459 L69.8166334,81.6035957 L55.3988708,75.9906583 L55.3988708,72.1753768 C61.2010618,68.568961 64.764853,62.2139773 64.764853,55.3402661 L64.764853,45.079228 C64.764853,43.3381511 64.0248135,41.7676919 62.8447932,40.6650216 L62.8447932,28.3687318 L85.1542599,34.2710849 L68.753332,54.4217855 Z" id="Shape"></path>
            </g>
        </g>
    </g>
</svg>