<?xml version="1.0" encoding="UTF-8"?>
<svg width="71px" height="69px" viewBox="0 0 71 69" version="1.1" xmlns="http://www.w3.org/2000/svg" xmlns:xlink="http://www.w3.org/1999/xlink">
    <!-- Generator: sketchtool 51 (57462) - http://www.bohemiancoding.com/sketch -->
    <title>3D50D60D-DFCD-4517-A55B-1CF215639332</title>
    <desc>Created with sketchtool.</desc>
    <defs></defs>
    <g id="Symbols" stroke="none" stroke-width="1" fill="none" fill-rule="evenodd">
        <g id="UI/icons/other/save" fill="#FFFFFF" fill-rule="nonzero">
            <g id="connection" transform="translate(2.000000, 0.000000)">
                <path d="M52.7046467,36.2779008 L45.3510598,26.9172456 C47.9622289,24.2403451 49.5390697,20.7238688 49.8010505,16.9935689 L61.1877247,16.9935689 L61.1877247,18.2396927 C58.5519152,18.7813317 56.6591398,21.09983 56.656166,23.7906077 C56.656874,26.9188032 59.193414,29.4542403 62.3217473,29.4536739 C65.4500805,29.4531074 67.9856292,26.9165375 67.9850628,23.788342 C67.9844964,21.0971395 66.0904464,18.7779332 63.4535041,18.2396927 L63.4535041,15.8607292 C63.4535041,15.2351184 62.9462527,14.7278894 62.3206144,14.7278894 L49.8010505,14.7278894 C49.5795706,11.5892151 48.4234566,8.58860569 46.4816837,6.11264271 L48.0620648,4.5323312 L61.3961764,4.5323312 C62.0218147,6.30196857 63.9637293,7.22933954 65.7333029,6.60358716 C67.5030182,5.97797638 68.4304301,4.03614737 67.8046501,2.26665161 C67.1788702,0.49715585 65.2372389,-0.430356732 63.4676652,0.195254045 C62.4997526,0.537371663 61.7384507,1.29878161 61.396318,2.26651001 L47.5931901,2.26651001 C47.2926911,2.26651001 47.0046539,2.3860246 46.7922371,2.59843207 L44.9626203,4.42796833 C38.6668691,-1.63499025 28.6478759,-1.44651403 22.5845087,4.84895992 C20.0074679,7.52472752 18.4538513,11.021804 18.1958357,14.7277478 L8.67956237,14.7277478 L4.97600438,6.39811834 C6.63158104,5.52682294 7.26741538,3.47864859 6.39622321,1.82314483 C5.52503104,0.167641075 3.47662488,-0.468023655 1.82104822,0.403130147 C0.165613174,1.27428395 -0.470221161,3.3224583 0.400971006,4.97796205 C0.858800049,5.84798302 1.67221484,6.47628429 2.62978985,6.69931212 L6.9064484,16.3216533 C7.08856042,16.7304669 7.49441815,16.9937106 7.94190957,16.9934273 L18.1956941,16.9934273 C18.4565419,20.6808209 20.0029364,24.1597719 22.5652496,26.8242111 L13.0013949,36.3876446 C6.81737495,35.4611233 1.05309063,39.7228666 0.12652848,45.9066142 C-0.80003367,52.0903618 3.46189732,57.8543923 9.64591727,58.7809137 C9.83256084,58.8089515 10.0199125,58.8321747 10.2076889,58.8507249 L10.2076889,64.5726987 C10.2076889,65.1983095 10.7149403,65.7055385 11.3405786,65.7055385 L21.7450375,65.7055385 C22.3706758,67.4751759 24.3125903,68.4025469 26.082164,67.7767945 C27.8517377,67.1510421 28.7792911,65.2093547 28.1535112,63.4398589 C27.5277313,61.6703632 25.5859583,60.7428506 23.8163847,61.368603 C22.848472,61.7107206 22.0871702,62.4721305 21.7450375,63.4398589 L12.4734683,63.4398589 L12.4734683,58.8507249 C18.6955817,58.2304951 23.2369116,52.6838283 22.6166545,46.4618473 C22.1969188,42.2516482 19.4643889,38.6267025 15.5322705,37.06395 L24.255521,28.3410836 C29.9363963,32.8138183 37.9326149,32.8459626 43.6494595,28.4192495 L49.9347315,36.4193641 C41.2560884,37.6299451 35.2020676,45.6463443 36.4127018,54.3244635 C37.6233361,63.0027244 45.6400883,69.0564786 54.3185897,67.8458977 C62.9972327,66.6353168 69.0512536,58.6189176 67.8406194,49.9407983 C66.7774024,42.3182026 60.3962596,36.558137 52.7046467,36.2779008 Z M65.7192834,23.7906077 C65.7192834,25.6675817 64.197671,27.1891271 62.3206144,27.1891271 C60.4435578,27.1891271 58.9219453,25.6675817 58.9219453,23.7906077 C58.9219453,21.9136338 60.4435578,20.3920883 62.3206144,20.3920883 C64.197671,20.3920883 65.7192834,21.9136338 65.7192834,23.7906077 Z M64.5863937,2.26665161 C65.2120321,2.26665161 65.7192834,2.77388063 65.7192834,3.39949141 C65.7192834,4.02510218 65.2120321,4.5323312 64.5863937,4.5323312 C63.9607554,4.5323312 63.4535041,4.02510218 63.4535041,3.39949141 C63.4535041,2.77388063 63.9607554,2.26665161 64.5863937,2.26665161 Z M3.41035084,4.5323312 C2.78471251,4.5323312 2.27746115,4.02510218 2.27746115,3.39949141 C2.27746115,2.77388063 2.78471251,2.26665161 3.41035084,2.26665161 C4.03598917,2.26665161 4.54324052,2.77388063 4.54324052,3.39949141 C4.54324052,4.02510218 4.03598917,4.5323312 3.41035084,4.5323312 Z M24.9352548,63.4400005 C25.5608932,63.4400005 26.0681445,63.9472296 26.0681445,64.5728403 C26.0681445,65.1984511 25.5608932,65.7056801 24.9352548,65.7056801 C24.3096165,65.7056801 23.8023651,65.1984511 23.8023651,64.5728403 C23.8023651,63.9472296 24.3096165,63.4400005 24.9352548,63.4400005 Z M15.8721374,55.4172291 C13.0723421,57.0522002 9.60881513,57.0522002 6.80901989,55.4172291 L6.80901989,53.2444424 C6.80901989,50.7418577 8.8378837,48.7130832 11.3405786,48.7130832 C13.8432735,48.7130832 15.8721374,50.7418577 15.8721374,53.2444424 L15.8721374,55.4172291 Z M9.07479926,44.181724 C9.07479926,42.9303609 10.0891604,41.9160444 11.3405786,41.9160444 C12.5919969,41.9160444 13.606358,42.9303609 13.606358,44.181724 C13.606358,45.4330872 12.5919969,46.4474036 11.3405786,46.4474036 C10.0891604,46.4474036 9.07479926,45.4329456 9.07479926,44.181724 Z M18.1379167,41.5659969 C19.6024599,43.2265985 20.4085109,45.3659664 20.4036961,47.5802434 C20.4032713,49.7816343 19.5973619,51.9067002 18.1379167,53.5548405 L18.1379167,53.2444424 C18.1365006,50.7677714 16.7879371,48.4877897 14.6180285,47.2936349 C16.3461101,45.483357 16.2792696,42.6150066 14.4689119,40.8870011 C12.6585542,39.1591372 9.79007748,39.2258331 8.06199588,41.0361111 C6.39055876,42.7870566 6.39055876,45.5425478 8.06199588,47.2934933 C5.89251213,48.4879313 4.54451502,50.7677714 4.54324052,53.2443008 L4.54324052,53.5546989 C1.23251203,49.800751 1.59192129,44.073821 5.34589286,40.7632383 C9.10000605,37.4526556 14.8271882,37.8120491 18.1379167,41.5659969 Z M41.9286001,26.8764633 C37.1992105,30.3098175 30.7975341,30.3098175 26.0681445,26.8764633 L26.0681445,24.1304597 C26.0681445,22.0658591 27.741989,20.3920883 29.8066805,20.3920883 L32.3216956,20.3920883 L30.6778726,24.5020311 C30.5094969,24.9230227 30.6084831,25.4040548 30.9293741,25.7243652 L33.1951535,27.9900448 C33.6375469,28.4322772 34.3546661,28.4322772 34.7970595,27.9900448 L37.0628389,25.7243652 C37.3837299,25.4039132 37.4827161,24.9230227 37.3143404,24.5020311 L35.6716504,20.3920883 L38.1900641,20.3920883 C40.2547556,20.3920883 41.9286001,22.0658591 41.9286001,24.1304597 L41.9286001,26.8764633 Z M34.1605171,8.48027789 C34.1180338,8.55108037 34.0834806,8.62613101 34.0574242,8.70443856 C33.484182,10.4229565 30.389269,11.0743394 28.396516,11.2635237 C28.7004137,7.46709429 30.4869807,5.66502939 33.9985139,5.66502939 C37.2136548,5.66502939 38.9832285,7.1853004 39.4896302,10.3572518 L35.7148418,8.09157223 C35.1781353,7.76984573 34.4822578,7.94387824 34.1605171,8.48027789 Z M35.5606272,10.6428691 L39.6095749,13.0728104 C39.1552861,15.8460022 35.737358,18.1264087 33.9983723,18.1264087 C31.4716035,17.6960712 29.3696683,15.9439929 28.4913955,13.5361419 C30.4309027,13.3764115 33.9326647,12.7884676 35.5606272,10.6428691 Z M34.9341392,24.6504331 L33.9983723,25.5872916 L33.0626054,24.6504331 L33.9983723,22.3088533 L34.9341392,24.6504331 Z M38.94117,18.1785194 C40.7084779,16.7878169 41.7959104,14.7070734 41.9286001,12.4622098 C41.9286001,4.97187304 37.6156891,3.39949141 33.9983723,3.39949141 C30.3810555,3.39949141 26.0681445,4.97187304 26.0681445,12.4622098 C26.1998429,14.7083479 27.287417,16.7905074 29.0555746,18.1819179 C26.0525673,18.5519317 23.7979752,21.1047862 23.8023651,24.1304597 L23.8023651,24.8192263 C18.8362016,19.188446 19.3751739,10.5979803 25.0063437,5.63203543 C30.6375134,0.666090585 39.2282159,1.20503912 44.1943794,6.83581932 C48.7259382,11.9739558 48.7259382,19.6809482 44.1943794,24.8190846 L44.1943794,24.1303181 C44.2004687,21.1035117 41.9454518,18.5485332 38.94117,18.1785194 Z M60.054835,63.1273368 C55.3254454,66.560691 48.923769,66.560691 44.1943794,63.1273368 L44.1943794,60.3813331 C44.1943794,58.3167326 45.8682239,56.6429618 47.9329154,56.6429618 L50.4479305,56.6429618 L48.8041076,60.7529046 C48.6357318,61.1738961 48.7347181,61.6547866 49.0556091,61.9752387 L51.3213884,64.2409183 C51.7637819,64.6831506 52.480901,64.6831506 52.9232945,64.2409183 L55.1890738,61.9752387 C55.5099648,61.6547866 55.6089511,61.1738961 55.4405753,60.7529046 L53.7978853,56.6429618 L56.3162991,56.6429618 C58.3809905,56.6429618 60.054835,58.3167326 60.054835,60.3813331 L60.054835,63.1273368 Z M53.6868621,46.8937425 L53.6868621,46.8926097 L57.7358098,49.322551 C57.2815211,52.0968757 53.8635929,54.3772822 52.1246072,54.3772822 C49.5978384,53.9469447 47.4959032,52.1948663 46.6176305,49.7870153 C48.5571376,49.6272849 52.0588996,49.0391995 53.6868621,46.8937425 Z M46.5224677,47.5145387 C46.8260822,43.7183926 48.6126492,41.9160444 52.1246072,41.9160444 C55.3397481,41.9160444 57.1093218,43.4363154 57.6157235,46.6082669 L53.8409351,44.3425873 C53.3043702,44.0207192 52.6084927,44.1947517 52.2866105,44.7312929 C52.2441271,44.8020954 52.209574,44.8771461 52.1835175,44.9554536 C51.6102753,46.6739716 48.5152207,47.3253545 46.5224677,47.5145387 Z M53.0603741,60.9013066 L52.1246072,61.8381651 L51.1888403,60.9013066 L52.1246072,58.5597267 L53.0603741,60.9013066 Z M62.3206144,61.0733566 L62.3206144,60.3811915 C62.3267037,57.3542436 60.0716867,54.7994066 57.0674049,54.4292512 C58.8347128,53.0385488 59.9221453,50.9578053 60.054835,48.7129416 C60.054835,41.2226049 55.741924,39.6502232 52.1246072,39.6502232 C48.5072905,39.6502232 44.1943794,41.2226049 44.1943794,48.7129416 C44.3260779,50.9590797 45.413652,53.0412393 47.1818095,54.4326497 C44.1788022,54.8026635 41.9242101,57.355518 41.9286001,60.3811915 L41.9286001,61.0699581 C36.9740487,55.4347881 37.5260492,46.8501282 43.1614673,41.8957949 C48.7968854,36.9414617 57.3819234,37.4934379 62.3364748,43.1286078 C64.5195533,45.6115095 65.7222573,48.805268 65.7192834,52.1113194 C65.7185754,55.4135474 64.5097821,58.601217 62.3206144,61.0733566 Z" id="Shape"></path>
            </g>
        </g>
    </g>
</svg>