<?xml version="1.0" encoding="UTF-8"?>
<svg width="19px" height="23px" viewBox="0 0 19 23" version="1.1" xmlns="http://www.w3.org/2000/svg" xmlns:xlink="http://www.w3.org/1999/xlink">
    <!-- Generator: sketchtool 51 (57462) - http://www.bohemiancoding.com/sketch -->
    <title>F1AAF03B-CCFB-4F8A-9512-AE385C250274</title>
    <desc>Created with sketchtool.</desc>
    <defs></defs>
    <g id="Symbols" stroke="none" stroke-width="1" fill="none" fill-rule="evenodd">
        <g id="icons/login-copy" transform="translate(-3.000000, -1.000000)" fill="#FFFFFF" fill-rule="nonzero">
            <g id="sign-in" transform="translate(3.000000, 1.000000)">
                <g id="avatar">
                    <path d="M9.42483339,11.5 C9.44761115,11.5 9.47038891,11.5 9.49772222,11.5 C9.50683333,11.5 9.51594443,11.5 9.52505554,11.5 C9.53872219,11.5 9.5569444,11.5 9.57061106,11.5 C10.9053878,11.4779016 11.9850537,11.0226749 12.7822753,10.1519985 C14.5361628,8.23385857 14.2446075,4.94561875 14.2127186,4.63182168 C14.0988298,2.27613374 12.9508307,1.14911606 12.0032759,0.623174481 C11.2971653,0.229823213 10.4726104,0.0176787087 9.55238885,0 L9.52049998,0 C9.51594443,0 9.50683333,0 9.50227778,0 L9.47494446,0 C8.96927818,0 7.97616783,0.0795541891 7.02405744,0.605495772 C6.0673915,1.13143736 4.90117017,2.25845503 4.78728136,4.63182168 C4.7553925,4.94561875 4.46383717,8.23385857 6.21772472,10.1519985 C7.01039078,11.0226749 8.09005663,11.4779016 9.42483339,11.5 Z M6.00361377,4.7423136 C6.00361377,4.72905457 6.00816932,4.71579554 6.00816932,4.70695619 C6.15850254,1.53804766 8.47727856,1.19773251 9.47038891,1.19773251 L9.48861112,1.19773251 C9.49772222,1.19773251 9.51138888,1.19773251 9.52505554,1.19773251 C10.7550546,1.22425058 12.846053,1.71041507 12.9872751,4.70695619 C12.9872751,4.72021522 12.9872751,4.73347425 12.9918307,4.7423136 C12.9963862,4.77325135 13.3152749,7.77863182 11.8666093,9.36087625 C11.2926097,9.98847041 10.527277,10.2978478 9.52049998,10.3066872 C9.51138888,10.3066872 9.50683333,10.3066872 9.49772222,10.3066872 C9.48861112,10.3066872 9.48405557,10.3066872 9.47494446,10.3066872 C8.472723,10.2978478 7.7028347,9.98847041 7.13339069,9.36087625 C5.68928068,7.78747118 5.99905822,4.76883167 6.00361377,4.7423136 Z" id="Shape"></path>
                    <path d="M18.9987046,17.8941652 C18.9987046,17.8890234 18.9987046,17.8838815 18.9987046,17.8787397 C18.9987046,17.8376051 18.9940789,17.7964705 18.9940789,17.750194 C18.9663252,16.7321122 18.906192,14.351446 16.8986704,13.5904555 C16.8847935,13.5853137 16.866291,13.5801718 16.8524141,13.57503 C14.7662569,12.9837198 13.0316471,11.6468447 13.0131446,11.6314192 C12.7309815,11.4103206 12.3424289,11.487448 12.143527,11.8010995 C11.944625,12.114751 12.0140094,12.5466645 12.2961726,12.7677631 C12.3748083,12.829465 14.2158074,14.2537513 16.5193691,14.9119052 C17.5971399,15.3386769 17.7174062,16.618992 17.7497856,17.7913286 C17.7497856,17.8376051 17.7497856,17.8787397 17.7544112,17.9198743 C17.7590368,18.3826388 17.7312831,19.0973529 17.6572731,19.5086991 C16.9079217,19.9817472 13.9706492,21.6168484 9.50229456,21.6168484 C5.05244243,21.6168484 2.09666748,19.9766054 1.34269045,19.5035572 C1.26868044,19.092211 1.23630106,18.377497 1.24555231,17.9147325 C1.24555231,17.8735979 1.25017793,17.8324633 1.25017793,17.7861868 C1.28255731,16.6138501 1.40282359,15.3335351 2.48059443,14.9067634 C4.78415613,14.2486094 6.62515525,12.8191814 6.70379089,12.7626213 C6.98595407,12.5415227 7.05533846,12.1096092 6.85643654,11.7959577 C6.65753463,11.4823062 6.26898205,11.4051788 5.98681887,11.6262774 C5.96831637,11.6417028 4.2429579,12.978578 2.14754936,13.5698882 C2.12904686,13.57503 2.11516998,13.5801718 2.1012931,13.5853137 C0.0937714542,14.351446 0.0336383173,16.7321122 0.00588456183,17.7450522 C0.00588456183,17.7913286 0.00588456183,17.8324633 0.00125893591,17.8735979 C0.00125893591,17.8787397 0.00125893591,17.8838815 0.00125893591,17.8890234 C-0.00336669,18.1563984 -0.00799231591,19.5292664 0.237165858,20.2182713 C0.283422117,20.3519588 0.366683383,20.465079 0.477698405,20.5422064 C0.616467183,20.645043 3.94229221,23 9.50692019,23 C15.0715482,23 18.3973732,20.6399011 18.536142,20.5422064 C18.6425314,20.465079 18.7304183,20.3519588 18.7766745,20.2182713 C19.0079558,19.5344082 19.0033302,18.1615402 18.9987046,17.8941652 Z" id="Shape"></path>
                </g>
            </g>
        </g>
    </g>
</svg>