<?xml version="1.0" encoding="UTF-8"?>
<svg width="23px" height="24px" viewBox="0 0 23 24" version="1.1" xmlns="http://www.w3.org/2000/svg" xmlns:xlink="http://www.w3.org/1999/xlink">
    <!-- Generator: sketchtool 49.1 (51147) - http://www.bohemiancoding.com/sketch -->
    <title>38FD5148-61FA-4D4D-ABB0-A4932B9FB72D</title>
    <desc>Created with sketchtool.</desc>
    <defs></defs>
    <g id="Symbols" stroke="none" stroke-width="1" fill="none" fill-rule="evenodd">
        <g id="menu" transform="translate(-1215.000000, -33.000000)">
            <rect id="Rectangle-11" fill="#1D2C4D" x="0" y="0" width="1440" height="90"></rect>
            <g transform="translate(731.000000, 28.000000)" fill="#FFFFFF" fill-rule="nonzero" id="login">
                <g transform="translate(484.000000, 5.000000)">
                    <g id="sign-in">
                        <path d="M0.721168921,12.2677915 L15.1081283,12.2677915 L11.3980748,15.9873199 C11.1164583,16.2642078 11.1164583,16.7476968 11.3977142,17.0249398 C11.5387027,17.1637387 11.7229614,17.25 11.9079412,17.25 C12.0925605,17.25 12.2768191,17.1892976 12.4178076,17.0504987 L17.0386975,12.5063411 C17.1739167,12.3732219 17.25,12.1946647 17.25,12.0065228 C17.25,11.818381 17.1739167,11.6387588 17.0386975,11.5056396 L16.8194622,11.290164 C16.7697015,11.2191671 16.7069598,11.1573997 16.6344823,11.1087669 L12.4181682,6.95793221 C12.1365518,6.68068926 11.6796913,6.68068926 11.3984354,6.95793221 C11.1168189,7.23517517 11.1168189,7.61678359 11.3984354,7.89438152 L14.4677303,10.8478532 L0.721168921,10.8478532 C0.323083676,10.8478532 0,11.1659194 0,11.5578223 C0,11.9497253 0.323083676,12.2677915 0.721168921,12.2677915 Z" id="Shape"></path>
                        <path d="M22.5,21.2349851 L22.5,3.41767164 C22.5,1.70041791 21.1011136,0 19.3689716,0 L10.0617955,0 C8.36365909,0 6.75,1.63916418 6.75,3.41767164 L6.75,7.65886567 C6.75,8.05432836 7.07072727,8.37528358 7.46590909,8.37528358 C7.86109091,8.37528358 8.18181818,8.05432836 8.18181818,7.65886567 L8.18181818,3.41767164 C8.18181818,2.43295522 9.1558125,1.43283582 10.0617955,1.43283582 L19.3689716,1.43283582 C20.3164773,1.43283582 21.0681818,2.48489552 21.0681818,3.41767164 L21.0681818,21.2349851 C21.0681818,22.1888955 20.279608,22.5671642 19.3689716,22.5671642 L10.0617955,22.5671642 C9.21523295,22.5671642 8.18181818,22.2494328 8.18181818,21.2349851 L8.18181818,16.9722985 C8.18181818,16.5768358 7.86109091,16.2558806 7.46590909,16.2558806 C7.07072727,16.2558806 6.75,16.5768358 6.75,16.9722985 L6.75,21.2349851 C6.75,22.9160597 8.24660795,24 10.0617955,24 L19.3689716,24 C21.2249659,24 22.5,22.8619701 22.5,21.2349851 Z" id="Shape"></path>
                    </g>
                </g>
            </g>
        </g>
    </g>
</svg>