<?xml version="1.0" encoding="UTF-8"?>
<svg width="71px" height="69px" viewBox="0 0 71 69" version="1.1" xmlns="http://www.w3.org/2000/svg" xmlns:xlink="http://www.w3.org/1999/xlink">
    <!-- Generator: sketchtool 51 (57462) - http://www.bohemiancoding.com/sketch -->
    <title>BFE1F031-E8AB-48A2-BA86-E33E15B401F1</title>
    <desc>Created with sketchtool.</desc>
    <defs></defs>
    <g id="Symbols" stroke="none" stroke-width="1" fill="none" fill-rule="evenodd">
        <g id="UI/icons/other/speed" fill-rule="nonzero">
            <g id="fast" transform="translate(0.000000, 7.000000)" fill="#FFFFFF">
                <path d="M70.6612985,18.5668127 C69.7683636,16.2747251 67.2218788,15.1546474 64.9736418,16.0649986 C64.8580501,16.1118605 64.7442668,16.1636392 64.6330455,16.2203345 L61.3850228,17.8784797 L54.7539445,8.86623306 C54.6719603,8.75483987 54.5721927,8.65835032 54.4585601,8.5810665 L47.2246565,3.66440167 C47.0793756,3.56560744 46.9148043,3.50015434 46.7423963,3.47265175 L31.0689384,1.01431933 C30.6900627,0.954858419 30.306063,1.0826917 30.0344902,1.35848587 L21.046365,10.4875033 C19.5368904,12.0207345 19.5322185,14.5111789 21.036117,16.0500949 C21.0395832,16.0536288 21.0428987,16.0571626 21.046365,16.0605429 C22.4860625,17.5184876 24.7855396,17.5957714 26.3162638,16.2375428 L33.5995991,9.74017023 L40.0618863,11.6232529 L34.6533377,23.7391441 L26.3560502,35.8230771 L16.4938283,44.8709695 C14.6977103,46.4438414 14.4922976,49.2034731 16.0350783,51.0346235 C17.5778589,52.8657738 20.2846952,53.075193 22.0808132,51.5023212 L32.9461364,42.4310746 L39.4409762,35.8095563 L47.6779811,42.1090331 L45.8453922,55.1480282 C45.6737377,56.3673611 46.0301582,57.6026731 46.8219692,58.5331519 C47.6353312,59.4816073 48.816266,60.0178311 50.0519072,59.9995472 C52.0989512,60.0024665 53.8582968,58.5196311 54.2403373,56.4693819 L57.391908,39.3298883 C57.4702753,38.9029067 57.3216789,38.4656308 57.0012772,38.1793887 L47.9709542,30.1308084 L51.8145683,19.3559375 L58.9110278,27.6245385 C59.2582552,28.0286269 59.8226503,28.1561529 60.3047599,27.9392051 L68.4453127,24.2689148 C70.5854933,23.3023292 71.571414,20.7656374 70.6612985,18.5668127 Z M67.4699414,22.0183115 L60.1407914,25.3223102 L52.2847721,16.1687095 C51.846066,15.6579909 51.0843962,15.6066732 50.5834484,16.0539361 C50.4306322,16.1903735 50.3142869,16.3638396 50.2448113,16.5583552 L45.4222088,30.0791834 C45.2522121,30.5557926 45.3867929,31.0898653 45.7609967,31.4238913 L54.8889774,39.5671174 L51.8603831,56.0170487 C51.6796862,56.926939 50.8812441,57.5710221 49.9711286,57.5412148 C49.0002784,57.5409075 48.2134407,56.7384156 48.2137421,55.7486295 C48.2137421,55.6641244 48.2196197,55.5796192 48.2313748,55.4958822 L50.1604157,41.7365957 C50.2229588,41.2920985 50.0427141,40.8480622 49.690212,40.5787212 L40.0450072,33.2037239 C39.5650075,32.8368178 38.8934601,32.8855235 38.4692218,33.3180364 L31.3245364,40.6106795 L20.5484313,49.5995719 C19.7516469,50.2726941 18.5705615,50.1597644 17.9103171,49.3474392 C17.2663489,48.555088 17.3537586,47.3849217 18.1081945,46.701198 L28.071691,37.5586598 C28.1398103,37.4964333 28.2003942,37.4263708 28.2525386,37.3497015 L36.6920928,25.0580395 C36.7347427,24.9965812 36.7713644,24.9311281 36.801807,24.8626021 L42.8300601,11.3417738 C43.1055512,10.7236568 42.8374447,9.99506857 42.2311531,9.71420409 C42.1772003,9.68915983 42.1214389,9.668264 42.0644719,9.65167026 L33.6249177,7.19333785 C33.2311221,7.077028 32.8064317,7.17382484 32.4988401,7.45023359 L24.7223937,14.3876477 C24.1378038,14.9446136 23.2209066,14.9129626 22.6745961,14.3169706 C22.1282857,13.7209786 22.1593312,12.7861977 22.743921,12.2292318 L31.3040403,3.53779755 L46.1106353,5.86092168 L52.9454686,10.5096283 L60.0588072,20.1745621 C60.4081444,20.6499422 61.0409603,20.8025124 61.5622535,20.5371662 L65.7108972,18.4168545 C66.1988843,18.1664119 66.7676499,18.1366046 67.278243,18.3345003 C67.8247041,18.5520628 68.2516551,19.0004011 68.4489297,19.5636665 C68.8241884,20.5171922 68.3913599,21.6023923 67.4699414,22.0183115 Z" id="Shape"></path>
                <rect id="Rectangle-path" x="7" y="0" width="16" height="2"></rect>
                <rect id="Rectangle-path" x="2" y="0" width="2" height="2"></rect>
                <rect id="Rectangle-path" x="12" y="9" width="3" height="2"></rect>
                <rect id="Rectangle-path" x="0" y="9" width="10" height="2"></rect>
                <rect id="Rectangle-path" x="5" y="20" width="12" height="2"></rect>
                <rect id="Rectangle-path" x="2" y="30" width="21" height="2"></rect>
                <rect id="Rectangle-path" x="5" y="39" width="10" height="2"></rect>
                <rect id="Rectangle-path" x="0" y="39" width="2" height="2"></rect>
                <rect id="Rectangle-path" x="2" y="49" width="8" height="2"></rect>
            </g>
            <circle id="Oval-2" stroke="#FFFFFF" stroke-width="2.5" cx="57" cy="7" r="6"></circle>
        </g>
    </g>
</svg>