<svg xmlns="http://www.w3.org/2000/svg" width="40" height="40" viewBox="0 0 40 40">
    <path fill="#FFFFFF" fill-rule="evenodd" d="M20.237 27.297c.93.925 2.16 2.062 3.473 2.775 1.327.718 2.963 1.174 4.247 1.5-.472.393-.603.593-1.4 1.05-1.51.868-3.232 1.39-4.621.599-1.396-.794-1.837-2.55-1.874-4.274-.019-.885.084-1.053.175-1.65m-.75-2.575a.796.796 0 0 0-.65.6s-.418 1.675-.374 3.65c.044 1.974.55 4.443 2.673 5.649 2.127 1.21 4.494.365 6.221-.625 1.727-.99 2.973-2.224 2.973-2.224a.796.796 0 0 0 .203-.794.803.803 0 0 0-.602-.557s-3.785-.862-5.472-1.775c-1.652-.896-4.247-3.674-4.247-3.674a.802.802 0 0 0-.724-.25m10.293-.225a7.064 7.064 0 0 0-1.774.375l2.548 2.075a20.212 20.212 0 0 0 2.723 1.6s-.484-2.95-1.924-3.75c-.449-.269-1.017-.334-1.573-.3m-6.796-4c-1.37-.02-2.898.625-2.898.625s1.28.785 2.798 1.426c1.44.64 3.048 1.2 3.048 1.2s-.475-2.232-1.674-2.95c-.359-.2-.818-.294-1.274-.3m-.2-6.075c1.777-.065 4.531.384 8.345 2.525 3.853 2.143 5.646 4.25 6.496 5.774.424.763.615 1.388.7 1.8.058.282.049.303.049.375-4.765 8.274-9.684 11.555-13.392 12.799-3.54 1.187-5.758.593-5.995.524-.169-.15-1.837-1.668-2.649-5.274-.356-1.58-.506-3.54-.224-5.899.05-.128.068-.266.05-.4.325-2.34 1.08-5.087 2.498-8.224a.374.374 0 0 0 .025-.05c.003-.01.022-.016.025-.026a.803.803 0 0 0 .175-.4 45.69 45.69 0 0 1 1.549-3.024c.062-.034.1-.075.4-.175.412-.14 1.058-.294 1.948-.325m-11.567-3.475s-1.515.966-2.474 1.925a12.352 12.352 0 0 0-1.774 2.25s2.717.634 3.598-.325c1.28-1.36.65-3.85.65-3.85m4.322-1.1c-.61.019-1.05.076-1.05.076s.96 2.383 2.798 2.624c1.281.16 3.124-1.9 3.124-1.9s-1.281-.565-2.798-.724a14.759 14.759 0 0 0-2.074-.076M16.614 1.6c.956 0 1.734.1 2.374.25.852.2 1.455.483 1.824.7.252.15.268.178.324.224 1.312 3.862 1.899 7.218 2.05 10.05-.164 0-.326-.007-.476 0a8.303 8.303 0 0 0-2.398.424c-.55.187-.9.4-.9.4l-.15.1-.1.175a48.825 48.825 0 0 0-1.624 3.15 9.427 9.427 0 0 0-2.323.4h-.025c-3.238 1.137-4.323 3.675-4.323 3.675a.806.806 0 0 0 .45 1.05.805.805 0 0 0 1.05-.45s.665-1.807 3.323-2.75c.009-.003.015.002.025 0 .375-.116.72-.172 1.049-.226-1.08 2.573-1.749 4.9-2.099 6.975-3.582-1.219-9.157-4.931-12.992-16.323.013-.06-.003-.123.126-.425.165-.398.48-.969 1.049-1.65 1.133-1.362 3.307-3.16 7.495-4.6.01-.003.016.003.025 0 2.592-.868 4.654-1.152 6.246-1.15m0-1.599c-.359 0-.73.022-1.124.05-1.577.11-3.451.459-5.647 1.2C5.415 2.767 2.941 4.707 1.6 6.323.927 7.13.549 7.84.325 8.374c-.225.534-.3.95-.3.95l-.025.2.074.175c4.057 12.258 10.331 16.385 14.391 17.673-.228 2.309-.069 4.287.3 5.924.947 4.212 3.273 6.275 3.273 6.275l.15.1.15.05s3.008.887 7.145-.5c4.138-1.388 9.466-5.009 14.416-13.7l.1-.174v-.175s.016-.412-.1-.975c-.116-.562-.368-1.344-.874-2.25-1.012-1.816-3.06-4.143-7.12-6.4-2.858-1.602-5.232-2.333-7.122-2.599-.136-3.072-.727-6.709-2.173-10.899l-.075-.175-.124-.125s-.3-.281-.8-.575c-.5-.293-1.234-.637-2.249-.874C18.6.122 17.688 0 16.614 0"/>
</svg>
