<?xml version="1.0" encoding="UTF-8"?>
<svg width="13px" height="13px" viewBox="0 0 13 13" version="1.1" xmlns="http://www.w3.org/2000/svg" xmlns:xlink="http://www.w3.org/1999/xlink">
    <!-- Generator: Sketch 49.1 (51147) - http://www.bohemiancoding.com/sketch -->
    <title>calendar (3)</title>
    <desc>Created with Sketch.</desc>
    <defs></defs>
    <g id="Profile-Pages" stroke="none" stroke-width="1" fill="none" fill-rule="evenodd">
        <g id="Profile-Edit-Page/-Media" transform="translate(-150.000000, -234.000000)" fill="#EC2552">
            <g id="left-menu" transform="translate(150.000000, 125.000000)">
                <g id="calendar-(3)" transform="translate(0.000000, 109.000000)">
                    <g>
                        <path d="M11.4765625,1.015625 L10.8671875,1.015625 L10.8671875,0 L9.8515625,0 L9.8515625,1.015625 L3.1484375,1.015625 L3.1484375,0 L2.1328125,0 L2.1328125,1.015625 L1.5234375,1.015625 C0.683414063,1.015625 0,1.69903906 0,2.5390625 L0,11.4765625 C0,12.3165859 0.683414063,13 1.5234375,13 L11.4765625,13 C12.3165859,13 13,12.3165859 13,11.4765625 L13,2.5390625 C13,1.69903906 12.3165859,1.015625 11.4765625,1.015625 Z M11.984375,11.4765625 C11.984375,11.7565703 11.7565703,11.984375 11.4765625,11.984375 L1.5234375,11.984375 C1.24342969,11.984375 1.015625,11.7565703 1.015625,11.4765625 L1.015625,4.7734375 L11.984375,4.7734375 L11.984375,11.4765625 Z M11.984375,3.7578125 L1.015625,3.7578125 L1.015625,2.5390625 C1.015625,2.25905469 1.24342969,2.03125 1.5234375,2.03125 L2.1328125,2.03125 L2.1328125,3.046875 L3.1484375,3.046875 L3.1484375,2.03125 L9.8515625,2.03125 L9.8515625,3.046875 L10.8671875,3.046875 L10.8671875,2.03125 L11.4765625,2.03125 C11.7565703,2.03125 11.984375,2.25905469 11.984375,2.5390625 L11.984375,3.7578125 Z" id="Shape" fill-rule="nonzero"></path>
                        <rect id="Rectangle-path" fill-rule="nonzero" x="1.9296875" y="5.83984375" width="1.015625" height="1.015625"></rect>
                        <rect id="Rectangle-path" fill-rule="nonzero" x="3.9609375" y="5.83984375" width="1.015625" height="1.015625"></rect>
                        <rect id="Rectangle-path" fill-rule="nonzero" x="5.9921875" y="5.83984375" width="1.015625" height="1.015625"></rect>
                        <rect id="Rectangle-path" fill-rule="nonzero" x="8.0234375" y="5.83984375" width="1.015625" height="1.015625"></rect>
                        <rect id="Rectangle-path" fill-rule="nonzero" x="10.0546875" y="5.83984375" width="1.015625" height="1.015625"></rect>
                        <rect id="Rectangle-path" fill-rule="nonzero" x="1.9296875" y="7.87109375" width="1.015625" height="1.015625"></rect>
                        <rect id="Rectangle-path" fill-rule="nonzero" x="3.9609375" y="7.87109375" width="1.015625" height="1.015625"></rect>
                        <rect id="Rectangle-path" fill-rule="nonzero" x="5.9921875" y="7.87109375" width="1.015625" height="1.015625"></rect>
                        <rect id="Rectangle-path" fill-rule="nonzero" x="8.0234375" y="7.87109375" width="1.015625" height="1.015625"></rect>
                        <rect id="Rectangle-path" fill-rule="nonzero" x="1.9296875" y="9.90234375" width="1.015625" height="1.015625"></rect>
                        <rect id="Rectangle-path" fill-rule="nonzero" x="3.9609375" y="9.90234375" width="1.015625" height="1.015625"></rect>
                        <rect id="Rectangle-path" fill-rule="nonzero" x="5.9921875" y="9.90234375" width="1.015625" height="1.015625"></rect>
                        <rect id="Rectangle-path" fill-rule="nonzero" x="8.0234375" y="9.90234375" width="1.015625" height="1.015625"></rect>
                        <rect id="Rectangle-path" fill-rule="nonzero" x="10.0546875" y="7.87109375" width="1.015625" height="1.015625"></rect>
                    </g>
                </g>
            </g>
        </g>
    </g>
</svg>