<?xml version="1.0" encoding="UTF-8"?>
<svg width="13px" height="13px" viewBox="0 0 13 13" version="1.1" xmlns="http://www.w3.org/2000/svg" xmlns:xlink="http://www.w3.org/1999/xlink">
    <!-- Generator: Sketch 49.1 (51147) - http://www.bohemiancoding.com/sketch -->
    <title>wrong</title>
    <desc>Created with Sketch.</desc>
    <defs></defs>
    <g id="Profile-Pages" stroke="none" stroke-width="1" fill="none" fill-rule="evenodd">
        <g id="Profile-Edit-Page/-Media" transform="translate(-150.000000, -333.000000)" fill="#EC2552">
            <g id="left-menu" transform="translate(150.000000, 125.000000)">
                <g id="wrong" transform="translate(0.000000, 208.000000)">
                    <g id="Shape">
                        <path d="M11.0837618,1.9044894 C9.85921697,0.679944535 8.22861827,0 6.49412561,0 C4.75963295,0 3.12901305,0.679944535 1.9044894,1.9044894 C-0.627986949,4.43696574 -0.627986949,8.55128548 1.9044894,11.0837618 C3.12901305,12.3082855 4.75963295,12.9882512 6.49412561,12.9882512 C8.22861827,12.9882512 9.85923817,12.3083067 11.0837618,11.0837618 C13.6162382,8.55126427 13.6162382,4.43696574 11.0837618,1.9044894 Z M10.6414861,10.6414861 C9.53657096,11.7464013 8.05864274,12.3586737 6.49412561,12.3586737 C4.92960848,12.3586737 3.45168026,11.7464013 2.34676509,10.6414861 C1.24184992,9.53657096 0.629577488,8.05862153 0.629577488,6.49412561 C0.629577488,4.92962969 1.24184992,3.45168026 2.34676509,2.34676509 C3.45168026,1.24184992 4.93119902,0.629577488 6.49412561,0.629577488 C8.0570522,0.629577488 9.53657096,1.24184992 10.6414861,2.34676509 C11.7464013,3.45168026 12.3586737,4.93119902 12.3586737,6.49412561 C12.3586737,8.0570522 11.7463801,9.53657096 10.6414861,10.6414861 Z M8.46628711,4.98154486 L6.88603426,6.56179772 L8.46628711,8.14205057 C8.5859168,8.26168026 8.5859168,8.46471778 8.46628711,8.58432626 C8.39861501,8.65199837 8.3309217,8.66932463 8.24592333,8.66932463 C8.16092496,8.66932463 8.09325285,8.63469331 8.02558075,8.58432626 L6.44375856,7.00407341 L4.86193638,8.58432626 C4.79426427,8.65199837 4.72657096,8.66932463 4.6415938,8.66932463 C4.55661664,8.66932463 4.48892333,8.63469331 4.42125122,8.58432626 C4.30162153,8.46469657 4.30162153,8.26165905 4.42125122,8.14205057 L6.00150408,6.56179772 L4.42125122,4.98154486 C4.30162153,4.86191517 4.30162153,4.65887765 4.42125122,4.53926917 C4.54088091,4.41963948 4.74391843,4.41963948 4.86352692,4.53926917 L6.44377977,6.11952202 L8.02403263,4.53926917 C8.14366232,4.41963948 8.34669984,4.41963948 8.46630832,4.53926917 C8.5858956,4.65889886 8.5858956,4.84461011 8.46628711,4.98154486 Z" fill-rule="nonzero"></path>
                    </g>
                </g>
            </g>
        </g>
    </g>
</svg>