<?xml version="1.0" encoding="UTF-8"?>
<svg width="13px" height="13px" viewBox="0 0 13 13" version="1.1" xmlns="http://www.w3.org/2000/svg" xmlns:xlink="http://www.w3.org/1999/xlink">
    <!-- Generator: Sketch 49.1 (51147) - http://www.bohemiancoding.com/sketch -->
    <title>chat (4)</title>
    <desc>Created with Sketch.</desc>
    <defs></defs>
    <g id="Profile-Pages" stroke="none" stroke-width="1" fill="none" fill-rule="evenodd">
        <g id="Profile-Edit-Page/-Media" transform="translate(-150.000000, -201.000000)" fill="#EC2552" fill-rule="nonzero">
            <g id="chat-(4)" transform="translate(150.000000, 201.000000)">
                <path d="M10.7207953,0 L2.27920468,0 C1.02243298,0 0,1.06569714 0,2.3756023 L0,7.8025314 C0,9.11243655 1.02243298,10.1780957 2.27920468,10.1780957 L7.65604908,10.1781337 L10.2299458,12.8608109 C10.3171755,12.9517665 10.4337249,13 10.5523894,13 C10.6111018,13 10.6703246,12.9881412 10.726703,12.9637774 C10.8970417,12.8902679 11.008121,12.7170988 11.008121,12.5248871 L11.008121,10.1593192 C12.1298179,10.0116542 13,9.01102847 13,7.8025314 L13,2.3756023 C13,1.06569714 11.977567,0 10.7207953,0 Z M12.0883181,7.80256941 C12.0883181,8.5885201 11.4748656,9.22790798 10.7207953,9.22790798 L10.55228,9.22790798 C10.3005464,9.22790798 10.0964391,9.44068253 10.0964391,9.70302084 L10.0964391,11.3778507 L8.16721087,9.36705904 C8.08173158,9.27792786 7.96583858,9.22790798 7.84487663,9.22790798 L2.27920468,9.22790798 C1.52513437,9.22790798 0.911681871,8.5885201 0.911681871,7.80256941 L0.911681871,2.37564031 C0.911681871,1.58968961 1.52513437,0.950301733 2.27920468,0.950301733 L10.7207953,0.950301733 C11.4748656,0.950301733 12.0883181,1.58968961 12.0883181,2.37564031 L12.0883181,7.80256941 Z" id="Shape"></path>
                <g id="Group-4" transform="translate(3.000000, 2.500000)">
                    <g id="Group-5">
                        <path d="M6.58133971,0 L0.418660287,0 C0.18745933,0 0,0.22384 0,0.5 C0,0.77616 0.18745933,1 0.418660287,1 L6.58133971,1 C6.81254067,1 7,0.77612 7,0.5 C7,0.22388 6.81257416,0 6.58133971,0 Z" id="Shape"></path>
                        <path d="M6.58133971,3 L0.418660287,3 C0.18745933,3 0,3.22384 0,3.5 C0,3.77616 0.18745933,4 0.418660287,4 L6.58133971,4 C6.81254067,4 7,3.77612 7,3.5 C7,3.22388 6.81257416,3 6.58133971,3 Z" id="Shape"></path>
                    </g>
                </g>
            </g>
        </g>
    </g>
</svg>