<svg xmlns="http://www.w3.org/2000/svg" width="40" height="30" viewBox="0 0 40 30">
    <path fill="#EC2552" fill-rule="evenodd" d="M12.425 20.329l6.95 2.393-.525 1.554a1.95 1.95 0 0 1-2.476 1.233l-3.324-1.085a1.929 1.929 0 0 1-1.225-2.442c.003-.01-.003-.016 0-.024l.6-1.63zM2.4 11.053c.425 0 .762.304.8.715.003.024 0 .049 0 .074v4.811a.787.787 0 0 1-.8.715c-.45 0-.8-.345-.8-.79v-4.736c0-.444.35-.79.8-.79zm32.8-7.624v23.093L4.8 16.012v-3.578L35.2 3.43zm2.4-1.85c.45 0 .8.345.8.79v25.263c0 .444-.35.79-.8.79a.781.781 0 0 1-.8-.766V2.294a.786.786 0 0 1 .8-.715zM37.6 0c-1.097 0-2.02.752-2.3 1.751L4.55 10.855c-.384-.808-1.194-1.381-2.15-1.381-1.316 0-2.4 1.07-2.4 2.368v4.737c0 1.299 1.084 2.368 2.4 2.368.94 0 1.756-.545 2.15-1.332l6.375 2.196-.625 1.628v.024c-.62 1.833.394 3.83 2.25 4.441l3.324 1.111c1.857.61 3.882-.388 4.501-2.22l.525-1.554 14.4 4.983C35.574 29.235 36.497 30 37.6 30c1.315 0 2.4-1.07 2.4-2.368V2.368C40 1.07 38.915 0 37.6 0z"/>
</svg>
