<svg xmlns="http://www.w3.org/2000/svg" width="38" height="40" viewBox="0 0 38 40">
    <path fill="#EC2552" fill-rule="evenodd" d="M32.835 16.522a.874.874 0 0 0-.88.87v6.956c0 .479-.388.87-.864.87h-1.727a2.6 2.6 0 0 0-2.591 2.608 2.6 2.6 0 0 0 2.59 2.609h.864c1.91 0 3.455-1.556 3.455-3.478v-6.522c0-.228.179-.428.405-.435.89-.017 1.306.87 3.05.87.475 0 .863-.39.863-.87v-1.74c0-.478-.388-.869-.864-.869-2.364 0-2.195-.866-4.3-.87zm-13.548-6.118a.864.864 0 0 0 .442.048c.085-.014.125-.017.135-.017.267 0 .496.119.661.319a.892.892 0 0 0 .331.251l-.172-.068 2.84 3.366c.26.307.692.39 1.05.207a3431.99 3431.99 0 0 1 4.409-2.238.851.851 0 0 1 1.244.771.848.848 0 0 1-.462.761c-.033.018-1.923.88-5.67 2.586a.88.88 0 0 0-.112.06.417.417 0 0 1-.554-.078.82.82 0 0 0-.515-.285l.313.044-2.698-3.291a.851.851 0 0 0-.958-.265.867.867 0 0 0-.571.818v13.989c0 .187.058.367.166.513 3.344 4.662 5.016 7.103 5.016 7.322a1.287 1.287 0 0 1-2.307.802.523.523 0 0 0-.091-.098l-4.244-5.469-.331-.675-1.35-3.972a.865.865 0 0 0-.748-.588.868.868 0 0 0-.833.463l-2.089 3.994a.89.89 0 0 0-.07.625c1.133 4.35 1.7 6.57 1.7 6.658 0 .73-.57 1.304-1.296 1.304-.63 0-1.144-.444-1.268-1.036-.054-.27-.626-2.726-1.714-7.37l-.024.142a.796.796 0 0 0 0-.286.795.795 0 0 1-.017-.146c0-.128.031-.254.095-.383a.814.814 0 0 0 .081-.245l-.003.045 2.35-5.69a.872.872 0 0 0 .068-.333v-4.716c0-.4-.27-.75-.654-.845a.865.865 0 0 0-.975.439l-.854 1.633.288-.119a.884.884 0 0 0-.45.412.41.41 0 0 1-.378.237.43.43 0 0 1-.11-.02.87.87 0 0 0-.58.034l.258-.112c-3.978-1.049-6.084-1.614-6.318-1.696a.845.845 0 0 1-.59-.815c0-.492.374-.87.863-.87.054 0 1.759.357 5.114 1.07a.866.866 0 0 0 .918-.403l2.602-4.38-.122.093a.874.874 0 0 0 .243-.278.851.851 0 0 1 .583-.432c.01 0 .02-.003.027-.003l7.557-1.698-.226-.086zm.344-1.685a.83.83 0 0 0-.242.018l-7.78 1.746c-.64.121-1.154.519-1.532 1.015l-.017.013a.861.861 0 0 0-.226.255l-2.378 3.995c-3.104-.652-4.725-.978-4.865-.978C1.17 14.783 0 15.96 0 17.39c0 .952.58 1.695 1.34 2.15.076.11 2.457.815 7.142 2.117a.78.78 0 0 0 .25.03h.006c.108.02.202.051.33.051.504 0 .929-.21 1.296-.502v1.546l-2.331 5.63a.833.833 0 0 0-.05.18c-.122.297-.21.62-.21.972 0 .109.017.187.027.276a.977.977 0 0 0 .02.244c1.264 5.247 1.945 7.91 2.044 7.99.463 1.09 1.418 1.925 2.659 1.925 1.66 0 3.022-1.372 3.022-3.043 0-.163-.556-2.42-1.669-6.77l.998-1.912.719 2.116c.01.034.024.068.04.099l.395.812a.695.695 0 0 0 .094.152L20.51 37.1a.826.826 0 0 0 .337.26c.54.524 1.231.9 2.04.9 1.66 0 3.023-1.371 3.023-3.043 0-.55-.29-.98-.54-1.422.003-.127-1.545-2.359-4.642-6.695V15.812l1.384 1.688c.047.054.1.105.159.15.384.367.903.61 1.48.61.432 0 .837-.131 1.171-.349l-.115.065 5.502-2.51-.067.026c.131-.047.246-.102.341-.152a.88.88 0 0 0 .374-.347c.574-.476.999-1.14.999-1.95 0-1.43-1.17-2.608-2.591-2.608-.178 0-1.833.738-4.966 2.215l-2.54-3.007a.892.892 0 0 0-.29-.224c-.456-.417-1.032-.723-1.704-.723-.101 0-.158.014-.233.023zm-5.813-6.98c1.44 0 2.591 1.158 2.591 2.609 0 1.45-1.15 2.609-2.59 2.609a2.588 2.588 0 0 1-2.592-2.61 2.588 2.588 0 0 1 2.591-2.608zm0-1.739C11.443 0 9.5 1.957 9.5 4.348s1.943 4.348 4.318 4.348c2.375 0 4.318-1.957 4.318-4.348S16.193 0 13.818 0z"/>
</svg>
