<?xml version="1.0" encoding="UTF-8"?>
<svg width="13px" height="13px" viewBox="0 0 13 13" version="1.1" xmlns="http://www.w3.org/2000/svg" xmlns:xlink="http://www.w3.org/1999/xlink">
    <!-- Generator: Sketch 49.1 (51147) - http://www.bohemiancoding.com/sketch -->
    <title>pen (2)</title>
    <desc>Created with Sketch.</desc>
    <defs></defs>
    <g id="Profile-Pages" stroke="none" stroke-width="1" fill="none" fill-rule="evenodd">
        <g id="Profile-Edit-Page/-Media" transform="translate(-150.000000, -134.000000)" fill="#EC2552">
            <g id="left-menu" transform="translate(150.000000, 125.000000)">
                <g id="pen-(2)" transform="translate(0.000000, 9.000000)">
                    <g id="Shape">
                        <path d="M12.4028189,0.600197204 C12.0167624,0.214140711 11.5040311,0 10.955107,0 C10.4061829,0 9.89646772,0.214140711 9.50739516,0.600197204 C9.36564004,0.741952323 9.36564004,0.971173366 9.50739516,1.11292848 C9.64915028,1.2546836 9.87837132,1.2546836 10.0201264,1.11292848 C10.27046,0.862594977 10.6022272,0.726871991 10.955107,0.726871991 C11.3079868,0.726871991 11.6397541,0.865611043 11.8900876,1.11292848 C12.4058349,1.62867583 12.4058349,2.46714228 11.8900876,2.98288962 C11.8810394,2.99193782 11.8719912,3.00098602 11.8659591,3.01003422 C11.8569109,3.01908242 11.8478627,3.02511455 11.8388145,3.03416275 L11.2898904,3.58308683 L8.23763123,0.533843745 C8.09587611,0.392088626 7.86665507,0.392088626 7.72489995,0.533843745 L3.0499971,5.20874659 C2.90824198,5.35050171 2.90824198,5.57972275 3.0499971,5.72147787 C3.11936663,5.7908474 3.21286468,5.82704019 3.30636274,5.82704019 C3.3998608,5.82704019 3.49034279,5.7908474 3.56272838,5.72147787 L7.98126559,1.2999246 L8.39446668,1.71312569 L1.30067861,8.80992982 C1.23130909,8.87929934 1.19511629,8.96978134 1.19511629,9.06629546 C1.19511629,9.16280958 1.23432516,9.25329157 1.30067861,9.3226611 L1.52989966,9.55188214 L0.519517429,10.5592483 C0.450147903,10.6286178 0.413955107,10.7190998 0.413955107,10.8156139 C0.413955107,10.9121281 0.45316397,11.0026101 0.519517429,11.0719796 L0.968911316,11.5213735 L0.106316339,12.3839684 C-0.0354387797,12.5257236 -0.0354387797,12.7549446 0.106316339,12.8966997 C0.175685865,12.9660693 0.269183922,13.002262 0.362681979,13.002262 C0.456180036,13.002262 0.546662027,12.9660693 0.619047619,12.8966997 L1.4816426,12.0341048 L1.93103648,12.4834986 C2.00040601,12.5528682 2.090888,12.589061 2.18740212,12.589061 C2.28391625,12.589061 2.37439824,12.5498521 2.44376776,12.4834986 L3.45414999,11.4731164 L3.68337103,11.7023375 C3.75274056,11.771707 3.84623862,11.8078998 3.93973667,11.8078998 C4.03323473,11.8078998 4.12371672,11.771707 4.19610231,11.7023375 L12.3515457,3.54689403 C12.3605939,3.53784583 12.3696421,3.52879763 12.3756743,3.51974943 C12.3847225,3.51070124 12.3937707,3.5046691 12.4028189,3.4956209 C13.1990604,2.69334725 13.1990604,1.39643872 12.4028189,0.600197204 Z M2.18441622,11.7144017 L1.28562844,10.8156139 L2.03964503,10.0615974 L2.48903892,10.5109912 L2.93843281,10.9603851 L2.18441622,11.7144017 Z M3.93675077,10.9332405 L3.70752973,10.7040195 L3.0017702,9.99825996 L2.06678963,9.06327939 L8.90722812,2.22585697 L10.7771893,4.09581811 L3.93675077,10.9332405 Z" fill-rule="nonzero"></path>
                    </g>
                </g>
            </g>
        </g>
    </g>
</svg>