<svg xmlns="http://www.w3.org/2000/svg" width="9" height="18" viewBox="0 0 9 18">
    <g fill="none" fill-rule="evenodd">
        <path fill="#1C2D4D" d="M-1144-59H296V77h-1440z"/>
        <path fill="#EC2552" fill-rule="nonzero" d="M8.661.004L6.502 0C4.077 0 2.51 1.739 2.51 4.43v2.042H.34c-.188 0-.34.165-.34.367V9.8c0 .203.152.367.34.367h2.17v7.467c0 .203.152.367.34.367H5.68c.188 0 .34-.164.34-.367v-7.467h2.537c.188 0 .34-.164.34-.367v-2.96a.383.383 0 0 0-.099-.26.327.327 0 0 0-.24-.107H6.021V4.741c0-.832.183-1.255 1.186-1.255H8.66c.187 0 .339-.165.339-.367V.37c0-.203-.152-.367-.339-.367z"/>
    </g>
</svg>
