<?xml version="1.0" encoding="UTF-8"?>
<svg width="16px" height="32px" viewBox="0 0 16 32" version="1.1" xmlns="http://www.w3.org/2000/svg" xmlns:xlink="http://www.w3.org/1999/xlink">
    <!-- Generator: sketchtool 51 (57462) - http://www.bohemiancoding.com/sketch -->
    <title>06E809DE-8F26-4F88-9A70-2DF628151F2D</title>
    <desc>Created with sketchtool.</desc>
    <defs></defs>
    <g id="help-page" stroke="none" stroke-width="1" fill="none" fill-rule="evenodd">
        <g id="Contact-Us" transform="translate(-1007.000000, -455.000000)">
            <rect fill="#FFFFFF" x="0" y="0" width="1440" height="1021"></rect>
            <g id="Group-6" transform="translate(929.000000, 136.000000)" fill="#EC2552" fill-rule="nonzero">
                <g id="facebook-logo">
                    <g id="Group-4">
                        <path d="M93.397487,319.006658 L89.5598145,319 C85.2483211,319 82.4620447,322.09104 82.4620447,326.875243 L82.4620447,330.506258 L78.6034367,330.506258 C78.2700071,330.506258 78,330.79855 78,331.159088 L78,336.420014 C78,336.780552 78.270315,337.072511 78.6034367,337.072511 L82.4620447,337.072511 L82.4620447,350.347503 C82.4620447,350.708041 82.7320518,351 83.0654813,351 L88.0998672,351 C88.4332968,351 88.7033039,350.707708 88.7033039,350.347503 L88.7033039,337.072511 L93.2149166,337.072511 C93.5483461,337.072511 93.8183532,336.780552 93.8183532,336.420014 L93.8202005,331.159088 C93.8202005,330.985976 93.7564702,330.820189 93.6434798,330.697679 C93.5304893,330.575169 93.3765514,330.506258 93.216456,330.506258 L88.7033039,330.506258 L88.7033039,327.428201 C88.7033039,325.948764 89.0293444,325.197726 90.8116377,325.197726 L93.3968712,325.196727 C93.7299929,325.196727 94,324.904435 94,324.54423 L94,319.659155 C94,319.299283 93.7303008,319.007324 93.397487,319.006658 Z" id="Shape"></path>
                    </g>
                </g>
            </g>
        </g>
    </g>
</svg>