<svg xmlns="http://www.w3.org/2000/svg" width="40" height="40" viewBox="0 0 40 40">
    <path fill="#EC2552" fill-rule="evenodd" d="M8.922 24.935a.457.457 0 0 0-.325.125l-.95.95a.462.462 0 0 0 0 .649l5.698 5.696a.468.468 0 0 0 .65 0l.95-.949a.468.468 0 0 0 0-.65L9.247 25.06a.457.457 0 0 0-.325-.125m8.672-4.922c1.334 0 2.4 1.066 2.4 2.4a2.387 2.387 0 0 1-2.4 2.398 2.387 2.387 0 0 1-2.4-2.399c0-1.333 1.066-2.399 2.4-2.399m1.1-9.118c1.555 0 3.127.868 4.348 1.798l-5.748 5.747c-2.056.159-3.699 1.876-3.699 3.972a4.01 4.01 0 0 0 3.999 3.997c2.096 0 3.814-1.642 3.974-3.697l5.747-5.746c.635.827 1.256 1.807 1.575 2.847.406 1.322.403 2.655-.55 4.048-.628.918-1.362 1.258-2.249 1.574-.888.316-1.947.537-2.799 1.424v.025c-1.068 1.112-1.04 2.655-1.4 4.322-.359 1.668-.968 3.491-2.774 5.296-1.327 1.328-2.758 1.9-4.323 1.9-2.596 0-5.63-1.69-8.497-4.673h-.026c-2.392-2.298-3.96-4.725-4.472-6.92-.513-2.195-.066-4.156 1.7-5.92 1.805-1.806 3.629-2.416 5.297-2.775 1.668-.358 3.211-.33 4.323-1.399.884-.845 1.15-1.892 1.475-2.772.325-.881.653-1.618 1.575-2.249.862-.59 1.7-.8 2.524-.8M36.987 4.05a.403.403 0 0 0-.3.125l-2.974 2.973a.437.437 0 0 0 .325.749.457.457 0 0 0 .324-.125l2.95-2.973a.437.437 0 0 0-.325-.75m-1.475-1.473a.406.406 0 0 0-.3.124l-2.974 2.974a.437.437 0 0 0 .325.749.401.401 0 0 0 .3-.125l2.974-2.973a.437.437 0 0 0-.325-.75m.1-.949a.67.67 0 0 1 .475.2l2.1 2.098a.655.655 0 0 1 0 .95l-3.5 3.498a.661.661 0 0 1-.65.175l-.449-.126-.3.326-6.273 6.27a.744.744 0 0 0-.124.1.931.931 0 0 0-.175.175c-.028.04-.053.081-.076.124l-5.398 5.373a4.043 4.043 0 0 0-2.024-2.025l5.423-5.42.025-.026.05-.025a.771.771 0 0 0 .225-.225c.02-.024.034-.05.05-.075l6.273-6.245.325-.325-.126-.45a.658.658 0 0 1 .176-.65l3.498-3.497a.663.663 0 0 1 .475-.2M32.713.002a1.142 1.142 0 0 0-.1.025.795.795 0 0 0-.624.562.803.803 0 0 0 .225.812l.524.525-.45.45-.525-.525a.802.802 0 0 0-.649-.25 1.142 1.142 0 0 0-.1.025.795.795 0 0 0-.625.562.803.803 0 0 0 .225.812l.525.525-.65.674c-.453.453-.587 1.044-.575 1.624l-5.698 5.696h-.024c-1.388-1.1-3.315-2.223-5.498-2.223-1.122 0-2.31.31-3.425 1.074-1.274.872-1.817 2.052-2.173 3.023-.357.971-.585 1.705-1.075 2.174-.431.415-1.772.611-3.574.999-1.803.387-4.03 1.127-6.098 3.198C.238 21.872-.39 24.523.225 27.159c.613 2.626 2.371 5.258 4.898 7.694l.025.026C8.191 38.033 11.543 40 14.795 40c1.965 0 3.861-.762 5.448-2.349 2.07-2.07 2.811-4.29 3.199-6.096.387-1.805.584-3.14 1-3.571.465-.485 1.221-.7 2.198-1.05.978-.35 2.15-.896 3.024-2.174 1.237-1.805 1.284-3.766.775-5.42-.425-1.378-1.208-2.571-1.974-3.524l5.723-5.72c.58.012 1.172-.122 1.624-.576l.675-.649.525.525a.812.812 0 1 0 1.15-1.149l-.526-.525.45-.45.525.525a.812.812 0 1 0 1.15-1.149l-.525-.525.075-.1a2.284 2.284 0 0 0 0-3.223L37.237.702c-.007-.007-.019.006-.025 0a2.314 2.314 0 0 0-1.6-.675c-.587 0-1.18.231-1.624.675l-.1.075-.525-.524a.802.802 0 0 0-.65-.25"/>
</svg>
