<?xml version="1.0" encoding="UTF-8"?>
<svg width="32px" height="32px" viewBox="0 0 32 32" version="1.1" xmlns="http://www.w3.org/2000/svg" xmlns:xlink="http://www.w3.org/1999/xlink">
    <!-- Generator: sketchtool 51 (57462) - http://www.bohemiancoding.com/sketch -->
    <title>2750EEBD-CD9D-4671-88D8-C29BB6E2AB36</title>
    <desc>Created with sketchtool.</desc>
    <defs></defs>
    <g id="help-page" stroke="none" stroke-width="1" fill="none" fill-rule="evenodd">
        <g id="Contact-Us" transform="translate(-930.000000, -455.000000)">
            <rect fill="#FFFFFF" x="0" y="0" width="1440" height="1021"></rect>
            <g id="Group-6" transform="translate(929.000000, 136.000000)" fill="#EC2552" fill-rule="nonzero">
                <g id="facebook-logo">
                    <g id="Group-4">
                        <path d="M5.1088,319 L28.89312,319 C31.1527467,319 33,320.848041 33,323.107849 L33,346.894072 C33,349.153239 31.1527467,351 28.89312,351 L5.1088,351 C2.84917333,351 1,349.153132 1,346.894072 L1,323.107849 C1,320.848041 2.84917333,319 5.1088,319 Z M24.3115733,322.554098 C23.5181867,322.554098 22.87104,323.203856 22.87104,323.99688 L22.87104,327.443982 C22.87104,328.237326 23.5181867,328.885591 24.3115733,328.885591 L27.9278933,328.885591 C28.72,328.885591 29.3685333,328.237326 29.3685333,327.443982 L29.3685333,323.99688 C29.3685333,323.203856 28.72,322.554098 27.9278933,322.554098 L24.3115733,322.554098 Z M29.3822933,332.532389 L26.56672,332.532389 C26.8337067,333.404459 26.9784533,334.324106 26.9784533,335.280236 C26.9784533,340.601408 22.5234133,344.917273 17.03008,344.917273 C11.5381333,344.917273 7.08298667,340.601408 7.08298667,335.280236 C7.08298667,334.324106 7.22912,333.404459 7.49482667,332.532389 L4.55733333,332.532389 L4.55733333,346.051551 C4.55733333,346.75166 5.12896,347.321199 5.82837333,347.321199 L28.1117867,347.321199 C28.81184,347.321199 29.3822933,346.75166 29.3822933,346.051551 L29.3822933,332.532389 Z M17.0301867,328.703816 C13.4824533,328.703816 10.6045867,331.491026 10.6045867,334.932368 C10.6045867,338.37019 13.4824533,341.159533 17.0301867,341.159533 C20.57984,341.159533 23.4578133,338.37019 23.4578133,334.932368 C23.4578133,331.490919 20.57984,328.703816 17.0301867,328.703816 Z" id="XMLID_505_"></path>
                    </g>
                </g>
            </g>
        </g>
    </g>
</svg>