<svg xmlns="http://www.w3.org/2000/svg" width="18" height="18" viewBox="0 0 18 18">
    <g fill="none" fill-rule="evenodd">
        <path fill="#EC2552" fill-rule="nonzero" d="M2.311 0H15.69C16.96 0 18 1.04 18 2.31v13.38c0 1.271-1.04 2.31-2.31 2.31H2.31A2.317 2.317 0 0 1 0 15.69V2.31C0 1.04 1.04 0 2.311 0zm10.802 2a.813.813 0 0 0-.81.81v1.94c0 .446.363.81.81.81h2.034c.445 0 .81-.364.81-.81V2.81a.814.814 0 0 0-.81-.81h-2.034zm2.852 5.612h-1.584c.15.49.232 1.008.232 1.546 0 2.993-2.506 5.42-5.596 5.42-3.09 0-5.595-2.427-5.595-5.42 0-.538.082-1.055.231-1.546H2.001v7.604c0 .394.322.715.715.715H15.25c.394 0 .715-.32.715-.715V7.612zM9.017 5.458c-1.996 0-3.614 1.568-3.614 3.504 0 1.934 1.618 3.503 3.614 3.503 1.997 0 3.616-1.57 3.616-3.503 0-1.936-1.62-3.504-3.616-3.504z"/>
    </g>
</svg>
