<svg xmlns="http://www.w3.org/2000/svg" xmlns:xlink="http://www.w3.org/1999/xlink" width="9" height="13" viewBox="0 0 9 13">
    <defs>
        <rect id="a" width="1140" height="70" rx="5"/>
    </defs>
    <g fill="none" fill-rule="evenodd" transform="translate(-591 -16)">
        <mask id="b" fill="#fff">
            <use xlink:href="#a"/>
        </mask>
        <use fill="#FFF" xlink:href="#a"/>
        <rect width="1139" height="69" x=".5" y=".5" stroke="#EAEAEA" rx="5"/>
        <g mask="url(#b)">
            <g fill="#EC2552" fill-rule="nonzero">
                <path d="M595.5 16c-2.481 0-4.5 2.05-4.5 4.57 0 .852.232 1.683.672 2.404l3.572 5.846c.068.112.189.18.318.18h.003a.374.374 0 0 0 .32-.185l3.48-5.903A4.619 4.619 0 0 0 600 20.57c0-2.52-2.019-4.57-4.5-4.57zm3.222 6.52l-3.165 5.368-3.248-5.316a3.848 3.848 0 0 1-.564-2.002c0-2.1 1.687-3.813 3.755-3.813 2.068 0 3.752 1.713 3.752 3.813a3.85 3.85 0 0 1-.53 1.95z"/>
                <path d="M595.5 18a2.503 2.503 0 0 0-2.5 2.5c0 1.37 1.103 2.5 2.5 2.5 1.414 0 2.5-1.145 2.5-2.5 0-1.378-1.122-2.5-2.5-2.5zm0 4.172c-.924 0-1.672-.75-1.672-1.672 0-.919.753-1.672 1.672-1.672.919 0 1.67.753 1.67 1.672a1.67 1.67 0 0 1-1.67 1.672z"/>
            </g>
        </g>
    </g>
</svg>
