<svg xmlns="http://www.w3.org/2000/svg" xmlns:xlink="http://www.w3.org/1999/xlink" width="16" height="16" viewBox="0 0 16 16">
    <defs>
        <rect id="a" width="1140" height="70" rx="5"/>
    </defs>
    <g fill="none" fill-rule="evenodd" transform="translate(-21 -14)">
        <mask id="b" fill="#fff">
            <use xlink:href="#a"/>
        </mask>
        <use fill="#FFF" xlink:href="#a"/>
        <rect width="1139" height="69" x=".5" y=".5" stroke="#EAEAEA" rx="5"/>
        <g mask="url(#b)">
            <g fill="#EC2552" fill-rule="nonzero">
                <path d="M31.488 14c-3.04 0-5.512 2.478-5.512 5.524 0 1.253.42 2.41 1.124 3.338l-1.117 1.119a.264.264 0 0 0-.02.022 1.355 1.355 0 0 0-1.246.372L21.4 27.699a1.36 1.36 0 0 0-.4.968c0 .365.142.709.4.967s.6.4.965.4.707-.142.965-.4l3.318-3.325a1.36 1.36 0 0 0 .37-1.249.257.257 0 0 0 .023-.02l1.116-1.118a5.476 5.476 0 0 0 3.331 1.126c3.04 0 5.512-2.478 5.512-5.524S34.527 14 31.488 14zm-8.524 15.266a.84.84 0 0 1-.599.249.84.84 0 0 1-.599-.249.843.843 0 0 1-.248-.6c0-.226.088-.44.248-.6l2.996-3.002 1.198 1.2-2.996 3.002zm3.36-3.371l-1.193-1.196a.843.843 0 0 1 1.15.043c.16.16.248.373.248.6 0 .205-.072.4-.205.553zm.472-1.344a1.38 1.38 0 0 0-.324-.325l.962-.964c.103.113.212.221.324.325l-.962.964zm4.692-.023c-2.753 0-4.993-2.245-4.993-5.004 0-2.76 2.24-5.005 4.993-5.005 2.754 0 4.994 2.245 4.994 5.005s-2.24 5.004-4.994 5.004z"/>
                <path d="M31.466 15.106a4.406 4.406 0 0 0 0 8.812 4.406 4.406 0 0 0 0-8.812zm0 8.294a3.888 3.888 0 0 1 0-7.776 3.888 3.888 0 0 1 0 7.776z"/>
                <path d="M33.261 16.745a.26.26 0 0 0-.282.434 2.79 2.79 0 0 1 .628 4.103.26.26 0 0 0 .2.424.258.258 0 0 0 .199-.094 3.31 3.31 0 0 0 .753-2.1c0-1.12-.56-2.154-1.498-2.767zM32.064 16.266a3.314 3.314 0 0 0-.598-.054.259.259 0 0 0 0 .518c.17 0 .34.015.505.046a.259.259 0 0 0 .093-.51z"/>
            </g>
        </g>
    </g>
</svg>
