<svg xmlns="http://www.w3.org/2000/svg" width="36" height="40" viewBox="0 0 36 40">
    <path fill="#EC2552" fill-rule="evenodd" d="M6.817 23.341h22.366l1.413 14.905v.004c-.018 0 0-.004-.031-.004H5.425c-.025 0-.008.004-.021.004v-.004l1.413-14.905zm.58-6.137h5.136c.123.024.25.024.373 0h15.697l.411 4.384H6.984l.413-4.384zM3.508 3.511c.057.01.064 0 .36.068 3.166.767 6.155 2.391 8.64 4.813.053.05.105.113.159.164a.648.648 0 0 0 .13.13 27.256 27.256 0 0 1 3.353 4.102c-.088.032-.186.056-.274.09a.879.879 0 0 0-.587.681.86.86 0 0 0 .327.832.918.918 0 0 0 .907.124c1.265-.473 2.658-.818 4.177-.818 1.055 0 2.861.452 4.349 1.754H12.997c-.84-.627-2.436-2.032-3.143-2.72-2.538-2.473-5.38-6.02-6.293-8.935-.053-.169-.042-.2-.053-.285zm9.37-1.671c.084.023.115.017.362.15 2.858 1.535 5.312 3.856 7.07 6.823a18.308 18.308 0 0 1 1.508 3.23 7.83 7.83 0 0 0-1.118-.1c-.977 0-1.895.127-2.757.322-1.096-1.737-2.45-3.37-3.764-4.703-.76-2.417-1.101-4.075-1.298-5.53-.017-.127-.007-.12-.004-.192zM12.687 0c-.18.004-.37.032-.57.1-.404.13-.777.496-.928.894-.155.397-.158.808-.095 1.27.124.918.316 1.932.605 3.11A20.272 20.272 0 0 0 4.3 1.88c-.303-.076-.623-.154-.953-.158-.331 0-.672.072-1.027.305-.352.233-.587.665-.636 1.065-.05.398.017.78.155 1.216 1.09 3.472 4.081 7.069 6.743 9.662.393.384.998.938 1.617 1.48H.45c-.25 0-.45.194-.45.438v.877c0 .243.2.438.45.438h5.14L3.607 38.157s-.064.425.154.884c.215.456.855.939 1.614.959H30.635c.756-.027 1.385-.507 1.6-.963.217-.455.161-.876.161-.876v.003l-1.986-20.96h5.14c.25 0 .45-.195.45-.438v-.877c0-.244-.2-.438-.45-.438h-8.08a8.6 8.6 0 0 0-3.578-2.806 19.869 19.869 0 0 0-2.025-4.71C19.951 4.7 17.255 2.149 14.108.457c-.281-.154-.58-.309-.907-.39A1.826 1.826 0 0 0 12.687 0z"/>
</svg>
