<?xml version="1.0" encoding="UTF-8"?>
<svg width="72px" height="33px" viewBox="0 0 72 33" version="1.1" xmlns="http://www.w3.org/2000/svg" xmlns:xlink="http://www.w3.org/1999/xlink">
    <!-- Generator: Sketch 51 (57462) - http://www.bohemiancoding.com/sketch -->
    <title>mail</title>
    <desc>Created with Sketch.</desc>
    <defs></defs>
    <g id="Log-In-/-Sihn-Up" stroke="none" stroke-width="1" fill="none" fill-rule="evenodd">
        <g id="Confirmation" transform="translate(-685.000000, -266.000000)" fill="#EC2552" fill-rule="nonzero">
            <g id="mail" transform="translate(685.000000, 266.000000)">
                <path d="M70.5757327,0 L24.4236912,0 C23.6370555,0 22.999424,0.649149563 22.999424,1.44999483 L22.999424,4.18464044 L9.42426729,4.18464044 C8.63763157,4.18464044 8,4.83379 8,5.63463527 C8,6.43548054 8.63763157,7.0846301 9.42426729,7.0846301 L22.999424,7.0846301 L22.999424,25.9153699 L14.8857507,25.9153699 C14.099115,25.9153699 13.4614834,26.5645195 13.4614834,27.3653647 C13.4614834,28.16621 14.099115,28.8153596 14.8857507,28.8153596 L22.999424,28.8153596 L22.999424,31.5500052 C22.999424,32.3508504 23.6370555,33 24.4236912,33 L70.5757327,33 C71.3623684,33 72,32.3508504 72,31.5500052 L72,1.44999483 C72,0.649149563 71.3623684,0 70.5757327,0 Z M67,3 L47.4554188,19 L28,3 L67,3 Z M69,30 L26,30 L26,5 L46.6001741,22.2287225 C46.8614273,22.4471227 47.1806443,22.5565337 47.5,22.5565337 C47.8182463,22.5565337 48.1366313,22.4479665 48.3973298,22.230832 L69,5.07861281 L69,30 Z" id="Shape"></path>
                <path d="M17.5079078,15 L1.49209221,15 C0.66799618,15 0,15.6715364 0,16.5 C0,17.3284636 0.66799618,18 1.49209221,18 L17.5079078,18 C18.3320038,18 19,17.3284636 19,16.5 C19.0001463,15.6715364 18.3320038,15 17.5079078,15 Z" id="Shape"></path>
                <path d="M9.81631785,26 L9.18368215,26 C8.52992379,26 8,26.6715364 8,27.5 C8,28.3284636 8.52992379,29 9.18368215,29 L9.81631785,29 C10.4700762,29 11,28.3284636 11,27.5 C11,26.6715364 10.4700762,26 9.81631785,26 Z" id="Shape"></path>
            </g>
        </g>
    </g>
</svg>