<?xml version="1.0" encoding="UTF-8"?>
<svg width="13px" height="13px" viewBox="0 0 13 13" version="1.1" xmlns="http://www.w3.org/2000/svg" xmlns:xlink="http://www.w3.org/1999/xlink">
    <!-- Generator: Sketch 49.1 (51147) - http://www.bohemiancoding.com/sketch -->
    <title>gallery</title>
    <desc>Created with Sketch.</desc>
    <defs></defs>
    <g id="Profile-Pages" stroke="none" stroke-width="1" fill="none" fill-rule="evenodd">
        <g id="Profile-Edit-Page/-Media" transform="translate(-150.000000, -267.000000)" fill="#EC2552">
            <g id="left-menu" transform="translate(150.000000, 125.000000)">
                <g id="gallery" transform="translate(0.000000, 142.000000)">
                    <g>
                        <circle id="Oval" fill-rule="nonzero" cx="7.77777778" cy="4.04444444" r="1"></circle>
                        <path d="M0.0444444444,12.6111111 C0.0444444444,12.6111111 0.0444444444,12.6222222 0.0444444444,12.6111111 C0.0444444444,12.6222222 0.0444444444,12.6222222 0.0555555556,12.6222222 C0.0666666667,12.6444444 0.0777777778,12.6777778 0.0888888889,12.7 C0.0888888889,12.7111111 0.1,12.7111111 0.1,12.7222222 C0.1,12.7333333 0.111111111,12.7333333 0.111111111,12.7444444 C0.111111111,12.7444444 0.122222222,12.7555556 0.122222222,12.7555556 C0.133333333,12.7777778 0.155555556,12.7888889 0.166666667,12.8111111 C0.166666667,12.8111111 0.177777778,12.8222222 0.177777778,12.8222222 C0.188888889,12.8333333 0.188888889,12.8333333 0.2,12.8444444 C0.211111111,12.8444444 0.211111111,12.8555556 0.211111111,12.8555556 C0.222222222,12.8666667 0.233333333,12.8666667 0.244444444,12.8777778 C0.244444444,12.8777778 0.255555556,12.8888889 0.255555556,12.8888889 C0.255555556,12.8888889 0.266666667,12.8888889 0.266666667,12.9 C0.277777778,12.9111111 0.3,12.9111111 0.311111111,12.9222222 C0.322222222,12.9222222 0.322222222,12.9222222 0.333333333,12.9333333 C0.344444444,12.9333333 0.355555556,12.9444444 0.355555556,12.9444444 C0.388888889,12.9555556 0.422222222,12.9555556 0.455555556,12.9555556 L12.4777778,12.9555556 C12.7333333,12.9555556 12.9333333,12.7555556 12.9333333,12.5 L12.9333333,9.5 L12.9333333,0.511111111 C12.9333333,0.255555556 12.7333333,0.0555555556 12.4777778,0.0555555556 L0.488888889,0.0555555556 C0.233333333,0.0555555556 0.0333333333,0.255555556 0.0333333333,0.511111111 L0.0333333333,9.47777778 L0.0333333333,12.4777778 C0.0333333333,12.5111111 0.0444444444,12.5555556 0.0444444444,12.5888889 C0.0444444444,12.6 0.0444444444,12.6111111 0.0444444444,12.6111111 Z M12.0555556,12.0333333 L2.01111111,12.0333333 L9.43333333,7.17777778 L12.0555556,9.67777778 L12.0555556,12.0333333 Z M0.944444444,0.966666667 L12.0555556,0.966666667 L12.0555556,8.42222222 L9.8,6.26666667 C9.64444444,6.12222222 9.41111111,6.1 9.23333333,6.21111111 L7.11111111,7.61111111 L5.63333333,6.12222222 C5.47777778,5.96666667 5.24444444,5.94444444 5.06666667,6.05555556 L0.944444444,8.65555556 L0.944444444,0.966666667 Z M0.944444444,9.73333333 L5.24444444,7.02222222 L6.33333333,8.12222222 L0.944444444,11.6444444 L0.944444444,9.73333333 Z" id="Shape" fill-rule="nonzero"></path>
                    </g>
                </g>
            </g>
        </g>
    </g>
</svg>