<?xml version="1.0" encoding="UTF-8"?>
<svg width="14px" height="14px" viewBox="0 0 14 14" version="1.1" xmlns="http://www.w3.org/2000/svg" xmlns:xlink="http://www.w3.org/1999/xlink">
    <!-- Generator: Sketch 49.1 (51147) - http://www.bohemiancoding.com/sketch -->
    <title>wallet (1)</title>
    <desc>Created with Sketch.</desc>
    <defs></defs>
    <g id="Profile-Pages" stroke="none" stroke-width="1" fill="none" fill-rule="evenodd">
        <g id="Profile-Edit-Page/-Media" transform="translate(-150.000000, -300.000000)" fill="#ED2A56">
            <g id="left-menu" transform="translate(150.000000, 125.000000)">
                <g id="wallet-(1)" transform="translate(0.000000, 175.000000)">
                    <g id="Shape">
                        <path d="M13.9661982,6.51936119 L13.2907087,6.51936119 L13.2907087,3.43062687 C13.2907087,2.69013134 12.6846727,2.08771343 11.9397297,2.08771343 L11.0248529,2.08771343 L10.0886186,0.414441791 C9.94592793,0.158722388 9.67437838,0 9.37987387,0 C9.24260661,0 9.10643243,0.0351880597 8.98619219,0.101510448 L5.39311111,2.08767164 L1.37960961,2.08767164 C0.634666667,2.08767164 0.0286306306,2.69008955 0.0286306306,3.43058507 L0.0286306306,12.6519045 C0.0286306306,13.3924 0.634666667,13.9948179 1.37960961,13.9948179 L11.9397297,13.9948179 C12.6846727,13.9948179 13.2907087,13.3924 13.2907087,12.6519045 L13.2907087,9.94376119 L13.9661982,9.94376119 L13.9661982,6.51936119 Z M11.9397297,2.62485373 C12.3558198,2.62485373 12.6957297,2.9390806 12.7413874,3.34115224 L11.725988,3.34115224 L11.3255375,2.62485373 L11.9397297,2.62485373 Z M9.24908108,0.570991045 C9.3757958,0.500364179 9.54631832,0.549761194 9.61627628,0.67521791 L11.1077598,3.34090149 L4.23775375,3.34090149 L9.24908108,0.570991045 Z M12.7503003,12.6519045 C12.7503003,13.0961433 12.3865946,13.4576776 11.9396877,13.4576776 L1.37960961,13.4576776 C0.932702703,13.4576776 0.568996997,13.0961433 0.568996997,12.6519045 L0.568996997,3.43062687 C0.568996997,2.98638806 0.932702703,2.62485373 1.37960961,2.62485373 L4.42147748,2.62485373 L3.12561562,3.34119403 L1.54849249,3.34119403 C1.39907508,3.34119403 1.27828829,3.46151045 1.27828829,3.60978507 C1.27828829,3.7580597 1.39907508,3.87837612 1.54849249,3.87837612 L2.15372973,3.87837612 L12.0264625,3.87837612 L12.7503003,3.87837612 L12.7503003,6.51961194 L10.7743664,6.51961194 C9.85675676,6.51961194 9.10996396,7.26198806 9.10996396,8.17407761 L9.10996396,8.28958806 C9.10996396,9.2017194 9.8567988,9.94405373 10.7743664,9.94405373 L12.7503003,9.94405373 L12.7503003,12.6519045 Z M13.4257898,9.4066209 L13.2907087,9.4066209 L10.7743664,9.4066209 C10.1545405,9.4066209 9.65033033,8.90546269 9.65033033,8.28929552 L9.65033033,8.17378507 C9.65033033,7.5576597 10.1544985,7.0564597 10.7743664,7.0564597 L13.2907087,7.0564597 L13.4257898,7.0564597 L13.4257898,9.4066209 Z M11.601964,8.25360597 C11.601964,8.58128955 11.334997,8.8466209 11.0053874,8.8466209 C10.6757357,8.8466209 10.4088108,8.58124776 10.4088108,8.25360597 C10.4088108,7.92596418 10.6757778,7.66059104 11.0053874,7.66059104 C11.335039,7.66054925 11.601964,7.92617313 11.601964,8.25360597 Z" fill-rule="nonzero"></path>
                    </g>
                </g>
            </g>
        </g>
    </g>
</svg>