<?xml version="1.0" encoding="UTF-8"?>
<svg width="13px" height="13px" viewBox="0 0 13 13" version="1.1" xmlns="http://www.w3.org/2000/svg" xmlns:xlink="http://www.w3.org/1999/xlink">
    <!-- Generator: Sketch 49.1 (51147) - http://www.bohemiancoding.com/sketch -->
    <title>gear</title>
    <desc>Created with Sketch.</desc>
    <defs></defs>
    <g id="Profile-Pages" stroke="none" stroke-width="1" fill="none" fill-rule="evenodd">
        <g id="Profile-Edit-Page/-Media" transform="translate(-150.000000, -166.000000)" fill="#EC2552" fill-rule="nonzero">
            <g id="gear" transform="translate(150.000000, 166.000000)">
                <path d="M0.45869191,5.15517241 C0.201376936,5.15517241 0,5.35689655 0,5.61465517 L0,7.40775862 C0,7.66551724 0.201376936,7.86724138 0.45869191,7.86724138 L1.29776248,7.86724138 C1.42082616,8.34913793 1.61101549,8.80862069 1.86833046,9.23448276 L1.28657487,9.81724138 C1.10757315,9.99655172 1.10757315,10.287931 1.28657487,10.4672414 L2.55077453,11.7336207 C2.72977625,11.912931 3.02065404,11.912931 3.19965577,11.7336207 L3.79259897,11.1396552 C4.21772806,11.3862069 4.67641997,11.5767241 5.15748709,11.7 L5.15748709,12.5405172 C5.15748709,12.7982759 5.35886403,13 5.616179,13 L7.40619621,13 C7.66351119,13 7.86488812,12.7982759 7.86488812,12.5405172 L7.86488812,11.6887931 C8.34595525,11.5655172 8.79345955,11.375 9.21858864,11.1284483 L9.82271945,11.7336207 C10.0017212,11.912931 10.292599,11.912931 10.4716007,11.7336207 L11.7358003,10.4672414 C11.9148021,10.287931 11.9148021,9.99655172 11.7358003,9.81724138 L11.1316695,9.21206897 C11.3777969,8.7862069 11.5679862,8.33793103 11.6910499,7.85603448 L12.5413081,7.85603448 C12.7986231,7.85603448 13,7.65431034 13,7.39655172 L13,5.60344828 C13,5.34568966 12.7986231,5.14396552 12.5413081,5.14396552 L11.6910499,5.14396552 C11.5679862,4.66206897 11.3777969,4.2137931 11.1316695,3.78793103 L11.7358003,3.18275862 C11.9148021,3.00344828 11.9148021,2.71206897 11.7358003,2.53275862 L10.4604131,1.27758621 C10.2814114,1.09827586 9.99053356,1.09827586 9.81153184,1.27758621 L9.21858864,1.87155172 C8.79345955,1.625 8.33476764,1.43448276 7.85370052,1.3 L7.85370052,0.459482759 C7.85370052,0.201724138 7.65232358,0 7.39500861,0 L5.60499139,0 C5.34767642,0 5.14629948,0.201724138 5.14629948,0.459482759 L5.14629948,1.3 C4.66523236,1.42327586 4.20654045,1.6137931 3.78141136,1.86034483 L3.18846816,1.26637931 C3.00946644,1.08706897 2.71858864,1.08706897 2.53958692,1.26637931 L1.27538726,2.54396552 C1.09638554,2.72327586 1.09638554,3.01465517 1.27538726,3.19396552 L1.85714286,3.77672414 C1.59982788,4.20258621 1.40963855,4.66206897 1.28657487,5.15517241 L0.45869191,5.15517241 Z M2.11445783,5.69310345 C2.22633391,5.06551724 2.47246127,4.49396552 2.81927711,3.97844828 C2.94234079,3.79913793 2.91996558,3.55258621 2.76333907,3.39568966 L2.24870912,2.86896552 L2.86402754,2.25258621 L3.38984509,2.77931034 C3.5464716,2.9362069 3.79259897,2.95862069 3.97160069,2.83534483 C4.48623064,2.47672414 5.06798623,2.24137931 5.68330465,2.12931034 C5.89586919,2.08448276 6.0636833,1.90517241 6.0636833,1.68103448 L6.0636833,0.930172414 L6.9363167,0.930172414 L6.9363167,1.68103448 C6.9363167,1.90517241 7.0929432,2.09568966 7.30550775,2.12931034 C7.92082616,2.24137931 8.49139415,2.48793103 9.0060241,2.83534483 C9.18502582,2.95862069 9.43115318,2.9362069 9.58777969,2.77931034 L10.1247849,2.24137931 L10.7401033,2.85775862 L10.2030981,3.39568966 C10.0464716,3.55258621 10.0240964,3.79913793 10.1471601,3.97844828 C10.4939759,4.49396552 10.7289157,5.06551724 10.8519793,5.68189655 C10.8967298,5.89482759 11.0869191,6.06293103 11.2994836,6.06293103 L12.060241,6.06293103 L12.060241,6.93706897 L11.2994836,6.93706897 C11.0757315,6.93706897 10.8855422,7.09396552 10.8519793,7.30689655 C10.7401033,7.92327586 10.5051635,8.49482759 10.1471601,9.01034483 C10.0240964,9.18965517 10.0464716,9.4362069 10.2030981,9.59310345 L10.7401033,10.1310345 L10.1247849,10.7474138 L9.58777969,10.2094828 C9.43115318,10.0525862 9.18502582,10.0301724 9.0060241,10.1534483 C8.49139415,10.512069 7.92082616,10.7474138 7.30550775,10.8594828 C7.0929432,10.9043103 6.9363167,11.0948276 6.9363167,11.3077586 L6.9363167,12.0586207 L6.0636833,12.0586207 L6.0636833,11.3077586 C6.0636833,11.0836207 5.9070568,10.8931034 5.68330465,10.8594828 C5.05679862,10.7474138 4.48623064,10.512069 3.97160069,10.1534483 C3.79259897,10.0301724 3.5464716,10.0525862 3.38984509,10.2094828 L2.86402754,10.7362069 L2.24870912,10.1534483 L2.77452668,9.62672414 C2.93115318,9.46982759 2.9535284,9.22327586 2.83046472,9.04396552 C2.47246127,8.52844828 2.23752151,7.94568966 2.11445783,7.32931034 C2.0697074,7.11637931 1.89070568,6.95948276 1.66695353,6.95948276 L0.928571429,6.95948276 L0.928571429,6.08534483 L1.66695353,6.08534483 C1.87951807,6.07413793 2.0697074,5.91724138 2.11445783,5.69310345 Z" id="Shape"></path>
                <path d="M6.5,10 C8.43060498,10 10,8.43060498 10,6.5 C10,4.56939502 8.43060498,3 6.5,3 C4.56939502,3 3,4.56939502 3,6.5 C3,8.43060498 4.56939502,10 6.5,10 Z M6.5,4.02135231 C7.87010676,4.02135231 8.97864769,5.12989324 8.97864769,6.5 C8.97864769,7.87010676 7.87010676,8.97864769 6.5,8.97864769 C5.12989324,8.97864769 4.02135231,7.87010676 4.02135231,6.5 C4.02135231,5.12989324 5.12989324,4.02135231 6.5,4.02135231 Z" id="Shape"></path>
            </g>
        </g>
    </g>
</svg>