<svg xmlns="http://www.w3.org/2000/svg" width="18" height="18" viewBox="0 0 18 18">
    <g fill="none" fill-rule="evenodd">
        <g fill="#EC2552" fill-rule="nonzero">
            <path d="M6 0H2C.8 0 0 .8 0 2v4c0 1.2.8 2 2 2h4c1.2 0 2-.8 2-2V2c0-1.2-.8-2-2-2zM6 10H2c-1.2 0-2 .8-2 2v4c0 1.2.8 2 2 2h4c1.2 0 2-.8 2-2v-4c0-1.2-.8-2-2-2zM16 0h-4c-1.2 0-2 .8-2 2v4c0 1.2.8 2 2 2h4c1.2 0 2-.8 2-2V2c0-1.2-.8-2-2-2zM16 10h-4c-1.2 0-2 .8-2 2v4c0 1.2.8 2 2 2h4c1.2 0 2-.8 2-2v-4c0-1.2-.8-2-2-2z"/>
        </g>
    </g>
</svg>
