<svg xmlns="http://www.w3.org/2000/svg" width="15" height="14" viewBox="0 0 15 14">
    <path fill="#EC2552" fill-rule="nonzero" d="M14.087 6.118a.99.99 0 0 0 .262-1.036 1.02 1.02 0 0 0-.834-.688L10.028 3.9a.455.455 0 0 1-.343-.245L8.126.564A1.029 1.029 0 0 0 7.2 0c-.395 0-.75.216-.926.563L4.715 3.655a.455.455 0 0 1-.343.244l-3.487.496a1.02 1.02 0 0 0-.834.687.99.99 0 0 0 .262 1.036l2.522 2.406a.44.44 0 0 1 .132.395l-.595 3.398c-.053.3.027.59.225.82a1.06 1.06 0 0 0 1.273.245l3.118-1.604a.476.476 0 0 1 .424 0l3.119 1.604a1.04 1.04 0 0 0 1.273-.245.974.974 0 0 0 .225-.82l-.596-3.398a.44.44 0 0 1 .132-.395l2.522-2.406z"/>
</svg>
