<?xml version="1.0" encoding="UTF-8"?>
<svg width="32px" height="29px" viewBox="0 0 32 29" version="1.1" xmlns="http://www.w3.org/2000/svg" xmlns:xlink="http://www.w3.org/1999/xlink">
    <!-- Generator: sketchtool 51 (57462) - http://www.bohemiancoding.com/sketch -->
    <title>B38DD587-76DE-4F29-ADCF-1D2833FF8F61</title>
    <desc>Created with sketchtool.</desc>
    <defs></defs>
    <g id="help-page" stroke="none" stroke-width="1" fill="none" fill-rule="evenodd">
        <g id="Contact-Us" transform="translate(-1063.000000, -458.000000)">
            <rect fill="#FFFFFF" x="0" y="0" width="1440" height="1021"></rect>
            <g id="Group-6" transform="translate(929.000000, 136.000000)" fill="#EC2552" fill-rule="nonzero">
                <g id="facebook-logo">
                    <g id="Group-4">
                        <path d="M166,325.431156 C164.82222,326.013409 163.55848,326.408287 162.230687,326.584578 C163.586454,325.678793 164.624259,324.242091 165.116129,322.535409 C163.844389,323.374224 162.440622,323.983312 160.944881,324.313494 C159.747127,322.887934 158.043438,322 156.153762,322 C152.528449,322 149.588993,325.279482 149.588993,329.321943 C149.588993,329.895271 149.64698,330.455239 149.75898,330.990706 C144.304017,330.685025 139.466937,327.76921 136.229546,323.338523 C135.663637,324.418324 135.341702,325.676518 135.341702,327.019591 C135.341702,329.560654 136.501494,331.802745 138.261183,333.114492 C137.185365,333.074356 136.173546,332.744174 135.287741,332.195348 L135.287741,332.286819 C135.287741,335.834006 137.551326,338.794448 140.552743,339.46823 C140.002833,339.633321 139.422963,339.724792 138.823067,339.724792 C138.399171,339.724792 137.989235,339.677948 137.5873,339.588694 C138.423118,342.500075 140.846704,344.61721 143.718186,344.675255 C141.472587,346.638499 138.641106,347.80528 135.565702,347.80528 C135.035819,347.80528 134.513883,347.769578 134,347.704884 C136.905469,349.786375 140.354834,351 144.062134,351 C156.137866,351 162.738661,339.840823 162.738661,330.163033 L162.716648,329.214896 C164.006376,328.188589 165.122142,326.899127 166,325.431156 Z" id="Shape"></path>
                    </g>
                </g>
            </g>
        </g>
    </g>
</svg>