<svg xmlns="http://www.w3.org/2000/svg" width="24" height="23" viewBox="0 0 24 23">
    <g fill="none" fill-rule="evenodd">
        <g fill="#EC2552" fill-rule="nonzero">
            <path d="M5.605 4.395l9.563-2.604-.507-1.02a1.349 1.349 0 0 0-1.804-.608l-8.56 4.232h1.308zM18.136 1.866a1.35 1.35 0 0 0-.356.049l-2.246.612-6.86 1.868H19.854l-.42-1.537a1.344 1.344 0 0 0-1.299-.992zM21.258 5.335H1.349A1.346 1.346 0 0 0 0 6.68v14.968c0 .742.603 1.344 1.347 1.344h19.908c.744 0 1.347-.602 1.347-1.344V17.9H14.61a2.288 2.288 0 0 1-2.29-2.284V12.627c0-.618.248-1.18.65-1.59a2.269 2.269 0 0 1 1.637-.69H22.602V6.678a1.342 1.342 0 0 0-1.344-1.344z"/>
            <path d="M23.547 11.63a1.346 1.346 0 0 0-.907-.351h-8.03c-.743 0-1.347.601-1.347 1.343v2.991c0 .741.604 1.343 1.347 1.343h8.03c.153 0 .299-.027.436-.072.178-.06.337-.156.471-.28.27-.244.44-.6.44-.991v-2.99c0-.393-.17-.748-.44-.992zm-6.125 2.755c0 .37-.301.671-.673.671h-.447a.673.673 0 0 1-.674-.671v-.446a.681.681 0 0 1 .673-.672h.448c.372 0 .673.3.673.672v.446z"/>
        </g>
    </g>
</svg>
